<svg width="1877" height="772" viewBox="0 0 1877 772" fill="none" xmlns="http://www.w3.org/2000/svg">
<path d="M1656.8 589.9L1732.2 514.5L1656.8 439.1V332.5H1550.2L1474.8 257.1L1399.4 332.5H1292.7V439.1L1217.3 514.5L1292.7 589.9V696.6H1399.4L1474.8 772L1550.2 696.6H1656.8V589.9Z" fill="#08A46D"/>
<path d="M1635.71 581.2L1702.31 514.5L1635.71 447.9V353.6H1541.41L1474.81 287L1408.11 353.6H1313.91V447.9L1247.21 514.5L1313.91 581.2V675.4H1408.11L1474.81 742.1L1541.41 675.4H1635.71V581.2Z" fill="#F1F1F2"/>
<path d="M1297 519.8C1300.7 509 1313.1 507.5 1322 503.7L1323.9 502.2V495.1C1329.1 489.5 1337.8 484.2 1343.4 482.4C1346.7 484.3 1352.4 484.3 1355.7 484.3L1359.5 487.7V491.4L1362.8 495.2C1362.8 496.7 1361.3 498.5 1361.3 500.4L1364.7 503.8H1368C1371.7 503.8 1378.9 496.7 1382.6 496.7C1378.8 489.6 1368 484.4 1364.7 477.3C1366.6 473.5 1369.9 468.3 1371.8 466.4C1377 466.4 1384.5 470.2 1389.7 468.3C1389.7 464.9 1387.9 454.1 1386 450.4C1384.5 450.4 1382.7 452.3 1380.8 452.3C1377.1 449 1371.8 447.1 1368.1 443.7C1370 441.8 1373.7 441.8 1375.6 441.8C1379 439.9 1386.1 438.1 1389.8 434.7C1388 432.9 1382.7 429.1 1380.8 429.1C1380.8 425.7 1382.7 423.9 1384.6 422C1386.1 422 1388 420.5 1389.8 420.5C1393.2 420.5 1396.9 422 1400.3 422L1404 425.7C1405.9 425.7 1407.7 422 1407.7 420.5C1412.9 420.5 1419.7 420.5 1423.4 423.9C1423.4 425.8 1421.5 427.3 1421.5 429.1C1427.1 434.7 1432.4 443.7 1439.5 439.9C1439.5 430.9 1432.4 425.7 1441.4 416.7V409.6C1451.9 404 1464.6 398.8 1475.1 397.3C1477 397.3 1478.9 398.8 1480.3 398.8L1485.9 404H1496.4C1496.4 407.7 1491.2 414.8 1487.8 418.6C1484.1 418.6 1478.9 422 1477 422C1482.2 431 1496.4 418.6 1501.7 413.4C1507.3 413.4 1518.1 407.8 1521.5 404.1C1523.4 406 1526.7 407.8 1528.6 409.7C1528.6 414.9 1524.9 420.6 1524.9 425.8C1526.7 427.3 1530.5 429.2 1532 431C1539.5 431 1548.1 425.8 1555.2 425.8C1558.9 429.2 1558.9 434.8 1558.9 438.1C1555.2 440 1549.9 441.8 1548.1 443.7C1548.1 450.4 1557.1 454.2 1560.8 457.5C1562.7 457.5 1566 454.2 1566 454.2V447.1L1569.7 443.7L1583.5 450.4V457.5C1583.5 457.5 1580.2 461.3 1580.2 463.1C1582.1 466.4 1582.1 473.5 1580.2 477.3C1583.5 479.1 1585.4 479.1 1589.2 475.4C1589.2 470.2 1592.9 466.4 1592.9 461.2L1600 454.1C1603.4 454.1 1606.8 455.9 1610.5 457.4C1610.5 470.1 1613.9 477.3 1628.5 477.3C1628.5 480.6 1626.6 482.5 1624.7 484.4C1615.7 484.4 1606.8 487.8 1596.3 487.8C1596.3 487.8 1592.9 491.5 1592.9 493.4C1589.2 493.4 1587.3 495.3 1585.4 496.8C1585.4 498.7 1589.2 502.4 1589.2 502.4C1600 502.4 1612.4 496.8 1621.3 505.7V512.8C1619.4 514.7 1615.7 516.5 1613.8 518H1606.7C1605.2 519.9 1601.5 521.4 1600 523.2C1596.3 521.3 1591 516.4 1589.2 514.6C1583.6 514.6 1575 514.6 1569.8 516.5L1575 521.4H1582.1C1587.4 526.6 1596.3 530.4 1601.6 536C1605.3 536 1612.4 534.1 1617.6 534.1C1619.5 536 1621.4 537.5 1621.4 541.2C1617.6 541.2 1608.7 546.4 1606.8 548.3V555.4L1603.4 558.7C1600 558.7 1593 560.6 1589.2 562.4C1583.6 558.7 1580.2 551.6 1575 546.4C1571.3 548.3 1569.8 553.5 1566 557.2H1558.9C1557 555.3 1553.7 549.7 1551.8 548.2C1546.6 548.2 1542.8 553.4 1541.3 557.2C1539.4 557.2 1537.6 558.7 1535.7 558.7C1535.7 560.6 1533.8 564.3 1533.8 566.2C1528.6 566.2 1524.8 557.2 1519.6 557.2H1516.2C1512.5 557.2 1509.1 564.3 1503.5 564.3L1500.1 560.5V553.4C1503.5 551.5 1509.1 548.2 1511 543C1509.1 543 1505.4 541.1 1501.7 541.1C1493.1 549.7 1495 564.3 1487.8 571.4V596C1500.1 608.7 1511 608.7 1524.8 615.8C1512.5 621 1494.9 615.8 1480.3 619.2C1480.3 619.2 1476.9 615.8 1475.1 615.8H1468C1460.9 619.2 1428.8 619.2 1421.7 615.8C1421.7 610.2 1430.7 605 1432.6 601.2C1436.3 601.2 1443.1 596 1446.8 594.5C1446.8 579.9 1448.7 553.4 1437.8 543L1434.5 546.3V557.1C1434.5 557.1 1430.8 560.5 1428.9 560.5C1425.5 557.1 1421.8 555.3 1419.9 551.5C1418.4 553.4 1413.1 558.6 1413.1 560.5V564.3C1413.1 566.2 1407.9 567.6 1406 567.6C1404.1 564.3 1402.3 558.6 1402.3 555.3C1400.4 553.4 1397 551.5 1395.2 549.7C1390 551.6 1386.2 555.3 1384.8 558.7C1375.8 560.6 1365 562.4 1354.5 562.4L1350.8 558.7V555.4C1350.8 549.8 1366.9 548.3 1370.2 548.3C1370.2 546.4 1372.1 544.5 1372.1 543.1C1375.9 543.1 1377.3 541.2 1381.1 541.2L1384.9 537.4C1388.3 537.4 1391.6 535.9 1393.5 534C1391.6 530.3 1384.9 526.5 1379.3 526.5C1379.3 523.2 1377.4 519.8 1375.9 517.9C1372.2 517.9 1370.3 519.8 1366.9 519.8L1363.1 523.2C1359.8 523.2 1354.5 525 1350.8 525C1348.9 526.5 1343.7 530.3 1339.9 530.3C1338.1 532.2 1334.7 534 1332.8 535.9C1329.4 532.2 1322.3 525 1318.6 523.2C1311.2 525 1298.9 528.4 1297 519.8ZM1384.5 508.9L1380.7 505.5H1365C1365 512.6 1370.2 514.5 1375.5 516C1378.9 516.1 1386 512.7 1384.5 508.9ZM1409.1 468.2C1410.9 468.2 1414.7 464.8 1414.7 464.8C1414.7 462.9 1410.9 459.2 1410.9 459.2C1405.7 459.2 1400.5 463 1395.2 463C1395.2 468.2 1397.1 484.3 1398.6 489.5C1398.6 489.5 1402.3 485.8 1403.8 485.8C1403.9 478.7 1409.1 473.4 1409.1 468.2ZM1434.2 505.5C1434.2 505.5 1437.9 502.2 1437.9 500.3C1434.2 498.4 1428.9 496.9 1427.5 493.2C1423.8 493.2 1420 495.1 1418.5 495.1C1418.5 500.3 1421.8 500.3 1420 505.5C1416.7 504 1412.9 504 1409.5 504C1411 507 1414.7 512.6 1416.6 514.5C1419.9 514.5 1421.8 512.6 1423.7 510.8C1427.4 510.8 1432.7 507.1 1434.2 505.5ZM1420 521.6L1416.7 517.9C1412.9 517.9 1409.2 519.8 1407.7 519.8L1414.8 526.9C1416.6 526.9 1420 523.2 1420 521.6ZM1407.6 516.4C1405.7 516.4 1403.8 514.5 1402 514.5L1400.5 516.4C1400.5 517.9 1402 519.8 1402 521.6L1407.6 516.4ZM1437.9 517.9C1441.3 523.5 1441.3 519.8 1446.5 519.8C1446.5 514.6 1444.6 509.3 1444.6 506C1441.3 507.4 1437.9 512.7 1437.9 517.9ZM1466.3 537.3C1466.3 541.1 1467.8 544.4 1469.7 548.2C1471.6 548.2 1474.9 549.7 1476.8 549.7L1491 534C1491 530.6 1487.6 525.4 1487.6 523.6C1483.9 525.5 1482 527 1480.2 530.7C1476.8 528.8 1475 527 1475 521.7C1478.8 519.8 1478.8 518 1478.8 512.7L1473.2 507.5C1469.7 516.4 1466.3 526.9 1466.3 537.3ZM1462.6 514.5C1462.6 512.6 1459.2 508.9 1459.2 508.9C1455.8 510.8 1454 512.6 1454 517.9L1457.4 521.3C1461 517.9 1462.6 517.9 1462.6 514.5ZM1480.5 463C1480.5 463 1477.1 459.2 1477.1 457.4C1475.2 457.4 1471.5 459.3 1470 459.3C1470 461.2 1471.5 463.1 1471.5 464.5C1470 464.5 1466.2 468.2 1466.2 468.2C1470 469.7 1473.3 468.2 1478.9 468.2C1479 466.3 1480.5 464.5 1480.5 463ZM1460.7 450.3L1457.4 447C1454 448.9 1454 454.1 1455.5 457.4C1459.2 455.5 1462.6 454 1460.7 450.3ZM1487.6 450.3L1483.9 454.1L1487.6 457.4C1491 454.1 1498.1 448.8 1494.4 441.7C1489.1 443.5 1487.6 445 1487.6 450.3ZM1471.6 443.5C1471.6 445 1474.9 446.9 1476.8 446.9C1476.8 445 1478.7 437.9 1478.7 434.6L1476.8 432.8C1473 431.3 1466.3 434.6 1462.6 434.6C1464.5 438 1466.3 438 1471.6 438V443.5ZM1455.5 473.4C1455.5 471.9 1457.4 468.2 1455.5 468.2C1455.5 468.2 1452.1 470.1 1450.3 470.1C1450.2 472 1454 473.4 1455.5 473.4ZM1425.2 468.2C1427.1 468.2 1428.6 466.3 1430.4 466.3C1430.4 463 1428.5 461.1 1427 459.2C1425.1 459.2 1421.8 463 1421.8 463C1421.8 464.8 1425.2 468.2 1425.2 468.2ZM1420 477.2C1420 477.2 1423.4 473.8 1423.4 472C1423.4 472 1420 468.2 1420 466.4C1416.7 468.3 1414.8 473.9 1414.8 477.3L1420 477.2ZM1434.2 495.1C1437.9 491.3 1434.2 488 1430.8 484.2C1428.9 488 1432.7 493.2 1434.2 495.1ZM1525 544.8C1526.5 544.8 1528.3 542.9 1530.2 542.9C1530.2 539.2 1533.6 535.8 1535.4 533.9C1533.5 530.5 1523.1 528.7 1519.7 530.5L1517.8 532.4V539.1C1521.6 541.1 1523.1 541.1 1525 544.8ZM1503.7 528.7C1505.2 528.7 1508.9 525.3 1510.8 525.3C1510.8 519.7 1508.9 519.7 1505.2 517.9C1503.8 517.9 1500.4 521.6 1498.5 521.6C1498.5 527.2 1500.3 528.7 1503.7 528.7ZM1526.9 508.9C1526.9 508.9 1530.2 512.6 1530.2 514.5C1533.6 514.5 1535.4 512.6 1537.3 510.8C1537.3 507.4 1537.3 502.2 1535.4 498.5C1533.5 498.5 1532 502.3 1532 503.7C1528.3 500.3 1528.3 497 1526.8 493.2C1523 495.1 1519.7 497 1519.7 502.2C1521.6 503.7 1525 505.5 1526.9 508.9ZM1499.9 505.5C1499.9 504 1501.4 502.2 1501.4 500.3L1499.9 498.4C1498.4 498.4 1496.6 500.3 1494.7 500.3L1499.9 505.5ZM1487.6 477.2C1491 477.2 1496.2 473.8 1499.6 473.8C1496.2 470.1 1492.9 471.9 1487.6 471.9V477.2ZM1544.4 472C1542.9 473.5 1542.9 475.3 1542.9 477.2C1550 477.2 1560.5 477.2 1565.7 475.3C1563.8 472 1562.3 472 1556.7 472C1558.6 472 1560.4 470.1 1562.3 470.1C1558.6 464.8 1550 468.2 1544.4 472ZM1508.9 450.3C1505.5 454.1 1502.2 454.1 1503.7 461.2C1505.5 459.3 1508.9 457.4 1510.8 455.6C1510.8 454 1508.9 452.1 1508.9 450.3ZM1523.1 457.4C1526.4 457.4 1528.3 459.3 1531.7 457.4C1531.7 455.9 1528.3 450.7 1526.5 450.7H1523.1C1519.8 448.8 1521.6 447 1516 448.8C1516 450.7 1517.9 454 1517.9 455.9C1519.8 455.9 1521.6 457.4 1523.1 457.4ZM1546.3 496.6C1547.8 496.6 1551.5 498.1 1553.1 498.1C1553.1 498.1 1556.8 495.1 1558.7 495.1C1560.6 496.6 1563.9 498.1 1567.7 498.1C1571.1 495.1 1569.6 495.1 1569.6 491.3C1565.9 493.2 1564 489.4 1562.5 486.1C1558.8 486.1 1555 487.6 1551.7 487.6C1547.8 491.4 1544.4 491.4 1546.3 496.6Z" fill="#08A46D"/>
<path d="M1474.8 202.9L1394.5 283.5H1292.6V181.6L1474.4 0.399994C1474.4 0.399994 1474.6 0.2 1474.8 0L1475.2 0.399994L1482.3 7.39999L1657 181.6V283.5H1555.1C1555.1 283.5 1475.2 203.3 1474.8 202.9ZM1563.9 262.4H1635.9V190.4L1474.8 29.8L1313.7 190.4V262.4H1385.7L1474.8 173L1563.9 262.4Z" fill="#08A46D"/>
<path d="M1876.9 428.7C1876.9 409.8 1871.6 395.3 1860.8 384.4C1833.9 357.2 1806.7 330.3 1779.5 303.4L1769.2 293.2C1762.5 286.6 1754.1 284.2 1744.8 286.3C1733.8 288.8 1727.1 296.9 1727.9 306.9C1728.1 309.5 1728.5 311.9 1729.1 314.2C1733.8 331.5 1741.3 345.9 1752.1 358.3C1762 369.7 1771.8 381.1 1781.7 392.5L1790.5 402.7C1794.2 407 1797.3 411 1797 416.3L1796.9 419.3C1796.8 420.8 1796.8 422.2 1796.7 423.6C1788.5 414.9 1778.8 408.8 1766.2 404.1C1765.1 403.7 1762 402.5 1759.3 404.4C1756.7 406.2 1756.7 409.4 1756.7 410.8C1756.7 433.1 1756.7 455.5 1756.7 477.8V522.5C1756.7 543.1 1764.2 560 1778.9 572.6L1780.7 574.1C1787.1 579.5 1790.9 583 1789.4 588.8C1788 594.3 1786.4 600.2 1784.3 606.2L1769.3 649.3C1768.2 652.4 1767 655.6 1766.3 659C1765.5 662.9 1765.6 666.6 1765.7 670.2V671.4C1766 684.2 1777.1 696 1789.1 696.1C1802.6 696.2 1816.2 696.3 1829.7 696.3C1838.3 696.3 1846.9 696.3 1855.5 696.2C1863.6 696.2 1870.1 692.1 1873.8 684.7C1876.7 678.9 1876.7 672.9 1876.7 667.1L1876.9 428.7ZM1859.2 675.4C1858.6 677.7 1857.4 678.9 1854.9 678.9C1833.7 678.9 1812.5 678.9 1791.3 678.8C1786.8 678.8 1783.3 675.3 1783.2 670.7C1783.1 667 1783 663.3 1783.7 659.7C1784.4 656 1786 652.4 1787.2 648.9C1789.8 641.5 1792.4 634.2 1794.9 626.8C1797.3 619.9 1799.7 613.1 1802.1 606.2C1803.1 603.3 1804.6 600.2 1805.3 597.1C1805.9 594.4 1806.4 591.8 1807 589.1C1808.6 582.1 1805.7 576.3 1801.7 571C1798.6 566.8 1794.8 563.4 1790.9 560C1779.2 550.1 1773.9 537.5 1773.9 522.2C1774 491.7 1773.9 461.2 1773.9 430.7V426.7C1785.4 434.5 1793.4 443.8 1793.7 457.7C1794 472.5 1793.8 487.3 1793.7 502C1793.7 504.8 1794.3 505.7 1797.2 505.7C1806.1 505.6 1806.2 505.7 1806.2 496.7C1806.2 479.2 1806.5 461.6 1808.2 444.2C1808.4 442.1 1809.1 440.3 1810 438.4C1813.7 431.2 1814.1 423.3 1814.1 415.3C1814.1 407.3 1811.1 400.5 1806.1 394.3C1792.8 377.7 1778.2 362.1 1764.5 345.9C1755.2 334.9 1749.3 322.3 1745.6 308.6C1744.5 304.6 1746.1 302.7 1750.3 302.5C1753.2 302.4 1755.5 303.7 1757.6 305.7C1772.8 320.8 1788 335.9 1803.2 350.9C1818.1 365.7 1833 380.4 1847.7 395.3C1856.3 404 1859.1 415.1 1859.6 427C1859.7 429.5 1859.7 432 1859.7 434.6C1859.7 512.2 1859.7 589.8 1859.7 667.4C1859.8 670.2 1859.9 672.8 1859.2 675.4Z" fill="#08A46D"/>
<path d="M1072.6 667C1072.6 672.7 1072.6 678.8 1075.5 684.6C1079.2 692 1085.7 696.1 1093.8 696.1C1102.4 696.1 1111 696.2 1119.6 696.2C1133.1 696.2 1146.7 696.1 1160.2 696C1172.1 695.9 1183.3 684.1 1183.6 671.3V670.1C1183.7 666.5 1183.8 662.8 1183 658.9C1182.3 655.5 1181.1 652.3 1180 649.2L1165 606.1C1162.9 600.1 1161.3 594.2 1159.9 588.7C1158.4 582.9 1162.3 579.4 1168.6 574L1170.4 572.4C1185.1 559.7 1192.6 542.9 1192.6 522.3V477.6C1192.6 455.2 1192.6 432.9 1192.6 410.6C1192.6 409.2 1192.6 406.1 1190 404.2C1187.3 402.3 1184.3 403.5 1183.1 403.9C1170.5 408.6 1160.8 414.8 1152.6 423.4C1152.5 422 1152.4 420.6 1152.4 419.1L1152.3 416.1C1152 410.9 1155.1 406.9 1158.8 402.5L1167.6 392.3C1177.4 380.9 1187.3 369.5 1197.2 358.1C1208 345.7 1215.5 331.3 1220.2 314C1220.8 311.7 1221.2 309.2 1221.4 306.7C1222.2 296.7 1215.5 288.7 1204.5 286.1C1195.2 284 1186.8 286.4 1180.1 293L1169.8 303.2C1142.6 330.1 1115.4 357 1088.5 384.2C1077.7 395.2 1072.4 409.7 1072.4 428.5L1072.6 667ZM1089.8 667.5C1089.8 589.9 1089.8 512.3 1089.8 434.7C1089.8 432.2 1089.8 429.7 1089.8 427.1C1090.2 415.2 1093 404.1 1101.7 395.4C1116.4 380.5 1131.4 365.8 1146.2 351.1C1161.4 336 1176.6 321 1191.8 305.9C1193.9 303.9 1196.2 302.6 1199.1 302.7C1203.3 302.8 1204.9 304.7 1203.8 308.8C1200.1 322.6 1194.2 335.1 1184.9 346.1C1171.1 362.3 1156.6 377.9 1143.3 394.5C1138.3 400.7 1135.3 407.5 1135.3 415.5C1135.3 423.5 1135.7 431.3 1139.4 438.6C1140.4 440.5 1141 442.3 1141.2 444.4C1142.9 461.9 1143.2 479.4 1143.2 496.9C1143.2 505.9 1143.2 505.7 1152.2 505.9C1155.2 505.9 1155.8 505 1155.7 502.2C1155.6 487.4 1155.4 472.6 1155.7 457.9C1156 444 1164 434.7 1175.5 426.9V430.9C1175.5 461.4 1175.4 491.9 1175.5 522.4C1175.6 537.6 1170.2 550.3 1158.5 560.2C1154.6 563.5 1150.7 567 1147.7 571.2C1143.7 576.6 1140.9 582.3 1142.4 589.3C1143 592 1143.6 594.6 1144.1 597.3C1144.8 600.3 1146.3 603.4 1147.3 606.4C1149.7 613.3 1152.1 620.1 1154.5 627C1157.1 634.4 1159.7 641.7 1162.2 649.1C1163.4 652.7 1165 656.2 1165.7 659.9C1166.4 663.5 1166.3 667.2 1166.2 670.9C1166.1 675.5 1162.6 679 1158.1 679C1136.9 679.1 1115.7 679 1094.5 679.1C1092 679.1 1090.7 677.9 1090.2 675.6C1089.7 672.8 1089.8 670.2 1089.8 667.5Z" fill="#08A46D"/>
<path d="M39.1992 303.8H19.8992C17.6992 301.1 16.5992 298.1 16.5992 294.8C16.5992 289 20.6992 285.1 27.1992 285.1C28.8992 285.1 31.4993 285.4 34.7993 286.2L37.0992 275.9C33.7992 274.8 30.0992 274.3 25.8992 274.3C19.5992 274.3 14.5993 276.1 10.7993 279.6C6.89926 283.1 4.99927 287.7 4.99927 293.3C4.99927 297 5.99927 300.5 7.99927 303.8H0.199219V314H39.0992V303.8H39.1992Z" fill="#231F20"/>
<path d="M75.0987 314H80.5987H86.0987H91.5987H97.0987H102.599H108.099H113.599H119.099H124.599H130.099H135.599H141.099H146.599H152.099H168.399H123.899H129.399H134.899H140.399H145.899H151.399H167.699H173.199H178.699H184.199H189.699H195.199H200.699H206.199H211.699H217.199H222.699H228.199H233.699H239.199H244.699H250.199H255.699H261.199H266.699H272.199H277.699H283.199H288.699H294.199H299.699H305.199H310.699H316.199H321.699H327.199H332.699H338.199H343.699H349.199H354.699H360.199H365.699H371.199H376.699H382.199H387.699H393.199H398.699H404.199H409.699H461.199C464.099 306.4 465.399 299 465.399 292C465.399 281.8 459.899 268.4 442.399 268.4C434.799 268.4 428.699 270.6 424.099 275.1C419.499 279.6 417.299 285.2 417.299 292.1C417.299 296.1 418.099 299.6 419.799 302.7H411.099H405.599H400.099H394.599H389.099H383.599H378.099H372.599H367.099H361.599H356.099H350.599H345.099H339.599H334.099H328.599H323.099H317.599H312.099H306.599H301.099H295.599H290.099H284.599H279.099H273.599H268.099H262.599H257.099H251.599H246.099H240.599H235.099H229.599H224.099H218.599H213.099H207.599H202.099H196.599H191.099H185.599H180.099H174.599H169.099H152.799H147.299H141.799H136.299H130.799H125.299H169.799H153.499H147.999H142.499H136.999H131.499H125.999H120.499H114.999H109.499H103.999H98.4988H92.9988H87.4988H81.9988H76.4988C68.6988 302.7 65.4988 300 65.4988 293.8V233.7H52.9988V294.1C51.5988 307.8 58.0987 314 75.0987 314ZM443.299 280C450.799 280 454.299 285.4 454.299 293.2C454.299 296.2 453.899 299.4 452.999 302.8H434.399C432.399 299.1 431.299 295.6 431.299 292.1C431.399 284.9 435.799 280 443.299 280Z" fill="#231F20"/>
<path d="M439.8 254.1C441.1 252.8 441.7 251.2 441.7 249.3C441.7 245.4 438.9 242.6 435 242.6C431.2 242.6 428.2 245.5 428.2 249.3C427.8 255.3 436 258.4 439.8 254.1Z" fill="#231F20"/>
<path d="M452.5 256.1C456.2 256.1 459.1 253.1 459.1 249.3C459.1 245.5 456.3 242.6 452.5 242.6C448.4 242.6 445.6 245.4 445.6 249.3C445.5 253.1 448.5 256.1 452.5 256.1Z" fill="#231F20"/>
<path d="M528.299 314C536.299 314 541.699 312.7 544.699 310.1C548.099 312.8 552.899 314 559.099 314H619.999C621.899 307.4 622.899 301.4 622.899 295.7C622.899 278.8 614.099 268.4 597.999 268.4C592.199 268.4 586.499 269.8 578.799 274.2C570.999 278.7 562.399 288.5 555.199 302.6C551.499 302.1 549.599 299.7 549.599 295.6V277.3H537.099V291.6C537.099 300.5 535.299 302.6 528.399 302.6H520.399C519.999 295.5 518.099 288.9 514.599 283.1C511.099 277.3 504.999 271.6 496.399 266.1L488.899 276.2C493.899 279.3 498.399 283.2 502.299 288C506.099 292.8 507.999 297.6 507.999 302.4V302.6H475.799V314H528.299ZM596.399 280C605.399 280 610.399 286.5 610.399 296.7C610.399 298.6 610.199 300.6 609.799 302.8H569.199C577.299 288 587.199 280 596.399 280Z" fill="#231F20"/>
<path d="M651.5 222.9H642.8C642.1 221.6 641.7 220.5 641.7 219.4C641.7 217 643.2 215.8 646.1 215.8C647.3 215.8 648.3 215.9 649.5 216.2L650.6 210.6C648.6 210.2 646.8 210 645.2 210C639.6 210 635.7 213.2 635.7 218.2C635.7 219.9 636.1 221.5 637 223H633.5V228.8H651.6V222.9H651.5Z" fill="#231F20"/>
<path d="M648.699 233.7H636.199V314H648.699V233.7Z" fill="#231F20"/>
<path d="M711.7 255.3C713 254 713.6 252.4 713.6 250.5C713.6 246.6 710.8 243.8 706.9 243.8C703.1 243.8 700.1 246.7 700.1 250.5C699.7 256.4 707.8 259.6 711.7 255.3Z" fill="#231F20"/>
<path d="M724.298 257.3C727.998 257.3 730.898 254.3 730.898 250.5C730.898 246.6 727.998 243.8 724.298 243.8C720.198 243.8 717.398 246.6 717.398 250.5C717.398 254.3 720.398 257.3 724.298 257.3Z" fill="#231F20"/>
<path d="M777.898 329.5C777.898 325.6 774.998 322.6 771.298 322.6C767.398 322.6 764.398 325.6 764.398 329.5C764.398 333.3 767.398 336.2 771.298 336.2C775.098 336.2 777.898 333.3 777.898 329.5Z" fill="#231F20"/>
<path d="M760.6 329.5C760.6 325.6 757.8 322.6 753.9 322.6C750.1 322.6 747.1 325.6 747.1 329.5C747.1 333.3 750.1 336.2 753.9 336.2C757.9 336.2 760.6 333.3 760.6 329.5Z" fill="#231F20"/>
<path d="M905.5 314H949.4C951.2 305 951.7 297.1 951 290.4C949.3 276.9 939.6 268.4 922.7 268.4C917.5 268.4 912.6 269.2 908.1 270.8L910.9 281.4C914.8 280.4 918.4 279.9 921.6 279.9C938.2 279.9 940 293.3 938.4 302.6H905.5H898.2C898.5 300.7 898.7 298.9 898.7 297.2C898.7 290.3 896.7 284.6 892.8 280.1C888.9 275.6 883.2 273.4 876 273.4C868.7 273.4 862.6 275.6 857.9 280.1C853.2 284.7 850.9 290.4 850.9 297.5C850.9 298.8 851 300.5 851.3 302.6H844.2H834.8C833.8 302.6 831.5 302.5 827.7 302.4C833.5 296.6 836.5 290.5 836.5 284.2C836.5 274.3 828.3 268.4 815.2 268.4C807 268.4 798.9 270.5 790.9 274.7C789.8 277.3 789 281.2 788.4 286.6C793.6 291.6 798.2 296.9 802 302.3C799.3 302.5 795.9 302.6 791.6 302.6H782.1C774.6 302.6 770.7 299 770.7 291.9V269.5H758.2V290.2C758.2 299.7 755.8 302.6 747.3 302.6H745.2C738.1 302.6 736 300.5 736 293.4V269.5H715.8C707.1 269.5 700.4 271.6 695.7 276C690.9 280.4 688.6 285.8 688.6 292.3C688.6 298.8 690.8 303.8 695.4 307.3C699.9 310.8 705.5 312.6 712.4 312.6C717.6 312.6 722.4 311.5 726.8 309.4C729.7 312.5 735.7 314 745.2 314H747.4C756.6 314 763 311.9 766.5 307.6C769.4 311.8 774.6 314 782.1 314H785.9C796.8 314 805.8 313 812.7 311.2C819.5 313 827.3 314 836 314H844.3H856.5C858.3 316.4 860.6 318.8 863.5 320.8H872.4C881 320.8 887.6 318.6 892.3 314H905.5ZM722.7 299.2C720.6 300.4 717.7 300.9 714 300.9C705.4 300.9 701.1 297.7 701.1 291.2C701.1 284.5 706.1 280.8 713.7 280.8H722.6V299.2H722.7ZM814.1 299.3C810.3 293.1 805.6 287.7 800.1 283L800.2 282.5C804.3 280.9 808.4 280.1 812.5 280.1C820.1 280.1 824 283.1 824 287.2C823.9 291.2 820 296.4 814.1 299.3ZM873.2 309.5H867.4C864.7 306 863.5 302.2 863.5 297.9C863.5 289.9 868.1 285 875.3 285C882.2 285 886.2 289.9 886.2 296.7C886.2 304.1 882 309.5 873.2 309.5Z" fill="#231F20"/>
<path d="M920.2 329.5C919.6 335.3 928.1 338.4 931.8 334.3C933 333 933.6 331.4 933.6 329.5C933.6 325.6 930.9 322.6 927 322.6C923.1 322.6 920.2 325.6 920.2 329.5Z" fill="#231F20"/>
<path d="M56.0992 376C59.7992 376 62.6992 373 62.6992 369.2C62.6992 365.4 59.8992 362.5 56.0992 362.5C51.9992 362.5 49.1992 365.3 49.1992 369.2C49.1992 373 52.1992 376 56.0992 376Z" fill="#231F20"/>
<path d="M31.8989 369.2C31.4989 375.1 39.6989 378.3 43.4989 374C44.7989 372.7 45.3989 371.1 45.3989 369.2C45.3989 365.3 42.5989 362.5 38.6989 362.5C34.7989 362.5 31.8989 365.3 31.8989 369.2Z" fill="#231F20"/>
<path d="M486.098 421.5C502.598 421.5 509.498 415.6 509.498 399.5V377.1H496.998V397.8C496.998 407.3 494.598 410.2 486.098 410.2H483.998H478.498H472.998H467.498H461.998H456.498H450.998H445.498H439.998H434.498H428.998H423.498H424.798H419.298H413.798H408.298H402.798H397.298H391.798H386.298H380.798H375.298H369.798H364.298H358.798H353.298H347.798H342.298H336.798H331.298H325.798H320.298H314.798H309.298H303.798H298.298H292.798H287.298H281.798H276.298H270.798H265.298H259.798H254.298H248.798H243.298H237.798H232.298H226.798H221.298H215.798H210.298H204.798H199.298H193.798H188.298H182.798H177.298H171.798H166.298H160.798H155.298H149.798H144.298H138.798H172.598H167.098H161.598H156.098H150.598H145.098H139.598H134.098H128.598H123.098H117.598H112.098H106.598C99.0984 410.2 95.1984 406.6 95.1984 399.5V377.1H82.6984V399.2C82.6984 407.3 79.6984 410.2 72.3984 410.2H30.3984C20.4984 410.2 14.7985 405.7 14.7985 397.6C14.7985 394.9 15.3985 391.1 16.7985 386L5.79846 383.1C3.59846 389.2 2.39844 394.8 2.39844 400.1C2.39844 412.8 12.3985 421.4 28.4985 421.4H76.0984C82.9985 421.4 88.0985 419.4 91.3985 415.5C94.2985 419.4 99.2984 421.4 106.598 421.4H112.098H117.598H123.098H128.598H134.098H139.598H145.098H150.598H156.098H161.598H167.098H172.598H138.798H144.298H149.798H155.298H160.798H166.298H171.798H177.298H182.798H188.298H193.798H199.298H204.798H210.298H215.798H221.298H226.798H232.298H237.798H243.298H248.798H254.298H259.798H265.298H270.798H276.298H281.798H287.298H292.798H298.298H303.798H309.298H314.798H320.298H325.798H331.298H336.798H342.298H347.798H353.298H358.798H364.298H369.798H375.298H380.798H386.298H391.798H397.298H402.798H408.298H413.798H419.298H424.798H423.498H428.998H434.498H439.998H445.498H450.998H456.498H461.998H467.498H472.998H478.498H483.998H486.098V421.5Z" fill="#231F20"/>
<path d="M490.499 430.1C486.699 430.1 483.699 433.1 483.699 437C483.699 440.8 486.699 443.7 490.499 443.7C494.399 443.7 497.199 440.8 497.199 437C497.199 433.1 494.499 430.1 490.499 430.1Z" fill="#231F20"/>
<path d="M508 430.1C504.1 430.1 501.1 433.1 501.1 437C501.1 440.8 504.1 443.7 508 443.7C511.7 443.7 514.6 440.8 514.6 437C514.5 433.1 511.7 430.1 508 430.1Z" fill="#231F20"/>
<path d="M532.799 416.6C532.799 425.4 529.099 428.7 519.199 430.1L521.099 440.9C537.799 439.7 545.299 431.1 545.299 414V377H532.799V416.6Z" fill="#231F20"/>
<path d="M532.299 358C531.699 363.9 540.199 367 543.899 362.9C546.299 360.3 546.299 355.7 543.899 353.1C540.099 349.2 531.599 352 532.299 358Z" fill="#231F20"/>
<path d="M615 430.1C611.1 430.1 608.1 433.1 608.1 437C608.1 440.8 611.1 443.7 615 443.7C618.7 443.7 621.6 440.8 621.6 437C621.6 433.1 618.8 430.1 615 430.1Z" fill="#231F20"/>
<path d="M597.599 430.1C593.799 430.1 590.799 433.1 590.799 437C590.799 440.8 593.799 443.7 597.599 443.7C601.499 443.7 604.299 440.8 604.299 437C604.299 433.1 601.499 430.1 597.599 430.1Z" fill="#231F20"/>
<path d="M636.5 397.8C636.5 407.5 633.9 410.2 625.8 410.2C618.3 410.2 614.4 406.6 614.4 399.5V377.1H601.9V397.8C601.9 407.3 599.5 410.2 591 410.2H588.9H578.1V377.1H565.6V416.6C565.6 425.4 561.9 428.7 552 430.1L553.9 440.9C567.7 439.9 575.6 433.5 577.6 421.5H589H591.2C600.4 421.5 606.8 419.4 610.3 415.1C613.2 419.4 618.4 421.5 625.9 421.5C642 421.5 649.2 415.7 649.2 399.5V377.1H636.7V397.8H636.5Z" fill="#231F20"/>
<path d="M638.6 430.1C634.7 430.1 631.8 433.1 631.8 437C631.2 442.8 639.7 445.9 643.4 441.8C644.6 440.5 645.2 438.9 645.2 437C645.2 433.1 642.5 430.1 638.6 430.1Z" fill="#231F20"/>
<path d="M711.7 362.8C713 361.5 713.6 359.9 713.6 358C713.6 354.1 710.8 351.3 706.9 351.3C703.1 351.3 700.1 354.2 700.1 358C699.7 364 707.9 367.2 711.7 362.8Z" fill="#231F20"/>
<path d="M731 358C731 354.1 728.1 351.3 724.4 351.3C720.3 351.3 717.5 354.1 717.5 358C717.5 361.8 720.5 364.8 724.4 364.8C728.1 364.8 731 361.8 731 358Z" fill="#231F20"/>
<path d="M845.9 376C838.7 376 832.7 378.1 828.1 382.3C823.4 386.4 821.1 391.9 821.1 398.4C821.1 403 822.2 407 824.3 410.3H807.4H798C797 410.3 794.7 410.2 790.9 410.1C796.7 404.3 799.7 398.2 799.7 391.9C799.7 382 791.5 376.1 778.3 376.1C770.1 376.1 762.1 378.2 754 382.4C752.9 384.9 752.1 388.9 751.5 394.3C756.7 399.3 761.3 404.6 765.1 410C762.4 410.2 759 410.3 754.7 410.3H745.2C738.1 410.3 736 408.2 736 401.1V377.2H715.8C707.1 377.2 700.4 379.3 695.7 383.7C690.9 388.1 688.6 393.5 688.6 400C688.6 406.5 690.8 411.5 695.4 415C699.9 418.5 705.5 420.3 712.4 420.3C717.6 420.3 722.4 419.2 726.8 417.1C729.7 420.2 735.7 421.7 745.2 421.7H749C759.9 421.7 768.9 420.7 775.8 418.9C782.6 420.7 790.3 421.7 799.1 421.7H807.4H842.5C863.5 421.7 868.8 409.4 868.8 398.5C868.8 392.2 866.8 386.9 862.9 382.6C858.8 378.1 853.1 376 845.9 376ZM722.8 406.8C720.7 408 717.8 408.5 714.1 408.5C705.5 408.5 701.2 405.3 701.2 398.8C701.2 392.1 706.2 388.4 713.8 388.4H722.7V406.8H722.8ZM777.2 406.9C773.4 400.7 768.7 395.3 763.2 390.6L763.3 390.1C767.4 388.5 771.5 387.7 775.6 387.7C783.2 387.7 787.1 390.7 787.1 394.8C787.1 398.7 783.1 403.9 777.2 406.9ZM843.8 410.3H837.3C834.9 406.9 833.7 403.3 833.7 399.6C833.7 392 838.4 387.6 845.2 387.6C851.9 387.6 856.1 392.1 856.1 398.9C856.1 406.5 852 410.3 843.8 410.3Z" fill="#231F20"/>
<path d="M922.7 376C917.5 376 912.6 376.8 908.1 378.4L910.9 389C914.8 388 918.4 387.5 921.6 387.5C938.2 387.5 940 400.9 938.4 410.2H905.5C897.7 410.2 894.5 407.5 894.5 401.3V341.2H882V401.6C882 415.3 888.6 421.5 905.6 421.5H949.5C951.3 412.5 951.8 404.6 951.1 397.9C949.3 384.5 939.6 376 922.7 376Z" fill="#231F20"/>
<path d="M927 430.1C923.1 430.1 920.2 433.1 920.2 437C919.6 442.8 928.1 445.9 931.8 441.8C933 440.5 933.6 438.9 933.6 437C933.6 433.1 930.9 430.1 927 430.1Z" fill="#231F20"/>
<path d="M29.8 492.7C39.6 492.7 52.5 497.2 52.5 511.6C52.5 519.4 47.8 525.4 39.4 528.1V528.3C44.2 528.8 48.1 530.9 51.2 534.3C54.2 537.8 55.7 541.9 55.7 546.5C55.7 560.6 44.7 568 27.7 568H0V492.6H29.8V492.7ZM26.1 523.4C34.2 523.4 39.1 519.8 39.1 513.9C39.1 507.4 34.4 504.2 25 504.2H13.4V523.4H26.1ZM26.2 556.6C37 556.6 42.3 552.9 42.3 545.5C42.3 537.9 37.5 534.9 27 534.9H13.5V556.6H26.2Z" fill="#231F20"/>
<path d="M89.1988 499.6C89.1988 504.2 85.5989 507.3 80.8989 507.3C76.2989 507.3 72.7988 503.9 72.7988 499.6C72.7988 495.3 76.2989 491.9 80.8989 491.9C85.5989 492 89.1988 495.3 89.1988 499.6ZM87.3989 568.1H74.5988V517H87.3989V568.1Z" fill="#231F20"/>
<path d="M141.399 516.5V528.8C138.999 528.2 136.899 527.8 135.199 527.8C126.199 527.8 121.499 533.9 121.499 541.4V568H108.699V517H121.499V525.1H121.699C124.599 519.2 130.099 515.7 136.799 515.7C137.899 515.7 139.399 515.9 141.399 516.5Z" fill="#231F20"/>
<path d="M195.9 517V528.6L168.2 557.9H197.2V568.1H153.1V556.3L180.5 527.4V527.2H154.4V517H195.9Z" fill="#231F20"/>
<path d="M257.6 523.4C261.8 528.6 263.8 535.2 263.8 543.4V547H224.8C225.7 554.3 231.2 559.1 238.5 559.1C243.9 559.1 248.5 556.8 252.2 552.2L261.4 559.1C255.9 565.9 248.6 569.3 239.8 569.3C231.8 569.3 225.2 566.7 220 561.7C214.7 556.7 212 550.3 212 542.4C212 534.5 214.7 528 220 523C225.2 518 231.8 515.5 239.8 515.5C247.6 515.7 253.5 518.3 257.6 523.4ZM251 537.4C250.9 529.6 245.7 525.3 237.9 525.3C230.6 525.3 225.8 530.1 224.8 537.4H251Z" fill="#231F20"/>
<path d="M297.099 499.6C297.099 504.2 293.499 507.3 288.799 507.3C284.199 507.3 280.699 503.9 280.699 499.6C280.699 495.3 284.199 491.9 288.799 491.9C293.499 492 297.099 495.3 297.099 499.6ZM295.299 568.1H282.499V517H295.299V568.1Z" fill="#231F20"/>
<path d="M333.999 502.2V517H348.099V527.9H333.999V550.6C333.999 555.9 336.299 558.6 341.099 558.6C344.399 558.6 346.599 558.1 347.999 557V567.7C345.699 568.9 342.199 569.4 337.899 569.4C325.899 569.4 321.199 564.6 321.199 551.8V527.8H310.699V517H321.199V502.2H333.999Z" fill="#231F20"/>
<path d="M403.6 492.7H417V540.3C417 547.3 421 557.2 433.9 557.2C446.8 557.2 450.8 547.3 450.8 540.3V492.7H464.2V541C464.2 549 461.5 555.8 456.1 561.4C450.7 567.1 443.3 570 433.8 570C424.3 570 416.9 567.1 411.6 561.4C406.2 555.6 403.5 548.8 403.5 541V492.7H403.6Z" fill="#231F20"/>
<path d="M532.999 535.4V568.1H520.199V541.6C520.199 532 517.099 527.2 510.799 527.2C502.999 527.2 499.099 532.6 499.099 540V568.1H486.299V517H498.399V525.2H498.599C501.499 518.9 506.699 515.7 514.199 515.7C529.699 515.7 532.999 527.5 532.999 535.4Z" fill="#231F20"/>
<path d="M568.9 499.6C568.9 504.2 565.3 507.3 560.6 507.3C556 507.3 552.5 503.9 552.5 499.6C552.5 495.3 556 491.9 560.6 491.9C565.3 492 568.9 495.3 568.9 499.6ZM567.1 568.1H554.3V517H567.1V568.1Z" fill="#231F20"/>
<path d="M595.6 517L609.2 552.8H609.4L623.1 517H636.2L616.1 568.1H602.5L581.6 517H595.6Z" fill="#231F20"/>
<path d="M693.498 523.4C697.698 528.6 699.698 535.2 699.698 543.4V547H660.698C661.598 554.3 667.098 559.1 674.398 559.1C679.798 559.1 684.398 556.8 688.098 552.2L697.298 559.1C691.798 565.9 684.498 569.3 675.698 569.3C667.698 569.3 661.098 566.7 655.898 561.7C650.598 556.7 647.898 550.3 647.898 542.4C647.898 534.5 650.598 528 655.898 523C661.098 518 667.698 515.5 675.698 515.5C683.498 515.7 689.298 518.3 693.498 523.4ZM686.898 537.4C686.798 529.6 681.598 525.3 673.798 525.3C666.498 525.3 661.698 530.1 660.698 537.4H686.898Z" fill="#231F20"/>
<path d="M750.999 516.5V528.8C748.599 528.2 746.499 527.8 744.799 527.8C735.799 527.8 731.099 533.9 731.099 541.4V568H718.299V517H731.099V525.1H731.299C734.199 519.2 739.699 515.7 746.399 515.7C747.499 515.7 748.999 515.9 750.999 516.5Z" fill="#231F20"/>
<path d="M802.198 523.5L793.698 531.2C791.098 527.7 787.798 526 783.698 526C779.398 526 776.298 528.1 776.298 531.4C776.198 535.4 782.198 536.4 788.398 537.8C798.098 540 803.798 543.6 803.798 553C803.798 563.3 794.698 569.4 781.698 569.4C773.198 569.4 766.598 566.7 761.898 561.5L770.398 553.5C774.198 557.7 778.298 559.8 782.498 559.8C787.298 559.8 790.998 557.3 790.998 553.9C790.998 551.1 788.998 549.7 786.298 548.7C785.598 548.4 783.398 547.7 782.598 547.6C781.798 547.5 779.098 546.7 778.298 546.6C773.998 545.6 771.698 544.8 768.398 542.7C764.998 540.7 763.398 537.2 763.398 532.2C763.398 524.4 768.698 519 774.598 517.1C777.498 516.1 780.598 515.7 783.898 515.7C792.298 515.7 798.398 518.3 802.198 523.5Z" fill="#231F20"/>
<path d="M835.199 499.6C835.199 504.2 831.599 507.3 826.899 507.3C822.299 507.3 818.799 503.9 818.799 499.6C818.799 495.3 822.299 491.9 826.899 491.9C831.599 492 835.199 495.3 835.199 499.6ZM833.399 568.1H820.599V517H833.399V568.1Z" fill="#231F20"/>
<path d="M872.099 502.2V517H886.199V527.9H872.099V550.6C872.099 555.9 874.399 558.6 879.199 558.6C882.499 558.6 884.699 558.1 886.099 557V567.7C883.799 568.9 880.299 569.4 875.999 569.4C863.999 569.4 859.299 564.6 859.299 551.8V527.8H848.799V517H859.299V502.2H872.099Z" fill="#231F20"/>
<path d="M896 517H910.1L924.4 552.5H924.6L937.4 517H950.7L927.4 576.8C925 582.9 923.6 585.7 920.6 589C917.5 592.3 913.4 593.6 907.1 593.6C903.8 593.6 900.5 593.2 897.3 592.3L898.9 580.8C901.2 581.6 903.4 582.1 905.4 582.1C908.5 582.1 910.7 581.6 911.9 580.5C913.1 579.3 914.3 577.2 915.7 574L917.9 568.5L896 517Z" fill="#231F20"/>
<path d="M48.7 600.5V612.6H13.4V632.4H46.6V644.6H13.4V675.9H0V600.5H48.7Z" fill="#231F20"/>
<path d="M92.5984 624.2V636.5C90.1985 635.9 88.0985 635.5 86.3985 635.5C77.3985 635.5 72.6984 641.6 72.6984 649.1V675.7H59.8984V624.6H72.6984V632.7H72.8984C75.7984 626.8 81.2985 623.3 87.9985 623.3C89.0985 623.5 90.5984 623.7 92.5984 624.2Z" fill="#231F20"/>
<path d="M116.199 607.4C116.199 612 112.599 615.1 107.899 615.1C103.299 615.1 99.7988 611.7 99.7988 607.4C99.7988 603.1 103.299 599.7 107.899 599.7C112.499 599.8 116.199 603.1 116.199 607.4ZM114.399 675.9H101.599V624.8H114.399V675.9Z" fill="#231F20"/>
<path d="M172.1 631.2C176.2 636.4 178.3 643 178.3 651.2V654.8H139.3C140.2 662.1 145.7 666.9 153 666.9C158.4 666.9 163 664.6 166.7 660L175.9 666.9C170.4 673.7 163.1 677.1 154.3 677.1C146.3 677.1 139.7 674.5 134.5 669.5C129.2 664.5 126.5 658.1 126.5 650.2C126.5 642.3 129.2 635.8 134.5 630.8C139.7 625.8 146.3 623.3 154.3 623.3C162 623.5 167.9 626.1 172.1 631.2ZM165.5 645.2C165.4 637.4 160.2 633.1 152.4 633.1C145.1 633.1 140.3 637.9 139.3 645.2H165.5Z" fill="#231F20"/>
<path d="M236.8 643.2V675.9H224V649.4C224 639.8 220.9 635 214.6 635C206.8 635 202.9 640.4 202.9 647.8V675.9H190.1V624.8H202.2V633H202.4C205.3 626.7 210.5 623.5 218 623.5C233.5 623.5 236.8 635.3 236.8 643.2Z" fill="#231F20"/>
<path d="M291.099 595.4H303.899V675.9H291.799V668.2H291.599C287.999 674.2 282.099 677.1 273.899 677.1C266.199 677.1 260.199 674.5 255.599 669.5C250.999 664.5 248.799 658 248.799 650.2C248.799 642.8 250.999 636.4 255.599 631.1C260.199 625.9 266.099 623.3 273.499 623.3C280.899 623.3 286.699 625.9 290.899 631.1H291.199V595.4H291.099ZM265.699 661.2C268.499 664.2 272.099 665.7 276.499 665.7C281.299 665.7 284.899 664.1 287.599 661C290.299 657.9 291.499 654.3 291.499 650.4C291.499 645.8 289.999 642.2 287.099 639.3C284.199 636.4 280.599 635 276.499 635C272.099 635 268.499 636.5 265.699 639.5C262.799 642.5 261.399 646.1 261.399 650.4C261.499 654.7 262.899 658.3 265.699 661.2Z" fill="#231F20"/>
<path d="M354.099 631.3L345.599 639C342.999 635.5 339.699 633.8 335.599 633.8C331.299 633.8 328.199 635.9 328.199 639.2C328.099 643.2 334.099 644.2 340.299 645.6C349.999 647.8 355.699 651.3 355.699 660.8C355.699 671.1 346.599 677.2 333.599 677.2C325.099 677.2 318.499 674.5 313.799 669.3L322.299 661.3C326.099 665.5 330.199 667.6 334.399 667.6C339.199 667.6 342.899 665.2 342.899 661.7C342.899 658.9 340.899 657.6 338.199 656.5C337.499 656.2 335.299 655.5 334.499 655.4C333.699 655.3 330.999 654.5 330.199 654.4C325.899 653.4 323.599 652.6 320.299 650.5C316.899 648.5 315.299 645 315.299 640C315.299 632.2 320.599 626.8 326.499 624.9C329.399 623.9 332.499 623.5 335.799 623.5C344.199 623.5 350.299 626.1 354.099 631.3Z" fill="#231F20"/>
<path d="M434.3 600.5L466.8 675.9H451.5L444.5 658.7H411.8L405 675.9H390L422.8 600.5H434.3ZM416.3 647.1H439.7L428.1 616.4L416.3 647.1Z" fill="#231F20"/>
<path d="M509.699 631.3L501.199 639C498.599 635.5 495.299 633.8 491.199 633.8C486.899 633.8 483.699 635.9 483.699 639.2C483.599 643.2 489.599 644.2 495.799 645.6C505.499 647.8 511.199 651.3 511.199 660.8C511.199 671.1 502.099 677.2 489.099 677.2C480.599 677.2 473.999 674.5 469.299 669.3L477.799 661.3C481.599 665.5 485.699 667.6 489.899 667.6C494.699 667.6 498.399 665.2 498.399 661.7C498.399 658.9 496.399 657.6 493.699 656.5C492.999 656.2 490.799 655.5 489.999 655.4C489.199 655.3 486.499 654.5 485.699 654.4C481.399 653.4 479.099 652.6 475.799 650.5C472.399 648.5 470.799 645 470.799 640C470.799 632.2 476.099 626.8 481.999 624.9C484.899 623.9 487.999 623.5 491.299 623.5C499.799 623.5 505.899 626.1 509.699 631.3Z" fill="#231F20"/>
<path d="M556.999 631.3L548.499 639C545.899 635.5 542.599 633.8 538.499 633.8C534.199 633.8 531.099 635.9 531.099 639.2C530.999 643.2 536.999 644.2 543.199 645.6C552.899 647.8 558.599 651.3 558.599 660.8C558.599 671.1 549.499 677.2 536.499 677.2C527.999 677.2 521.399 674.5 516.699 669.3L525.199 661.3C528.999 665.5 533.099 667.6 537.299 667.6C542.099 667.6 545.799 665.2 545.799 661.7C545.799 658.9 543.799 657.6 541.099 656.5C540.399 656.2 538.199 655.5 537.399 655.4C536.599 655.3 533.899 654.5 533.099 654.4C528.799 653.4 526.499 652.6 523.199 650.5C519.799 648.5 518.199 645 518.199 640C518.199 632.2 523.499 626.8 529.399 624.9C532.299 623.9 535.399 623.5 538.699 623.5C547.099 623.5 553.199 626.1 556.999 631.3Z" fill="#231F20"/>
<path d="M613.7 631C618.9 636 621.6 642.5 621.6 650.4C621.6 658.3 618.9 664.7 613.7 669.7C608.4 674.7 601.8 677.3 593.8 677.3C585.8 677.3 579.2 674.7 574 669.7C568.7 664.7 566 658.3 566 650.4C566 642.6 568.7 636.1 574 631.1C579.3 626.1 585.9 623.5 593.8 623.5C601.7 623.5 608.3 626 613.7 631ZM578.7 650.3C578.7 654.7 580.1 658.4 583 661.3C585.9 664.2 589.4 665.7 593.7 665.7C598.1 665.7 601.7 664.2 604.6 661.2C607.4 658.3 608.8 654.7 608.8 650.3C608.8 645.9 607.4 642.2 604.5 639.3C601.6 636.4 598 634.9 593.6 634.9C589.3 634.9 585.8 636.4 583 639.3C580.1 642.2 578.7 646 578.7 650.3Z" fill="#231F20"/>
<path d="M677.198 631.3L668.398 640.1C665.098 636.7 661.898 635 658.698 635C654.198 635 650.598 636.5 647.798 639.5C644.998 642.5 643.698 646.1 643.698 650.4C643.698 659.2 650.098 665.7 658.698 665.7C662.898 665.7 666.198 664.1 668.598 660.9L677.098 670.1C672.798 674.2 665.198 677.2 658.698 677.2C650.698 677.2 644.098 674.6 638.898 669.6C633.598 664.6 630.898 658.2 630.898 650.3C630.898 642.7 633.498 636.4 638.698 631.1C643.898 626 650.498 623.4 658.698 623.4C666.398 623.5 672.498 626.1 677.198 631.3Z" fill="#231F20"/>
<path d="M699.599 607.4C699.599 612 695.999 615.1 691.299 615.1C686.699 615.1 683.199 611.7 683.199 607.4C683.199 603.1 686.699 599.7 691.299 599.7C695.899 599.8 699.599 603.1 699.599 607.4ZM697.799 675.9H684.999V624.8H697.799V675.9Z" fill="#231F20"/>
<path d="M755.9 645.3V675.9H744.4V668.9H744.1C740.6 674.4 735.2 677.2 727.7 677.2C717 677.2 709.1 671.1 709.1 661.9C709.1 650 718.8 644.1 740.5 644.1H744.4V642.6C744.4 636.6 739.8 633.1 732.7 633.1C727.5 633.1 723 634.9 719.1 638.4L712.4 631.7C717.7 626.3 725 623.5 734.1 623.5C750.2 623.5 755.9 631.8 755.9 645.3ZM730.9 667.6C739.3 667.6 743.7 663 743.7 656.2V653H740C728 653 721.9 655.7 721.9 660.9C721.8 665 725.8 667.6 730.9 667.6Z" fill="#231F20"/>
<path d="M786.999 610V624.8H801.099V635.7H786.999V658.4C786.999 663.7 789.299 666.4 794.099 666.4C797.399 666.4 799.599 665.9 800.999 664.8V675.5C798.699 676.7 795.199 677.2 790.899 677.2C778.899 677.2 774.199 672.4 774.199 659.6V635.6H763.699V624.7H774.199V610H786.999Z" fill="#231F20"/>
<path d="M825.798 607.4C825.798 612 822.198 615.1 817.498 615.1C812.898 615.1 809.398 611.7 809.398 607.4C809.398 603.1 812.898 599.7 817.498 599.7C822.198 599.8 825.798 603.1 825.798 607.4ZM823.998 675.9H811.198V624.8H823.998V675.9Z" fill="#231F20"/>
<path d="M883.899 631C889.099 636 891.799 642.5 891.799 650.4C891.799 658.3 889.099 664.7 883.899 669.7C878.599 674.7 871.999 677.3 863.999 677.3C855.999 677.3 849.399 674.7 844.199 669.7C838.899 664.7 836.199 658.3 836.199 650.4C836.199 642.6 838.899 636.1 844.199 631.1C849.499 626.1 856.099 623.5 863.999 623.5C871.899 623.5 878.499 626 883.899 631ZM848.899 650.3C848.899 654.7 850.299 658.4 853.199 661.3C856.099 664.2 859.599 665.7 863.899 665.7C868.299 665.7 871.899 664.2 874.799 661.2C877.599 658.3 878.999 654.7 878.999 650.3C878.999 645.9 877.599 642.2 874.699 639.3C871.799 636.4 868.199 634.9 863.799 634.9C859.499 634.9 855.999 636.4 853.199 639.3C850.299 642.2 848.899 646 848.899 650.3Z" fill="#231F20"/>
<path d="M950.3 643.2V675.9H937.5V649.4C937.5 639.8 934.4 635 928.1 635C920.3 635 916.4 640.4 916.4 647.8V675.9H903.6V624.8H915.7V633H915.9C918.8 626.7 924 623.5 931.5 623.5C947 623.5 950.3 635.3 950.3 643.2Z" fill="#231F20"/>
</svg>
