<svg width="1877" height="772" viewBox="0 0 1877 772" fill="none" xmlns="http://www.w3.org/2000/svg">
<path d="M477.801 332.5H584.4V439.1L659.801 514.5L584.4 589.899V696.6H477.801L402.4 772L327 696.6H220.301V589.899L144.9 514.5L220.301 439.1V332.5H327L402.4 257.1L477.801 332.5ZM335.701 353.6H241.501V447.9L174.801 514.5L241.501 581.2V675.4H335.701L402.4 742.1L469.001 675.4H563.301V581.2L629.9 514.5L563.301 447.9V353.6H469.001L402.4 287L335.701 353.6Z" fill="white"/>
<path d="M224.6 519.8C228.3 509 240.7 507.5 249.6 503.7L251.5 502.2V495.1C256.7 489.5 265.4 484.2 271 482.4C274.3 484.3 280 484.3 283.3 484.3L287.1 487.7V491.4L290.4 495.2C290.4 496.7 288.9 498.5 288.9 500.4L292.3 503.8H295.6C299.3 503.8 306.5 496.7 310.2 496.7C306.4 489.6 295.6 484.4 292.3 477.3C294.2 473.5 297.5 468.3 299.4 466.4C304.6 466.4 312.1 470.2 317.3 468.3C317.3 464.9 315.5 454.1 313.6 450.4C312.1 450.4 310.3 452.3 308.4 452.3C304.7 449 299.4 447.1 295.7 443.7C297.6 441.8 301.3 441.8 303.2 441.8C306.6 439.9 313.7 438.1 317.4 434.7C315.6 432.9 310.3 429.1 308.4 429.1C308.4 425.7 310.3 423.9 312.2 422C313.7 422 315.6 420.5 317.4 420.5C320.8 420.5 324.5 422 327.9 422L331.6 425.7C333.5 425.7 335.3 422 335.3 420.5C340.5 420.5 347.3 420.5 351 423.9C351 425.8 349.1 427.3 349.1 429.1C354.7 434.7 360 443.7 367.1 439.9C367.1 430.9 360 425.7 369 416.7V409.6C379.5 404 392.2 398.8 402.7 397.3C404.6 397.3 406.5 398.8 407.9 398.8L413.5 404H424C424 407.7 418.8 414.8 415.4 418.6C411.7 418.6 406.5 422 404.6 422C409.8 431 424 418.6 429.3 413.4C434.9 413.4 445.7 407.8 449.1 404.1C451 406 454.3 407.8 456.2 409.7C456.2 414.9 452.5 420.6 452.5 425.8C454.3 427.3 458.1 429.2 459.6 431C467.1 431 475.7 425.8 482.8 425.8C486.5 429.2 486.5 434.8 486.5 438.1C482.8 440 477.5 441.8 475.7 443.7C475.7 450.4 484.7 454.2 488.4 457.5C490.3 457.5 493.6 454.2 493.6 454.2V447.1L497.3 443.7L511.1 450.4V457.5C511.1 457.5 507.8 461.3 507.8 463.1C509.7 466.4 509.7 473.5 507.8 477.3C511.1 479.1 513 479.1 516.8 475.4C516.8 470.2 520.5 466.4 520.5 461.2L527.6 454.1C531 454.1 534.4 455.9 538.1 457.4C538.1 470.1 541.5 477.3 556.1 477.3C556.1 480.6 554.2 482.5 552.3 484.4C543.3 484.4 534.4 487.8 523.9 487.8C523.9 487.8 520.5 491.5 520.5 493.4C516.8 493.4 514.9 495.3 513 496.8C513 498.7 516.8 502.4 516.8 502.4C527.6 502.4 540 496.8 548.9 505.7V512.8C547 514.7 543.3 516.5 541.4 518H534.3C532.8 519.9 529.1 521.4 527.6 523.2C523.9 521.3 518.6 516.4 516.8 514.6C511.2 514.6 502.6 514.6 497.4 516.5L502.6 521.4H509.7C515 526.6 523.9 530.4 529.2 536C532.9 536 540 534.1 545.2 534.1C547.1 536 549 537.5 549 541.2C545.2 541.2 536.3 546.4 534.4 548.3V555.4L531 558.7C527.6 558.7 520.6 560.6 516.8 562.4C511.2 558.7 507.8 551.6 502.6 546.4C498.9 548.3 497.4 553.5 493.6 557.2H486.5C484.6 555.3 481.3 549.7 479.4 548.2C474.2 548.2 470.4 553.4 468.9 557.2C467 557.2 465.2 558.7 463.3 558.7C463.3 560.6 461.4 564.3 461.4 566.2C456.2 566.2 452.4 557.2 447.2 557.2H443.8C440.1 557.2 436.7 564.3 431.1 564.3L427.7 560.5V553.4C431.1 551.5 436.7 548.2 438.6 543C436.7 543 433 541.1 429.3 541.1C420.7 549.7 422.6 564.3 415.4 571.4V596C427.7 608.7 438.6 608.7 452.4 615.8C440.1 621 422.5 615.8 407.9 619.2C407.9 619.2 404.5 615.8 402.7 615.8H395.6C388.5 619.2 356.4 619.2 349.3 615.8C349.3 610.2 358.3 605 360.2 601.2C363.9 601.2 370.7 596 374.4 594.5C374.4 579.9 376.3 553.4 365.4 543L362.1 546.3V557.1C362.1 557.1 358.4 560.5 356.5 560.5C353.1 557.1 349.4 555.3 347.5 551.5C346 553.4 340.7 558.6 340.7 560.5V564.3C340.7 566.2 335.5 567.6 333.6 567.6C331.7 564.3 329.9 558.6 329.9 555.3C328 553.4 324.6 551.5 322.8 549.7C317.6 551.6 313.8 555.3 312.4 558.7C303.4 560.6 292.6 562.4 282.1 562.4L278.4 558.7V555.4C278.4 549.8 294.5 548.3 297.8 548.3C297.8 546.4 299.7 544.5 299.7 543.1C303.5 543.1 304.9 541.2 308.7 541.2L312.5 537.4C315.9 537.4 319.2 535.9 321.1 534C319.2 530.3 312.5 526.5 306.9 526.5C306.9 523.2 305 519.8 303.5 517.9C299.8 517.9 297.9 519.8 294.5 519.8L290.7 523.2C287.4 523.2 282.1 525 278.4 525C276.5 526.5 271.3 530.3 267.5 530.3C265.7 532.2 262.3 534 260.4 535.9C257 532.2 249.9 525 246.2 523.2C238.8 525 226.5 528.4 224.6 519.8ZM312.1 508.9L308.3 505.5H292.6C292.6 512.6 297.8 514.5 303.1 516C306.5 516.1 313.6 512.7 312.1 508.9ZM336.7 468.2C338.5 468.2 342.3 464.8 342.3 464.8C342.3 462.9 338.5 459.2 338.5 459.2C333.3 459.2 328.1 463 322.8 463C322.8 468.2 324.7 484.3 326.2 489.5C326.2 489.5 329.9 485.8 331.4 485.8C331.5 478.7 336.7 473.4 336.7 468.2ZM361.8 505.5C361.8 505.5 365.5 502.2 365.5 500.3C361.8 498.4 356.5 496.9 355.1 493.2C351.4 493.2 347.6 495.1 346.1 495.1C346.1 500.3 349.4 500.3 347.6 505.5C344.3 504 340.5 504 337.1 504C338.6 507 342.3 512.6 344.2 514.5C347.5 514.5 349.4 512.6 351.3 510.8C355 510.8 360.3 507.1 361.8 505.5ZM347.6 521.6L344.3 517.9C340.5 517.9 336.8 519.8 335.3 519.8L342.4 526.9C344.2 526.9 347.6 523.2 347.6 521.6ZM335.2 516.4C333.3 516.4 331.4 514.5 329.6 514.5L328.1 516.4C328.1 517.9 329.6 519.8 329.6 521.6L335.2 516.4ZM365.5 517.9C368.9 523.5 368.9 519.8 374.1 519.8C374.1 514.6 372.2 509.3 372.2 506C368.9 507.4 365.5 512.7 365.5 517.9ZM393.9 537.3C393.9 541.1 395.4 544.4 397.3 548.2C399.2 548.2 402.5 549.7 404.4 549.7L418.6 534C418.6 530.6 415.2 525.4 415.2 523.6C411.5 525.5 409.6 527 407.8 530.7C404.4 528.8 402.6 527 402.6 521.7C406.4 519.8 406.4 518 406.4 512.7L400.8 507.5C397.3 516.4 393.9 526.9 393.9 537.3ZM390.2 514.5C390.2 512.6 386.8 508.9 386.8 508.9C383.4 510.8 381.6 512.6 381.6 517.9L385 521.3C388.6 517.9 390.2 517.9 390.2 514.5ZM408.1 463C408.1 463 404.7 459.2 404.7 457.4C402.8 457.4 399.1 459.3 397.6 459.3C397.6 461.2 399.1 463.1 399.1 464.5C397.6 464.5 393.8 468.2 393.8 468.2C397.6 469.7 400.9 468.2 406.5 468.2C406.6 466.3 408.1 464.5 408.1 463ZM388.3 450.3L385 447C381.6 448.9 381.6 454.1 383.1 457.4C386.8 455.5 390.2 454 388.3 450.3ZM415.2 450.3L411.5 454.1L415.2 457.4C418.6 454.1 425.7 448.8 422 441.7C416.7 443.5 415.2 445 415.2 450.3ZM399.2 443.5C399.2 445 402.5 446.9 404.4 446.9C404.4 445 406.3 437.9 406.3 434.6L404.4 432.8C400.6 431.3 393.9 434.6 390.2 434.6C392.1 438 393.9 438 399.2 438V443.5ZM383.1 473.4C383.1 471.9 385 468.2 383.1 468.2C383.1 468.2 379.7 470.1 377.9 470.1C377.8 472 381.6 473.4 383.1 473.4ZM352.8 468.2C354.7 468.2 356.2 466.3 358 466.3C358 463 356.1 461.1 354.6 459.2C352.7 459.2 349.4 463 349.4 463C349.4 464.8 352.8 468.2 352.8 468.2ZM347.6 477.2C347.6 477.2 351 473.8 351 472C351 472 347.6 468.2 347.6 466.4C344.3 468.3 342.4 473.9 342.4 477.3L347.6 477.2ZM361.8 495.1C365.5 491.3 361.8 488 358.4 484.2C356.5 488 360.3 493.2 361.8 495.1ZM452.6 544.8C454.1 544.8 455.9 542.9 457.8 542.9C457.8 539.2 461.2 535.8 463 533.9C461.1 530.5 450.7 528.7 447.3 530.5L445.4 532.4V539.1C449.2 541.1 450.7 541.1 452.6 544.8ZM431.3 528.7C432.8 528.7 436.5 525.3 438.4 525.3C438.4 519.7 436.5 519.7 432.8 517.9C431.4 517.9 428 521.6 426.1 521.6C426.1 527.2 427.9 528.7 431.3 528.7ZM454.5 508.9C454.5 508.9 457.8 512.6 457.8 514.5C461.2 514.5 463 512.6 464.9 510.8C464.9 507.4 464.9 502.2 463 498.5C461.1 498.5 459.6 502.3 459.6 503.7C455.9 500.3 455.9 497 454.4 493.2C450.6 495.1 447.3 497 447.3 502.2C449.2 503.7 452.6 505.5 454.5 508.9ZM427.5 505.5C427.5 504 429 502.2 429 500.3L427.5 498.4C426 498.4 424.2 500.3 422.3 500.3L427.5 505.5ZM415.2 477.2C418.6 477.2 423.8 473.8 427.2 473.8C423.8 470.1 420.5 471.9 415.2 471.9V477.2ZM472 472C470.5 473.5 470.5 475.3 470.5 477.2C477.6 477.2 488.1 477.2 493.3 475.3C491.4 472 489.9 472 484.3 472C486.2 472 488 470.1 489.9 470.1C486.2 464.8 477.6 468.2 472 472ZM436.5 450.3C433.1 454.1 429.8 454.1 431.3 461.2C433.1 459.3 436.5 457.4 438.4 455.6C438.4 454 436.5 452.1 436.5 450.3ZM450.7 457.4C454 457.4 455.9 459.3 459.3 457.4C459.3 455.9 455.9 450.7 454.1 450.7H450.7C447.4 448.8 449.2 447 443.6 448.8C443.6 450.7 445.5 454 445.5 455.9C447.4 455.9 449.2 457.4 450.7 457.4ZM473.9 496.6C475.4 496.6 479.1 498.1 480.7 498.1C480.7 498.1 484.4 495.1 486.3 495.1C488.2 496.6 491.5 498.1 495.3 498.1C498.7 495.1 497.2 495.1 497.2 491.3C493.5 493.2 491.6 489.4 490.1 486.1C486.4 486.1 482.6 487.6 479.3 487.6C475.4 491.4 472 491.4 473.9 496.6Z" fill="white"/>
<path d="M402.399 202.9L322.099 283.5H220.199V181.6L401.999 0.399994C401.999 0.399994 402.199 0.2 402.399 0L402.799 0.399994L409.899 7.39999L584.599 181.6V283.5H482.699C482.699 283.5 402.799 203.3 402.399 202.9ZM491.499 262.4H563.499V190.4L402.399 29.8L241.299 190.4V262.4H313.299L402.399 173L491.499 262.4Z" fill="white"/>
<path d="M804.5 428.7C804.5 409.8 799.2 395.3 788.4 384.4C761.5 357.2 734.3 330.3 707.1 303.4L696.8 293.2C690.1 286.6 681.7 284.2 672.4 286.3C661.4 288.8 654.7 296.9 655.5 306.9C655.7 309.5 656.1 311.9 656.7 314.2C661.4 331.5 668.9 345.9 679.7 358.3C689.6 369.7 699.4 381.1 709.3 392.5L718.1 402.7C721.8 407 724.9 411 724.6 416.3L724.5 419.3C724.4 420.8 724.4 422.2 724.3 423.6C716.1 414.9 706.4 408.8 693.8 404.1C692.7 403.7 689.6 402.5 686.9 404.4C684.3 406.2 684.3 409.4 684.3 410.8C684.3 433.1 684.3 455.5 684.3 477.8V522.5C684.3 543.1 691.8 560 706.5 572.6L708.3 574.1C714.7 579.5 718.5 583 717 588.8C715.6 594.3 714 600.2 711.9 606.2L696.9 649.3C695.8 652.4 694.6 655.6 693.9 659C693.1 662.9 693.2 666.6 693.3 670.2V671.4C693.6 684.2 704.7 696 716.7 696.1C730.2 696.2 743.8 696.3 757.3 696.3C765.9 696.3 774.5 696.3 783.1 696.2C791.2 696.2 797.7 692.1 801.4 684.7C804.3 678.9 804.3 672.9 804.3 667.1L804.5 428.7ZM786.8 675.4C786.2 677.7 785 678.9 782.5 678.9C761.3 678.9 740.1 678.9 718.9 678.8C714.4 678.8 710.9 675.3 710.8 670.7C710.7 667 710.6 663.3 711.3 659.7C712 656 713.6 652.4 714.8 648.9C717.4 641.5 720 634.2 722.5 626.8C724.9 619.9 727.3 613.1 729.7 606.2C730.7 603.3 732.2 600.2 732.9 597.1C733.5 594.4 734 591.8 734.6 589.1C736.2 582.1 733.3 576.3 729.3 571C726.2 566.8 722.4 563.4 718.5 560C706.8 550.1 701.5 537.5 701.5 522.2C701.6 491.7 701.5 461.2 701.5 430.7V426.7C713 434.5 721 443.8 721.3 457.7C721.6 472.5 721.4 487.3 721.3 502C721.3 504.8 721.9 505.7 724.8 505.7C733.7 505.6 733.8 505.7 733.8 496.7C733.8 479.2 734.1 461.6 735.8 444.2C736 442.1 736.7 440.3 737.6 438.4C741.3 431.2 741.7 423.3 741.7 415.3C741.7 407.3 738.7 400.5 733.7 394.3C720.4 377.7 705.8 362.1 692.1 345.9C682.8 334.9 676.9 322.3 673.2 308.6C672.1 304.6 673.7 302.7 677.9 302.5C680.8 302.4 683.1 303.7 685.2 305.7C700.4 320.8 715.6 335.9 730.8 350.9C745.7 365.7 760.6 380.4 775.3 395.3C783.9 404 786.7 415.1 787.2 427C787.3 429.5 787.3 432 787.3 434.6C787.3 512.2 787.3 589.8 787.3 667.4C787.4 670.2 787.5 672.8 786.8 675.4Z" fill="white"/>
<path d="M0.199999 667C0.199999 672.7 0.2 678.8 3.1 684.6C6.8 692 13.3 696.1 21.4 696.1C30 696.1 38.6 696.2 47.2 696.2C60.7 696.2 74.3 696.1 87.8 696C99.7 695.9 110.9 684.1 111.2 671.3V670.1C111.3 666.5 111.4 662.8 110.6 658.9C109.9 655.5 108.7 652.3 107.6 649.2L92.6 606.1C90.5 600.1 88.9 594.2 87.5 588.7C86 582.9 89.9 579.4 96.2 574L98 572.4C112.7 559.7 120.2 542.9 120.2 522.3V477.6C120.2 455.2 120.2 432.9 120.2 410.6C120.2 409.2 120.2 406.1 117.6 404.2C114.9 402.3 111.9 403.5 110.7 403.9C98.1 408.6 88.4 414.8 80.2 423.4C80.1 422 80 420.6 80 419.1L79.9 416.1C79.6 410.9 82.7 406.9 86.4 402.5L95.2 392.3C105 380.9 114.9 369.5 124.8 358.1C135.6 345.7 143.1 331.3 147.8 314C148.4 311.7 148.8 309.2 149 306.7C149.8 296.7 143.1 288.7 132.1 286.1C122.8 284 114.4 286.4 107.7 293L97.4 303.2C70.2 330.1 43 357 16.1 384.2C5.3 395.2 0 409.7 0 428.5L0.199999 667ZM17.4 667.5C17.4 589.9 17.4 512.3 17.4 434.7C17.4 432.2 17.4 429.7 17.4 427.1C17.8 415.2 20.6 404.1 29.3 395.4C44 380.5 59 365.8 73.8 351.1C89 336 104.2 321 119.4 305.9C121.5 303.9 123.8 302.6 126.7 302.7C130.9 302.8 132.5 304.7 131.4 308.8C127.7 322.6 121.8 335.1 112.5 346.1C98.7 362.3 84.2 377.9 70.9 394.5C65.9 400.7 62.9 407.5 62.9 415.5C62.9 423.5 63.3 431.3 67 438.6C68 440.5 68.6 442.3 68.8 444.4C70.5 461.9 70.8 479.4 70.8 496.9C70.8 505.9 70.8 505.7 79.8 505.9C82.8 505.9 83.4 505 83.3 502.2C83.2 487.4 83 472.6 83.3 457.9C83.6 444 91.6 434.7 103.1 426.9V430.9C103.1 461.4 103 491.9 103.1 522.4C103.2 537.6 97.8 550.3 86.1 560.2C82.2 563.5 78.3 567 75.3 571.2C71.3 576.6 68.5 582.3 70 589.3C70.6 592 71.2 594.6 71.7 597.3C72.4 600.3 73.9 603.4 74.9 606.4C77.3 613.3 79.7 620.1 82.1 627C84.7 634.4 87.3 641.7 89.8 649.1C91 652.7 92.6 656.2 93.3 659.9C94 663.5 93.9 667.2 93.8 670.9C93.7 675.5 90.2 679 85.7 679C64.5 679.1 43.3 679 22.1 679.1C19.6 679.1 18.3 677.9 17.8 675.6C17.3 672.8 17.4 670.2 17.4 667.5Z" fill="white"/>
<path d="M964.199 303.8H944.899C942.699 301.1 941.599 298.1 941.599 294.8C941.599 289 945.699 285.1 952.199 285.1C953.899 285.1 956.499 285.4 959.799 286.2L962.099 275.9C958.799 274.8 955.099 274.3 950.899 274.3C944.599 274.3 939.599 276.1 935.799 279.6C931.899 283.1 929.999 287.7 929.999 293.3C929.999 297 930.999 300.5 932.999 303.8H925.199V314H964.099V303.8H964.199Z" fill="white"/>
<path d="M1000.1 314H1005.6H1011.1H1016.6H1022.1H1027.6H1033.1H1038.6H1044.1H1049.6H1055.1H1060.6H1066.1H1071.6H1077.1H1093.4H1048.9H1054.4H1059.9H1065.4H1070.9H1076.4H1092.7H1098.2H1103.7H1109.2H1114.7H1120.2H1125.7H1131.2H1136.7H1142.2H1147.7H1153.2H1158.7H1164.2H1169.7H1175.2H1180.7H1186.2H1191.7H1197.2H1202.7H1208.2H1213.7H1219.2H1224.7H1230.2H1235.7H1241.2H1246.7H1252.2H1257.7H1263.2H1268.7H1274.2H1279.7H1285.2H1290.7H1296.2H1301.7H1307.2H1312.7H1318.2H1323.7H1329.2H1334.7H1386.2C1389.1 306.4 1390.4 299 1390.4 292C1390.4 281.8 1384.9 268.4 1367.4 268.4C1359.8 268.4 1353.7 270.6 1349.1 275.1C1344.5 279.6 1342.3 285.2 1342.3 292.1C1342.3 296.1 1343.1 299.6 1344.8 302.7H1336.1H1330.6H1325.1H1319.6H1314.1H1308.6H1303.1H1297.6H1292.1H1286.6H1281.1H1275.6H1270.1H1264.6H1259.1H1253.6H1248.1H1242.6H1237.1H1231.6H1226.1H1220.6H1215.1H1209.6H1204.1H1198.6H1193.1H1187.6H1182.1H1176.6H1171.1H1165.6H1160.1H1154.6H1149.1H1143.6H1138.1H1132.6H1127.1H1121.6H1116.1H1110.6H1105.1H1099.6H1094.1H1077.8H1072.3H1066.8H1061.3H1055.8H1050.3H1094.8H1078.5H1073H1067.5H1062H1056.5H1051H1045.5H1040H1034.5H1029H1023.5H1018H1012.5H1007H1001.5C993.699 302.7 990.499 300 990.499 293.8V233.7H977.999V294.1C976.599 307.8 983.099 314 1000.1 314ZM1368.3 280C1375.8 280 1379.3 285.4 1379.3 293.2C1379.3 296.2 1378.9 299.4 1378 302.8H1359.4C1357.4 299.1 1356.3 295.6 1356.3 292.1C1356.4 284.9 1360.8 280 1368.3 280Z" fill="white"/>
<path d="M1364.8 254.1C1366.1 252.8 1366.7 251.2 1366.7 249.3C1366.7 245.4 1363.9 242.6 1360 242.6C1356.2 242.6 1353.2 245.5 1353.2 249.3C1352.8 255.3 1361 258.4 1364.8 254.1Z" fill="white"/>
<path d="M1377.5 256.1C1381.2 256.1 1384.1 253.1 1384.1 249.3C1384.1 245.5 1381.3 242.6 1377.5 242.6C1373.4 242.6 1370.6 245.4 1370.6 249.3C1370.5 253.1 1373.5 256.1 1377.5 256.1Z" fill="white"/>
<path d="M1453.3 314C1461.3 314 1466.7 312.7 1469.7 310.1C1473.1 312.8 1477.9 314 1484.1 314H1545C1546.9 307.4 1547.9 301.4 1547.9 295.7C1547.9 278.8 1539.1 268.4 1523 268.4C1517.2 268.4 1511.5 269.8 1503.8 274.2C1496 278.7 1487.4 288.5 1480.2 302.6C1476.5 302.1 1474.6 299.7 1474.6 295.6V277.3H1462.1V291.6C1462.1 300.5 1460.3 302.6 1453.4 302.6H1445.4C1445 295.5 1443.1 288.9 1439.6 283.1C1436.1 277.3 1430 271.6 1421.4 266.1L1413.9 276.2C1418.9 279.3 1423.4 283.2 1427.3 288C1431.1 292.8 1433 297.6 1433 302.4V302.6H1400.8V314H1453.3ZM1521.4 280C1530.4 280 1535.4 286.5 1535.4 296.7C1535.4 298.6 1535.2 300.6 1534.8 302.8H1494.2C1502.3 288 1512.2 280 1521.4 280Z" fill="white"/>
<path d="M1576.5 222.9H1567.8C1567.1 221.6 1566.7 220.5 1566.7 219.4C1566.7 217 1568.2 215.8 1571.1 215.8C1572.3 215.8 1573.3 215.9 1574.5 216.2L1575.6 210.6C1573.6 210.2 1571.8 210 1570.2 210C1564.6 210 1560.7 213.2 1560.7 218.2C1560.7 219.9 1561.1 221.5 1562 223H1558.5V228.8H1576.6V222.9H1576.5Z" fill="white"/>
<path d="M1573.7 233.7H1561.2V314H1573.7V233.7Z" fill="white"/>
<path d="M1636.7 255.3C1638 254 1638.6 252.4 1638.6 250.5C1638.6 246.6 1635.8 243.8 1631.9 243.8C1628.1 243.8 1625.1 246.7 1625.1 250.5C1624.7 256.4 1632.8 259.6 1636.7 255.3Z" fill="white"/>
<path d="M1649.3 257.3C1653 257.3 1655.9 254.3 1655.9 250.5C1655.9 246.6 1653 243.8 1649.3 243.8C1645.2 243.8 1642.4 246.6 1642.4 250.5C1642.4 254.3 1645.4 257.3 1649.3 257.3Z" fill="white"/>
<path d="M1702.9 329.5C1702.9 325.6 1700 322.6 1696.3 322.6C1692.4 322.6 1689.4 325.6 1689.4 329.5C1689.4 333.3 1692.4 336.2 1696.3 336.2C1700.1 336.2 1702.9 333.3 1702.9 329.5Z" fill="white"/>
<path d="M1685.6 329.5C1685.6 325.6 1682.8 322.6 1678.9 322.6C1675.1 322.6 1672.1 325.6 1672.1 329.5C1672.1 333.3 1675.1 336.2 1678.9 336.2C1682.9 336.2 1685.6 333.3 1685.6 329.5Z" fill="white"/>
<path d="M1830.5 314H1874.4C1876.2 305 1876.7 297.1 1876 290.4C1874.3 276.9 1864.6 268.4 1847.7 268.4C1842.5 268.4 1837.6 269.2 1833.1 270.8L1835.9 281.4C1839.8 280.4 1843.4 279.9 1846.6 279.9C1863.2 279.9 1865 293.3 1863.4 302.6H1830.5H1823.2C1823.5 300.7 1823.7 298.9 1823.7 297.2C1823.7 290.3 1821.7 284.6 1817.8 280.1C1813.9 275.6 1808.2 273.4 1801 273.4C1793.7 273.4 1787.6 275.6 1782.9 280.1C1778.2 284.7 1775.9 290.4 1775.9 297.5C1775.9 298.8 1776 300.5 1776.3 302.6H1769.2H1759.8C1758.8 302.6 1756.5 302.5 1752.7 302.4C1758.5 296.6 1761.5 290.5 1761.5 284.2C1761.5 274.3 1753.3 268.4 1740.2 268.4C1732 268.4 1723.9 270.5 1715.9 274.7C1714.8 277.3 1714 281.2 1713.4 286.6C1718.6 291.6 1723.2 296.9 1727 302.3C1724.3 302.5 1720.9 302.6 1716.6 302.6H1707.1C1699.6 302.6 1695.7 299 1695.7 291.9V269.5H1683.2V290.2C1683.2 299.7 1680.8 302.6 1672.3 302.6H1670.2C1663.1 302.6 1661 300.5 1661 293.4V269.5H1640.8C1632.1 269.5 1625.4 271.6 1620.7 276C1615.9 280.4 1613.6 285.8 1613.6 292.3C1613.6 298.8 1615.8 303.8 1620.4 307.3C1624.9 310.8 1630.5 312.6 1637.4 312.6C1642.6 312.6 1647.4 311.5 1651.8 309.4C1654.7 312.5 1660.7 314 1670.2 314H1672.4C1681.6 314 1688 311.9 1691.5 307.6C1694.4 311.8 1699.6 314 1707.1 314H1710.9C1721.8 314 1730.8 313 1737.7 311.2C1744.5 313 1752.3 314 1761 314H1769.3H1781.5C1783.3 316.4 1785.6 318.8 1788.5 320.8H1797.4C1806 320.8 1812.6 318.6 1817.3 314H1830.5ZM1647.7 299.2C1645.6 300.4 1642.7 300.9 1639 300.9C1630.4 300.9 1626.1 297.7 1626.1 291.2C1626.1 284.5 1631.1 280.8 1638.7 280.8H1647.6V299.2H1647.7ZM1739.1 299.3C1735.3 293.1 1730.6 287.7 1725.1 283L1725.2 282.5C1729.3 280.9 1733.4 280.1 1737.5 280.1C1745.1 280.1 1749 283.1 1749 287.2C1748.9 291.2 1745 296.4 1739.1 299.3ZM1798.2 309.5H1792.4C1789.7 306 1788.5 302.2 1788.5 297.9C1788.5 289.9 1793.1 285 1800.3 285C1807.2 285 1811.2 289.9 1811.2 296.7C1811.2 304.1 1807 309.5 1798.2 309.5Z" fill="white"/>
<path d="M1845.2 329.5C1844.6 335.3 1853.1 338.4 1856.8 334.3C1858 333 1858.6 331.4 1858.6 329.5C1858.6 325.6 1855.9 322.6 1852 322.6C1848.1 322.6 1845.2 325.6 1845.2 329.5Z" fill="white"/>
<path d="M981.099 376C984.799 376 987.699 373 987.699 369.2C987.699 365.4 984.899 362.5 981.099 362.5C976.999 362.5 974.199 365.3 974.199 369.2C974.199 373 977.199 376 981.099 376Z" fill="white"/>
<path d="M956.899 369.2C956.499 375.1 964.699 378.3 968.499 374C969.799 372.7 970.399 371.1 970.399 369.2C970.399 365.3 967.599 362.5 963.699 362.5C959.799 362.5 956.899 365.3 956.899 369.2Z" fill="white"/>
<path d="M1411.1 421.5C1427.6 421.5 1434.5 415.6 1434.5 399.5V377.1H1422V397.8C1422 407.3 1419.6 410.2 1411.1 410.2H1409H1403.5H1398H1392.5H1387H1381.5H1376H1370.5H1365H1359.5H1354H1348.5H1349.8H1344.3H1338.8H1333.3H1327.8H1322.3H1316.8H1311.3H1305.8H1300.3H1294.8H1289.3H1283.8H1278.3H1272.8H1267.3H1261.8H1256.3H1250.8H1245.3H1239.8H1234.3H1228.8H1223.3H1217.8H1212.3H1206.8H1201.3H1195.8H1190.3H1184.8H1179.3H1173.8H1168.3H1162.8H1157.3H1151.8H1146.3H1140.8H1135.3H1129.8H1124.3H1118.8H1113.3H1107.8H1102.3H1096.8H1091.3H1085.8H1080.3H1074.8H1069.3H1063.8H1097.6H1092.1H1086.6H1081.1H1075.6H1070.1H1064.6H1059.1H1053.6H1048.1H1042.6H1037.1H1031.6C1024.1 410.2 1020.2 406.6 1020.2 399.5V377.1H1007.7V399.2C1007.7 407.3 1004.7 410.2 997.398 410.2H955.398C945.498 410.2 939.798 405.7 939.798 397.6C939.798 394.9 940.398 391.1 941.798 386L930.798 383.1C928.598 389.2 927.398 394.8 927.398 400.1C927.398 412.8 937.398 421.4 953.498 421.4H1001.1C1008 421.4 1013.1 419.4 1016.4 415.5C1019.3 419.4 1024.3 421.4 1031.6 421.4H1037.1H1042.6H1048.1H1053.6H1059.1H1064.6H1070.1H1075.6H1081.1H1086.6H1092.1H1097.6H1063.8H1069.3H1074.8H1080.3H1085.8H1091.3H1096.8H1102.3H1107.8H1113.3H1118.8H1124.3H1129.8H1135.3H1140.8H1146.3H1151.8H1157.3H1162.8H1168.3H1173.8H1179.3H1184.8H1190.3H1195.8H1201.3H1206.8H1212.3H1217.8H1223.3H1228.8H1234.3H1239.8H1245.3H1250.8H1256.3H1261.8H1267.3H1272.8H1278.3H1283.8H1289.3H1294.8H1300.3H1305.8H1311.3H1316.8H1322.3H1327.8H1333.3H1338.8H1344.3H1349.8H1348.5H1354H1359.5H1365H1370.5H1376H1381.5H1387H1392.5H1398H1403.5H1409H1411.1V421.5Z" fill="white"/>
<path d="M1415.5 430.1C1411.7 430.1 1408.7 433.1 1408.7 437C1408.7 440.8 1411.7 443.7 1415.5 443.7C1419.4 443.7 1422.2 440.8 1422.2 437C1422.2 433.1 1419.5 430.1 1415.5 430.1Z" fill="white"/>
<path d="M1433 430.1C1429.1 430.1 1426.1 433.1 1426.1 437C1426.1 440.8 1429.1 443.7 1433 443.7C1436.7 443.7 1439.6 440.8 1439.6 437C1439.5 433.1 1436.7 430.1 1433 430.1Z" fill="white"/>
<path d="M1457.8 416.6C1457.8 425.4 1454.1 428.7 1444.2 430.1L1446.1 440.9C1462.8 439.7 1470.3 431.1 1470.3 414V377H1457.8V416.6Z" fill="white"/>
<path d="M1457.3 358C1456.7 363.9 1465.2 367 1468.9 362.9C1471.3 360.3 1471.3 355.7 1468.9 353.1C1465.1 349.2 1456.6 352 1457.3 358Z" fill="white"/>
<path d="M1540 430.1C1536.1 430.1 1533.1 433.1 1533.1 437C1533.1 440.8 1536.1 443.7 1540 443.7C1543.7 443.7 1546.6 440.8 1546.6 437C1546.6 433.1 1543.8 430.1 1540 430.1Z" fill="white"/>
<path d="M1522.6 430.1C1518.8 430.1 1515.8 433.1 1515.8 437C1515.8 440.8 1518.8 443.7 1522.6 443.7C1526.5 443.7 1529.3 440.8 1529.3 437C1529.3 433.1 1526.5 430.1 1522.6 430.1Z" fill="white"/>
<path d="M1561.5 397.8C1561.5 407.5 1558.9 410.2 1550.8 410.2C1543.3 410.2 1539.4 406.6 1539.4 399.5V377.1H1526.9V397.8C1526.9 407.3 1524.5 410.2 1516 410.2H1513.9H1503.1V377.1H1490.6V416.6C1490.6 425.4 1486.9 428.7 1477 430.1L1478.9 440.9C1492.7 439.9 1500.6 433.5 1502.6 421.5H1514H1516.2C1525.4 421.5 1531.8 419.4 1535.3 415.1C1538.2 419.4 1543.4 421.5 1550.9 421.5C1567 421.5 1574.2 415.7 1574.2 399.5V377.1H1561.7V397.8H1561.5Z" fill="white"/>
<path d="M1563.6 430.1C1559.7 430.1 1556.8 433.1 1556.8 437C1556.2 442.8 1564.7 445.9 1568.4 441.8C1569.6 440.5 1570.2 438.9 1570.2 437C1570.2 433.1 1567.5 430.1 1563.6 430.1Z" fill="white"/>
<path d="M1636.7 362.8C1638 361.5 1638.6 359.9 1638.6 358C1638.6 354.1 1635.8 351.3 1631.9 351.3C1628.1 351.3 1625.1 354.2 1625.1 358C1624.7 364 1632.9 367.2 1636.7 362.8Z" fill="white"/>
<path d="M1656 358C1656 354.1 1653.1 351.3 1649.4 351.3C1645.3 351.3 1642.5 354.1 1642.5 358C1642.5 361.8 1645.5 364.8 1649.4 364.8C1653.1 364.8 1656 361.8 1656 358Z" fill="white"/>
<path d="M1770.9 376C1763.7 376 1757.7 378.1 1753.1 382.3C1748.4 386.4 1746.1 391.9 1746.1 398.4C1746.1 403 1747.2 407 1749.3 410.3H1732.4H1723C1722 410.3 1719.7 410.2 1715.9 410.1C1721.7 404.3 1724.7 398.2 1724.7 391.9C1724.7 382 1716.5 376.1 1703.3 376.1C1695.1 376.1 1687.1 378.2 1679 382.4C1677.9 384.9 1677.1 388.9 1676.5 394.3C1681.7 399.3 1686.3 404.6 1690.1 410C1687.4 410.2 1684 410.3 1679.7 410.3H1670.2C1663.1 410.3 1661 408.2 1661 401.1V377.2H1640.8C1632.1 377.2 1625.4 379.3 1620.7 383.7C1615.9 388.1 1613.6 393.5 1613.6 400C1613.6 406.5 1615.8 411.5 1620.4 415C1624.9 418.5 1630.5 420.3 1637.4 420.3C1642.6 420.3 1647.4 419.2 1651.8 417.1C1654.7 420.2 1660.7 421.7 1670.2 421.7H1674C1684.9 421.7 1693.9 420.7 1700.8 418.9C1707.6 420.7 1715.3 421.7 1724.1 421.7H1732.4H1767.5C1788.5 421.7 1793.8 409.4 1793.8 398.5C1793.8 392.2 1791.8 386.9 1787.9 382.6C1783.8 378.1 1778.1 376 1770.9 376ZM1647.8 406.8C1645.7 408 1642.8 408.5 1639.1 408.5C1630.5 408.5 1626.2 405.3 1626.2 398.8C1626.2 392.1 1631.2 388.4 1638.8 388.4H1647.7V406.8H1647.8ZM1702.2 406.9C1698.4 400.7 1693.7 395.3 1688.2 390.6L1688.3 390.1C1692.4 388.5 1696.5 387.7 1700.6 387.7C1708.2 387.7 1712.1 390.7 1712.1 394.8C1712.1 398.7 1708.1 403.9 1702.2 406.9ZM1768.8 410.3H1762.3C1759.9 406.9 1758.7 403.3 1758.7 399.6C1758.7 392 1763.4 387.6 1770.2 387.6C1776.9 387.6 1781.1 392.1 1781.1 398.9C1781.1 406.5 1777 410.3 1768.8 410.3Z" fill="white"/>
<path d="M1847.7 376C1842.5 376 1837.6 376.8 1833.1 378.4L1835.9 389C1839.8 388 1843.4 387.5 1846.6 387.5C1863.2 387.5 1865 400.9 1863.4 410.2H1830.5C1822.7 410.2 1819.5 407.5 1819.5 401.3V341.2H1807V401.6C1807 415.3 1813.6 421.5 1830.6 421.5H1874.5C1876.3 412.5 1876.8 404.6 1876.1 397.9C1874.3 384.5 1864.6 376 1847.7 376Z" fill="white"/>
<path d="M1852 430.1C1848.1 430.1 1845.2 433.1 1845.2 437C1844.6 442.8 1853.1 445.9 1856.8 441.8C1858 440.5 1858.6 438.9 1858.6 437C1858.6 433.1 1855.9 430.1 1852 430.1Z" fill="white"/>
<path d="M954.8 492.7C964.6 492.7 977.5 497.2 977.5 511.6C977.5 519.4 972.8 525.4 964.4 528.1V528.3C969.2 528.8 973.1 530.9 976.2 534.3C979.2 537.8 980.7 541.9 980.7 546.5C980.7 560.6 969.7 568 952.7 568H925V492.6H954.8V492.7ZM951.1 523.4C959.2 523.4 964.1 519.8 964.1 513.9C964.1 507.4 959.4 504.2 950 504.2H938.4V523.4H951.1ZM951.2 556.6C962 556.6 967.3 552.9 967.3 545.5C967.3 537.9 962.5 534.9 952 534.9H938.5V556.6H951.2Z" fill="white"/>
<path d="M1014.2 499.6C1014.2 504.2 1010.6 507.3 1005.9 507.3C1001.3 507.3 997.799 503.9 997.799 499.6C997.799 495.3 1001.3 491.9 1005.9 491.9C1010.6 492 1014.2 495.3 1014.2 499.6ZM1012.4 568.1H999.599V517H1012.4V568.1Z" fill="white"/>
<path d="M1066.4 516.5V528.8C1064 528.2 1061.9 527.8 1060.2 527.8C1051.2 527.8 1046.5 533.9 1046.5 541.4V568H1033.7V517H1046.5V525.1H1046.7C1049.6 519.2 1055.1 515.7 1061.8 515.7C1062.9 515.7 1064.4 515.9 1066.4 516.5Z" fill="white"/>
<path d="M1120.9 517V528.6L1093.2 557.9H1122.2V568.1H1078.1V556.3L1105.5 527.4V527.2H1079.4V517H1120.9Z" fill="white"/>
<path d="M1182.6 523.4C1186.8 528.6 1188.8 535.2 1188.8 543.4V547H1149.8C1150.7 554.3 1156.2 559.1 1163.5 559.1C1168.9 559.1 1173.5 556.8 1177.2 552.2L1186.4 559.1C1180.9 565.9 1173.6 569.3 1164.8 569.3C1156.8 569.3 1150.2 566.7 1145 561.7C1139.7 556.7 1137 550.3 1137 542.4C1137 534.5 1139.7 528 1145 523C1150.2 518 1156.8 515.5 1164.8 515.5C1172.6 515.7 1178.5 518.3 1182.6 523.4ZM1176 537.4C1175.9 529.6 1170.7 525.3 1162.9 525.3C1155.6 525.3 1150.8 530.1 1149.8 537.4H1176Z" fill="white"/>
<path d="M1222.1 499.6C1222.1 504.2 1218.5 507.3 1213.8 507.3C1209.2 507.3 1205.7 503.9 1205.7 499.6C1205.7 495.3 1209.2 491.9 1213.8 491.9C1218.5 492 1222.1 495.3 1222.1 499.6ZM1220.3 568.1H1207.5V517H1220.3V568.1Z" fill="white"/>
<path d="M1259 502.2V517H1273.1V527.9H1259V550.6C1259 555.9 1261.3 558.6 1266.1 558.6C1269.4 558.6 1271.6 558.1 1273 557V567.7C1270.7 568.9 1267.2 569.4 1262.9 569.4C1250.9 569.4 1246.2 564.6 1246.2 551.8V527.8H1235.7V517H1246.2V502.2H1259Z" fill="white"/>
<path d="M1328.6 492.7H1342V540.3C1342 547.3 1346 557.2 1358.9 557.2C1371.8 557.2 1375.8 547.3 1375.8 540.3V492.7H1389.2V541C1389.2 549 1386.5 555.8 1381.1 561.4C1375.7 567.1 1368.3 570 1358.8 570C1349.3 570 1341.9 567.1 1336.6 561.4C1331.2 555.6 1328.5 548.8 1328.5 541V492.7H1328.6Z" fill="white"/>
<path d="M1458 535.4V568.1H1445.2V541.6C1445.2 532 1442.1 527.2 1435.8 527.2C1428 527.2 1424.1 532.6 1424.1 540V568.1H1411.3V517H1423.4V525.2H1423.6C1426.5 518.9 1431.7 515.7 1439.2 515.7C1454.7 515.7 1458 527.5 1458 535.4Z" fill="white"/>
<path d="M1493.9 499.6C1493.9 504.2 1490.3 507.3 1485.6 507.3C1481 507.3 1477.5 503.9 1477.5 499.6C1477.5 495.3 1481 491.9 1485.6 491.9C1490.3 492 1493.9 495.3 1493.9 499.6ZM1492.1 568.1H1479.3V517H1492.1V568.1Z" fill="white"/>
<path d="M1520.6 517L1534.2 552.8H1534.4L1548.1 517H1561.2L1541.1 568.1H1527.5L1506.6 517H1520.6Z" fill="white"/>
<path d="M1618.5 523.4C1622.7 528.6 1624.7 535.2 1624.7 543.4V547H1585.7C1586.6 554.3 1592.1 559.1 1599.4 559.1C1604.8 559.1 1609.4 556.8 1613.1 552.2L1622.3 559.1C1616.8 565.9 1609.5 569.3 1600.7 569.3C1592.7 569.3 1586.1 566.7 1580.9 561.7C1575.6 556.7 1572.9 550.3 1572.9 542.4C1572.9 534.5 1575.6 528 1580.9 523C1586.1 518 1592.7 515.5 1600.7 515.5C1608.5 515.7 1614.3 518.3 1618.5 523.4ZM1611.9 537.4C1611.8 529.6 1606.6 525.3 1598.8 525.3C1591.5 525.3 1586.7 530.1 1585.7 537.4H1611.9Z" fill="white"/>
<path d="M1676 516.5V528.8C1673.6 528.2 1671.5 527.8 1669.8 527.8C1660.8 527.8 1656.1 533.9 1656.1 541.4V568H1643.3V517H1656.1V525.1H1656.3C1659.2 519.2 1664.7 515.7 1671.4 515.7C1672.5 515.7 1674 515.9 1676 516.5Z" fill="white"/>
<path d="M1727.2 523.5L1718.7 531.2C1716.1 527.7 1712.8 526 1708.7 526C1704.4 526 1701.3 528.1 1701.3 531.4C1701.2 535.4 1707.2 536.4 1713.4 537.8C1723.1 540 1728.8 543.6 1728.8 553C1728.8 563.3 1719.7 569.4 1706.7 569.4C1698.2 569.4 1691.6 566.7 1686.9 561.5L1695.4 553.5C1699.2 557.7 1703.3 559.8 1707.5 559.8C1712.3 559.8 1716 557.3 1716 553.9C1716 551.1 1714 549.7 1711.3 548.7C1710.6 548.4 1708.4 547.7 1707.6 547.6C1706.8 547.5 1704.1 546.7 1703.3 546.6C1699 545.6 1696.7 544.8 1693.4 542.7C1690 540.7 1688.4 537.2 1688.4 532.2C1688.4 524.4 1693.7 519 1699.6 517.1C1702.5 516.1 1705.6 515.7 1708.9 515.7C1717.3 515.7 1723.4 518.3 1727.2 523.5Z" fill="white"/>
<path d="M1760.2 499.6C1760.2 504.2 1756.6 507.3 1751.9 507.3C1747.3 507.3 1743.8 503.9 1743.8 499.6C1743.8 495.3 1747.3 491.9 1751.9 491.9C1756.6 492 1760.2 495.3 1760.2 499.6ZM1758.4 568.1H1745.6V517H1758.4V568.1Z" fill="white"/>
<path d="M1797.1 502.2V517H1811.2V527.9H1797.1V550.6C1797.1 555.9 1799.4 558.6 1804.2 558.6C1807.5 558.6 1809.7 558.1 1811.1 557V567.7C1808.8 568.9 1805.3 569.4 1801 569.4C1789 569.4 1784.3 564.6 1784.3 551.8V527.8H1773.8V517H1784.3V502.2H1797.1Z" fill="white"/>
<path d="M1821 517H1835.1L1849.4 552.5H1849.6L1862.4 517H1875.7L1852.4 576.8C1850 582.9 1848.6 585.7 1845.6 589C1842.5 592.3 1838.4 593.6 1832.1 593.6C1828.8 593.6 1825.5 593.2 1822.3 592.3L1823.9 580.8C1826.2 581.6 1828.4 582.1 1830.4 582.1C1833.5 582.1 1835.7 581.6 1836.9 580.5C1838.1 579.3 1839.3 577.2 1840.7 574L1842.9 568.5L1821 517Z" fill="white"/>
<path d="M973.7 600.5V612.6H938.4V632.4H971.6V644.6H938.4V675.9H925V600.5H973.7Z" fill="white"/>
<path d="M1017.6 624.2V636.5C1015.2 635.9 1013.1 635.5 1011.4 635.5C1002.4 635.5 997.698 641.6 997.698 649.1V675.7H984.898V624.6H997.698V632.7H997.898C1000.8 626.8 1006.3 623.3 1013 623.3C1014.1 623.5 1015.6 623.7 1017.6 624.2Z" fill="white"/>
<path d="M1041.2 607.4C1041.2 612 1037.6 615.1 1032.9 615.1C1028.3 615.1 1024.8 611.7 1024.8 607.4C1024.8 603.1 1028.3 599.7 1032.9 599.7C1037.5 599.8 1041.2 603.1 1041.2 607.4ZM1039.4 675.9H1026.6V624.8H1039.4V675.9Z" fill="white"/>
<path d="M1097.1 631.2C1101.2 636.4 1103.3 643 1103.3 651.2V654.8H1064.3C1065.2 662.1 1070.7 666.9 1078 666.9C1083.4 666.9 1088 664.6 1091.7 660L1100.9 666.9C1095.4 673.7 1088.1 677.1 1079.3 677.1C1071.3 677.1 1064.7 674.5 1059.5 669.5C1054.2 664.5 1051.5 658.1 1051.5 650.2C1051.5 642.3 1054.2 635.8 1059.5 630.8C1064.7 625.8 1071.3 623.3 1079.3 623.3C1087 623.5 1092.9 626.1 1097.1 631.2ZM1090.5 645.2C1090.4 637.4 1085.2 633.1 1077.4 633.1C1070.1 633.1 1065.3 637.9 1064.3 645.2H1090.5Z" fill="white"/>
<path d="M1161.8 643.2V675.9H1149V649.4C1149 639.8 1145.9 635 1139.6 635C1131.8 635 1127.9 640.4 1127.9 647.8V675.9H1115.1V624.8H1127.2V633H1127.4C1130.3 626.7 1135.5 623.5 1143 623.5C1158.5 623.5 1161.8 635.3 1161.8 643.2Z" fill="white"/>
<path d="M1216.1 595.4H1228.9V675.9H1216.8V668.2H1216.6C1213 674.2 1207.1 677.1 1198.9 677.1C1191.2 677.1 1185.2 674.5 1180.6 669.5C1176 664.5 1173.8 658 1173.8 650.2C1173.8 642.8 1176 636.4 1180.6 631.1C1185.2 625.9 1191.1 623.3 1198.5 623.3C1205.9 623.3 1211.7 625.9 1215.9 631.1H1216.2V595.4H1216.1ZM1190.7 661.2C1193.5 664.2 1197.1 665.7 1201.5 665.7C1206.3 665.7 1209.9 664.1 1212.6 661C1215.3 657.9 1216.5 654.3 1216.5 650.4C1216.5 645.8 1215 642.2 1212.1 639.3C1209.2 636.4 1205.6 635 1201.5 635C1197.1 635 1193.5 636.5 1190.7 639.5C1187.8 642.5 1186.4 646.1 1186.4 650.4C1186.5 654.7 1187.9 658.3 1190.7 661.2Z" fill="white"/>
<path d="M1279.1 631.3L1270.6 639C1268 635.5 1264.7 633.8 1260.6 633.8C1256.3 633.8 1253.2 635.9 1253.2 639.2C1253.1 643.2 1259.1 644.2 1265.3 645.6C1275 647.8 1280.7 651.3 1280.7 660.8C1280.7 671.1 1271.6 677.2 1258.6 677.2C1250.1 677.2 1243.5 674.5 1238.8 669.3L1247.3 661.3C1251.1 665.5 1255.2 667.6 1259.4 667.6C1264.2 667.6 1267.9 665.2 1267.9 661.7C1267.9 658.9 1265.9 657.6 1263.2 656.5C1262.5 656.2 1260.3 655.5 1259.5 655.4C1258.7 655.3 1256 654.5 1255.2 654.4C1250.9 653.4 1248.6 652.6 1245.3 650.5C1241.9 648.5 1240.3 645 1240.3 640C1240.3 632.2 1245.6 626.8 1251.5 624.9C1254.4 623.9 1257.5 623.5 1260.8 623.5C1269.2 623.5 1275.3 626.1 1279.1 631.3Z" fill="white"/>
<path d="M1359.3 600.5L1391.8 675.9H1376.5L1369.5 658.7H1336.8L1330 675.9H1315L1347.8 600.5H1359.3ZM1341.3 647.1H1364.7L1353.1 616.4L1341.3 647.1Z" fill="white"/>
<path d="M1434.7 631.3L1426.2 639C1423.6 635.5 1420.3 633.8 1416.2 633.8C1411.9 633.8 1408.7 635.9 1408.7 639.2C1408.6 643.2 1414.6 644.2 1420.8 645.6C1430.5 647.8 1436.2 651.3 1436.2 660.8C1436.2 671.1 1427.1 677.2 1414.1 677.2C1405.6 677.2 1399 674.5 1394.3 669.3L1402.8 661.3C1406.6 665.5 1410.7 667.6 1414.9 667.6C1419.7 667.6 1423.4 665.2 1423.4 661.7C1423.4 658.9 1421.4 657.6 1418.7 656.5C1418 656.2 1415.8 655.5 1415 655.4C1414.2 655.3 1411.5 654.5 1410.7 654.4C1406.4 653.4 1404.1 652.6 1400.8 650.5C1397.4 648.5 1395.8 645 1395.8 640C1395.8 632.2 1401.1 626.8 1407 624.9C1409.9 623.9 1413 623.5 1416.3 623.5C1424.8 623.5 1430.9 626.1 1434.7 631.3Z" fill="white"/>
<path d="M1482 631.3L1473.5 639C1470.9 635.5 1467.6 633.8 1463.5 633.8C1459.2 633.8 1456.1 635.9 1456.1 639.2C1456 643.2 1462 644.2 1468.2 645.6C1477.9 647.8 1483.6 651.3 1483.6 660.8C1483.6 671.1 1474.5 677.2 1461.5 677.2C1453 677.2 1446.4 674.5 1441.7 669.3L1450.2 661.3C1454 665.5 1458.1 667.6 1462.3 667.6C1467.1 667.6 1470.8 665.2 1470.8 661.7C1470.8 658.9 1468.8 657.6 1466.1 656.5C1465.4 656.2 1463.2 655.5 1462.4 655.4C1461.6 655.3 1458.9 654.5 1458.1 654.4C1453.8 653.4 1451.5 652.6 1448.2 650.5C1444.8 648.5 1443.2 645 1443.2 640C1443.2 632.2 1448.5 626.8 1454.4 624.9C1457.3 623.9 1460.4 623.5 1463.7 623.5C1472.1 623.5 1478.2 626.1 1482 631.3Z" fill="white"/>
<path d="M1538.7 631C1543.9 636 1546.6 642.5 1546.6 650.4C1546.6 658.3 1543.9 664.7 1538.7 669.7C1533.4 674.7 1526.8 677.3 1518.8 677.3C1510.8 677.3 1504.2 674.7 1499 669.7C1493.7 664.7 1491 658.3 1491 650.4C1491 642.6 1493.7 636.1 1499 631.1C1504.3 626.1 1510.9 623.5 1518.8 623.5C1526.7 623.5 1533.3 626 1538.7 631ZM1503.7 650.3C1503.7 654.7 1505.1 658.4 1508 661.3C1510.9 664.2 1514.4 665.7 1518.7 665.7C1523.1 665.7 1526.7 664.2 1529.6 661.2C1532.4 658.3 1533.8 654.7 1533.8 650.3C1533.8 645.9 1532.4 642.2 1529.5 639.3C1526.6 636.4 1523 634.9 1518.6 634.9C1514.3 634.9 1510.8 636.4 1508 639.3C1505.1 642.2 1503.7 646 1503.7 650.3Z" fill="white"/>
<path d="M1602.2 631.3L1593.4 640.1C1590.1 636.7 1586.9 635 1583.7 635C1579.2 635 1575.6 636.5 1572.8 639.5C1570 642.5 1568.7 646.1 1568.7 650.4C1568.7 659.2 1575.1 665.7 1583.7 665.7C1587.9 665.7 1591.2 664.1 1593.6 660.9L1602.1 670.1C1597.8 674.2 1590.2 677.2 1583.7 677.2C1575.7 677.2 1569.1 674.6 1563.9 669.6C1558.6 664.6 1555.9 658.2 1555.9 650.3C1555.9 642.7 1558.5 636.4 1563.7 631.1C1568.9 626 1575.5 623.4 1583.7 623.4C1591.4 623.5 1597.5 626.1 1602.2 631.3Z" fill="white"/>
<path d="M1624.6 607.4C1624.6 612 1621 615.1 1616.3 615.1C1611.7 615.1 1608.2 611.7 1608.2 607.4C1608.2 603.1 1611.7 599.7 1616.3 599.7C1620.9 599.8 1624.6 603.1 1624.6 607.4ZM1622.8 675.9H1610V624.8H1622.8V675.9Z" fill="white"/>
<path d="M1680.9 645.3V675.9H1669.4V668.9H1669.1C1665.6 674.4 1660.2 677.2 1652.7 677.2C1642 677.2 1634.1 671.1 1634.1 661.9C1634.1 650 1643.8 644.1 1665.5 644.1H1669.4V642.6C1669.4 636.6 1664.8 633.1 1657.7 633.1C1652.5 633.1 1648 634.9 1644.1 638.4L1637.4 631.7C1642.7 626.3 1650 623.5 1659.1 623.5C1675.2 623.5 1680.9 631.8 1680.9 645.3ZM1655.9 667.6C1664.3 667.6 1668.7 663 1668.7 656.2V653H1665C1653 653 1646.9 655.7 1646.9 660.9C1646.8 665 1650.8 667.6 1655.9 667.6Z" fill="white"/>
<path d="M1712 610V624.8H1726.1V635.7H1712V658.4C1712 663.7 1714.3 666.4 1719.1 666.4C1722.4 666.4 1724.6 665.9 1726 664.8V675.5C1723.7 676.7 1720.2 677.2 1715.9 677.2C1703.9 677.2 1699.2 672.4 1699.2 659.6V635.6H1688.7V624.7H1699.2V610H1712Z" fill="white"/>
<path d="M1750.8 607.4C1750.8 612 1747.2 615.1 1742.5 615.1C1737.9 615.1 1734.4 611.7 1734.4 607.4C1734.4 603.1 1737.9 599.7 1742.5 599.7C1747.2 599.8 1750.8 603.1 1750.8 607.4ZM1749 675.9H1736.2V624.8H1749V675.9Z" fill="white"/>
<path d="M1808.9 631C1814.1 636 1816.8 642.5 1816.8 650.4C1816.8 658.3 1814.1 664.7 1808.9 669.7C1803.6 674.7 1797 677.3 1789 677.3C1781 677.3 1774.4 674.7 1769.2 669.7C1763.9 664.7 1761.2 658.3 1761.2 650.4C1761.2 642.6 1763.9 636.1 1769.2 631.1C1774.5 626.1 1781.1 623.5 1789 623.5C1796.9 623.5 1803.5 626 1808.9 631ZM1773.9 650.3C1773.9 654.7 1775.3 658.4 1778.2 661.3C1781.1 664.2 1784.6 665.7 1788.9 665.7C1793.3 665.7 1796.9 664.2 1799.8 661.2C1802.6 658.3 1804 654.7 1804 650.3C1804 645.9 1802.6 642.2 1799.7 639.3C1796.8 636.4 1793.2 634.9 1788.8 634.9C1784.5 634.9 1781 636.4 1778.2 639.3C1775.3 642.2 1773.9 646 1773.9 650.3Z" fill="white"/>
<path d="M1875.3 643.2V675.9H1862.5V649.4C1862.5 639.8 1859.4 635 1853.1 635C1845.3 635 1841.4 640.4 1841.4 647.8V675.9H1828.6V624.8H1840.7V633H1840.9C1843.8 626.7 1849 623.5 1856.5 623.5C1872 623.5 1875.3 635.3 1875.3 643.2Z" fill="white"/>
</svg>
