<svg width="222" height="44" viewBox="0 0 222 44" fill="none" xmlns="http://www.w3.org/2000/svg">
<path d="M58.145 5.14181C59.8871 5.14181 62.1803 5.94174 62.1803 8.50153C62.1803 9.88809 61.3448 10.9547 59.8515 11.4346V11.4702C60.7048 11.5591 61.3981 11.9324 61.9492 12.5368C62.4824 13.1589 62.7491 13.8878 62.7491 14.7055C62.7491 17.212 60.7937 18.5274 57.7717 18.5274H52.8477V5.12402H58.145V5.14181ZM57.4873 10.5992C58.9272 10.5992 59.7982 9.95921 59.7982 8.9104C59.7982 7.75494 58.9627 7.18609 57.2918 7.18609H55.2297V10.5992H57.4873ZM57.5051 16.5009C59.4249 16.5009 60.3671 15.8432 60.3671 14.5277C60.3671 13.1767 59.5138 12.6434 57.6473 12.6434H55.2475V16.5009H57.5051Z" fill="#08A46D"/>
<path d="M68.7044 6.36877C68.7044 7.18649 68.0644 7.73756 67.229 7.73756C66.4112 7.73756 65.7891 7.13316 65.7891 6.36877C65.7891 5.60439 66.4112 5 67.229 5C68.0644 5.01778 68.7044 5.60439 68.7044 6.36877ZM68.3844 18.5456H66.109V9.46187H68.3844V18.5456Z" fill="#08A46D"/>
<path d="M77.9828 9.37268V11.5592C77.5562 11.4525 77.1829 11.3814 76.8807 11.3814C75.2808 11.3814 74.4453 12.4658 74.4453 13.799V18.5275H72.1699V9.46156H74.4453V10.9014H74.4809C74.9964 9.85264 75.9741 9.23047 77.1651 9.23047C77.3606 9.23047 77.6273 9.26602 77.9828 9.37268Z" fill="#08A46D"/>
<path d="M87.6708 9.46191V11.524L82.7467 16.7325H87.9019V18.5456H80.0625V16.448L84.9332 11.3107V11.2751H80.2936V9.46191H87.6708Z" fill="#08A46D"/>
<path d="M98.6392 10.5992C99.3858 11.5235 99.7414 12.6968 99.7414 14.1544V14.7944H92.8086C92.9686 16.0921 93.9463 16.9453 95.2439 16.9453C96.2039 16.9453 97.0216 16.5365 97.6793 15.7188L99.3147 16.9453C98.337 18.1541 97.0393 18.7585 95.475 18.7585C94.0529 18.7585 92.8797 18.2963 91.9553 17.4075C91.0132 16.5187 90.5332 15.381 90.5332 13.9767C90.5332 12.5723 91.0132 11.4169 91.9553 10.5281C92.8797 9.63923 94.0529 9.19482 95.475 9.19482C96.8616 9.23038 97.9104 9.69257 98.6392 10.5992ZM97.466 13.0879C97.4482 11.7013 96.5238 10.9369 95.1373 10.9369C93.8396 10.9369 92.9863 11.7902 92.8086 13.0879H97.466Z" fill="#08A46D"/>
<path d="M105.661 6.36877C105.661 7.18649 105.021 7.73756 104.186 7.73756C103.368 7.73756 102.746 7.13316 102.746 6.36877C102.746 5.60439 103.368 5 104.186 5C105.021 5.01778 105.661 5.60439 105.661 6.36877ZM105.341 18.5456H103.066V9.46187H105.341V18.5456Z" fill="#08A46D"/>
<path d="M112.22 6.83105V9.46196H114.726V11.3996H112.22V15.4348C112.22 16.377 112.629 16.8569 113.482 16.8569C114.069 16.8569 114.46 16.768 114.709 16.5725V18.4746C114.3 18.6879 113.678 18.7768 112.913 18.7768C110.78 18.7768 109.945 17.9235 109.945 15.6481V11.3818H108.078V9.46196H109.945V6.83105H112.22Z" fill="#08A46D"/>
<path d="M124.594 5.14209H126.976V13.6036C126.976 14.848 127.687 16.6079 129.98 16.6079C132.273 16.6079 132.984 14.848 132.984 13.6036V5.14209H135.366V13.7281C135.366 15.1502 134.886 16.359 133.927 17.3545C132.967 18.3677 131.651 18.8832 129.962 18.8832C128.274 18.8832 126.958 18.3677 126.016 17.3545C125.056 16.3234 124.576 15.1146 124.576 13.7281V5.14209H124.594Z" fill="#08A46D"/>
<path d="M147.597 12.7324V18.5453H145.321V13.8345C145.321 12.128 144.77 11.2748 143.65 11.2748C142.264 11.2748 141.57 12.2347 141.57 13.5501V18.5453H139.295V9.46156H141.446V10.9192H141.481C141.997 9.79931 142.921 9.23047 144.255 9.23047C147.01 9.23047 147.597 11.3281 147.597 12.7324Z" fill="#08A46D"/>
<path d="M153.978 6.36877C153.978 7.18649 153.338 7.73756 152.502 7.73756C151.685 7.73756 151.062 7.13316 151.062 6.36877C151.062 5.60439 151.685 5 152.502 5C153.338 5.01778 153.978 5.60439 153.978 6.36877ZM153.658 18.5456H151.382V9.46187H153.658V18.5456Z" fill="#08A46D"/>
<path d="M158.723 9.46191L161.141 15.8259H161.176L163.612 9.46191H165.94L162.367 18.5456H159.95L156.234 9.46191H158.723Z" fill="#08A46D"/>
<path d="M176.128 10.5992C176.874 11.5235 177.23 12.6968 177.23 14.1544V14.7944H170.297C170.457 16.0921 171.435 16.9453 172.732 16.9453C173.692 16.9453 174.51 16.5365 175.168 15.7188L176.803 16.9453C175.825 18.1541 174.528 18.7585 172.963 18.7585C171.541 18.7585 170.368 18.2963 169.444 17.4075C168.501 16.5187 168.021 15.381 168.021 13.9767C168.021 12.5723 168.501 11.4169 169.444 10.5281C170.368 9.63923 171.541 9.19482 172.963 9.19482C174.35 9.23038 175.381 9.69257 176.128 10.5992ZM174.954 13.0879C174.936 11.7013 174.012 10.9369 172.626 10.9369C171.328 10.9369 170.475 11.7902 170.297 13.0879H174.954Z" fill="#08A46D"/>
<path d="M186.348 9.37268V11.5592C185.921 11.4525 185.548 11.3814 185.246 11.3814C183.646 11.3814 182.811 12.4658 182.811 13.799V18.5275H180.535V9.46156H182.811V10.9014H182.846C183.362 9.85264 184.339 9.23047 185.53 9.23047C185.726 9.23047 185.993 9.26602 186.348 9.37268Z" fill="#08A46D"/>
<path d="M195.449 10.617L193.938 11.9858C193.476 11.3636 192.889 11.0614 192.16 11.0614C191.396 11.0614 190.845 11.4347 190.845 12.0214C190.827 12.7324 191.894 12.9102 192.996 13.159C194.72 13.5501 195.733 14.1901 195.733 15.8611C195.733 17.692 194.116 18.7764 191.805 18.7764C190.294 18.7764 189.121 18.2964 188.285 17.372L189.796 15.9499C190.472 16.6965 191.2 17.0698 191.947 17.0698C192.8 17.0698 193.458 16.6254 193.458 16.021C193.458 15.5233 193.103 15.2744 192.623 15.0967C192.498 15.0433 192.107 14.9189 191.965 14.9011C191.823 14.8834 191.343 14.7411 191.2 14.7234C190.436 14.5456 190.027 14.4034 189.441 14.0301C188.836 13.6746 188.552 13.0524 188.552 12.1636C188.552 10.777 189.494 9.81708 190.543 9.47933C191.058 9.30157 191.609 9.23047 192.196 9.23047C193.689 9.23047 194.774 9.69265 195.449 10.617Z" fill="#08A46D"/>
<path d="M201.316 6.36877C201.316 7.18649 200.676 7.73756 199.84 7.73756C199.023 7.73756 198.4 7.13316 198.4 6.36877C198.4 5.60439 199.023 5 199.84 5C200.676 5.01778 201.316 5.60439 201.316 6.36877ZM200.996 18.5456H198.72V9.46187H200.996V18.5456Z" fill="#08A46D"/>
<path d="M207.874 6.83105V9.46196H210.381V11.3996H207.874V15.4348C207.874 16.377 208.283 16.8569 209.136 16.8569C209.723 16.8569 210.114 16.768 210.363 16.5725V18.4746C209.954 18.6879 209.332 18.7768 208.568 18.7768C206.434 18.7768 205.599 17.9235 205.599 15.6481V11.3818H203.732V9.46196H205.599V6.83105H207.874Z" fill="#08A46D"/>
<path d="M212.123 9.46191H214.63L217.172 15.7725H217.207L219.482 9.46191H221.847L217.705 20.0922C217.278 21.1765 217.029 21.6743 216.496 22.2609C215.945 22.8475 215.216 23.0786 214.096 23.0786C213.51 23.0786 212.923 23.0075 212.354 22.8475L212.639 20.8032C213.047 20.9455 213.439 21.0343 213.794 21.0343C214.345 21.0343 214.736 20.9455 214.949 20.7499C215.163 20.5366 215.376 20.1633 215.625 19.5944L216.016 18.6167L212.123 9.46191Z" fill="#08A46D"/>
<path d="M61.5047 24.3052V26.4561H55.2297V29.9758H61.1314V32.1446H55.2297V37.7086H52.8477V24.3052H61.5047Z" fill="#231F20"/>
<path d="M69.309 28.5179V30.7044C68.8823 30.5977 68.509 30.5266 68.2068 30.5266C66.607 30.5266 65.7715 31.611 65.7715 32.9442V37.6727H63.4961V28.589H65.7715V30.0289H65.807C66.3225 28.9801 67.3002 28.3579 68.4913 28.3579C68.6868 28.3935 68.9534 28.429 69.309 28.5179Z" fill="#231F20"/>
<path d="M73.5032 25.5314C73.5032 26.3491 72.8633 26.9002 72.0278 26.9002C71.2101 26.9002 70.5879 26.2958 70.5879 25.5314C70.5879 24.767 71.2101 24.1626 72.0278 24.1626C72.8455 24.1804 73.5032 24.767 73.5032 25.5314ZM73.1833 37.7082H70.9079V28.6245H73.1833V37.7082Z" fill="#231F20"/>
<path d="M83.44 29.7622C84.1688 30.6866 84.5421 31.8599 84.5421 33.3175V33.9575H77.6093C77.7693 35.2551 78.747 36.1084 80.0447 36.1084C81.0046 36.1084 81.8224 35.6996 82.4801 34.8818L84.1155 36.1084C83.1378 37.3172 81.8401 37.9216 80.2758 37.9216C78.8537 37.9216 77.6805 37.4594 76.7561 36.5706C75.8139 35.6818 75.334 34.5441 75.334 33.1398C75.334 31.7354 75.8139 30.58 76.7561 29.6911C77.6805 28.8023 78.8537 28.3579 80.2758 28.3579C81.6446 28.3935 82.6934 28.8557 83.44 29.7622ZM82.2668 32.2509C82.249 30.8644 81.3246 30.1 79.9381 30.1C78.6404 30.1 77.7871 30.9533 77.6093 32.2509H82.2668Z" fill="#231F20"/>
<path d="M94.9422 31.8955V37.7084H92.6668V32.9976C92.6668 31.2911 92.1157 30.4378 90.9958 30.4378C89.6093 30.4378 88.916 31.3978 88.916 32.7132V37.7084H86.6406V28.6246H88.7916V30.0823H88.8271C89.3426 28.9624 90.267 28.3936 91.6002 28.3936C94.3556 28.3936 94.9422 30.4912 94.9422 31.8955Z" fill="#231F20"/>
<path d="M104.594 23.3984H106.869V37.7084H104.718V36.3396H104.683C104.043 37.4062 102.994 37.9217 101.536 37.9217C100.167 37.9217 99.1007 37.4595 98.283 36.5707C97.4653 35.6819 97.0742 34.5264 97.0742 33.1399C97.0742 31.8244 97.4653 30.6867 98.283 29.7446C99.1007 28.8202 100.15 28.358 101.465 28.358C102.78 28.358 103.811 28.8202 104.558 29.7446H104.611V23.3984H104.594ZM100.078 35.0953C100.576 35.6286 101.216 35.8952 101.998 35.8952C102.852 35.8952 103.491 35.6108 103.971 35.0597C104.451 34.5087 104.665 33.8687 104.665 33.1754C104.665 32.3577 104.398 31.7178 103.883 31.2023C103.367 30.6867 102.727 30.4379 101.998 30.4379C101.216 30.4379 100.576 30.7045 100.078 31.2378C99.5629 31.7711 99.3141 32.4111 99.3141 33.1754C99.3318 33.9398 99.5807 34.5798 100.078 35.0953Z" fill="#231F20"/>
<path d="M115.793 29.7801L114.282 31.1489C113.82 30.5267 113.233 30.2245 112.504 30.2245C111.74 30.2245 111.189 30.5978 111.189 31.1844C111.171 31.8955 112.238 32.0733 113.34 32.3221C115.064 32.7132 116.077 33.3354 116.077 35.0241C116.077 36.8551 114.46 37.9395 112.149 37.9395C110.638 37.9395 109.464 37.4595 108.629 36.5351L110.14 35.113C110.815 35.8596 111.544 36.2329 112.291 36.2329C113.144 36.2329 113.802 35.8063 113.802 35.1841C113.802 34.6864 113.446 34.4553 112.966 34.2598C112.842 34.2064 112.451 34.082 112.309 34.0642C112.166 34.0464 111.686 33.9042 111.544 33.8865C110.78 33.7087 110.371 33.5665 109.784 33.1932C109.18 32.8376 108.896 32.2155 108.896 31.3267C108.896 29.9401 109.838 28.9802 110.887 28.6424C111.402 28.4647 111.953 28.3936 112.54 28.3936C114.033 28.3936 115.117 28.8557 115.793 29.7801Z" fill="#231F20"/>
<path d="M130.051 24.3052L135.828 37.7086H133.108L131.864 34.651H126.051L124.842 37.7086H122.176L128.006 24.3052H130.051ZM126.851 32.589H131.011L128.949 27.1316L126.851 32.589Z" fill="#231F20"/>
<path d="M143.453 29.7801L141.942 31.1489C141.48 30.5267 140.893 30.2245 140.165 30.2245C139.4 30.2245 138.831 30.5978 138.831 31.1844C138.814 31.8955 139.88 32.0733 140.982 32.3221C142.707 32.7132 143.72 33.3354 143.72 35.0241C143.72 36.8551 142.102 37.9395 139.791 37.9395C138.28 37.9395 137.107 37.4595 136.271 36.5351L137.782 35.113C138.458 35.8596 139.187 36.2329 139.933 36.2329C140.787 36.2329 141.444 35.8063 141.444 35.1841C141.444 34.6864 141.089 34.4553 140.609 34.2598C140.484 34.2064 140.093 34.082 139.951 34.0642C139.809 34.0464 139.329 33.9042 139.187 33.8865C138.422 33.7087 138.014 33.5665 137.427 33.1932C136.823 32.8376 136.538 32.2155 136.538 31.3267C136.538 29.9401 137.48 28.9802 138.529 28.6424C139.045 28.4647 139.596 28.3936 140.182 28.3936C141.693 28.3936 142.778 28.8557 143.453 29.7801Z" fill="#231F20"/>
<path d="M151.861 29.7801L150.35 31.1489C149.888 30.5267 149.301 30.2245 148.573 30.2245C147.808 30.2245 147.257 30.5978 147.257 31.1844C147.239 31.8955 148.306 32.0733 149.408 32.3221C151.132 32.7132 152.146 33.3354 152.146 35.0241C152.146 36.8551 150.528 37.9395 148.217 37.9395C146.706 37.9395 145.533 37.4595 144.697 36.5351L146.208 35.113C146.884 35.8596 147.613 36.2329 148.359 36.2329C149.212 36.2329 149.87 35.8063 149.87 35.1841C149.87 34.6864 149.515 34.4553 149.035 34.2598C148.91 34.2064 148.519 34.082 148.377 34.0642C148.235 34.0464 147.755 33.9042 147.613 33.8865C146.848 33.7087 146.439 33.5665 145.853 33.1932C145.248 32.8376 144.964 32.2155 144.964 31.3267C144.964 29.9401 145.906 28.9802 146.955 28.6424C147.47 28.4647 148.021 28.3936 148.608 28.3936C150.101 28.3936 151.186 28.8557 151.861 29.7801Z" fill="#231F20"/>
<path d="M161.942 29.7268C162.867 30.6156 163.347 31.7711 163.347 33.1754C163.347 34.5797 162.867 35.7174 161.942 36.6062C161 37.4951 159.827 37.9572 158.405 37.9572C156.983 37.9572 155.809 37.4951 154.885 36.6062C153.943 35.7174 153.463 34.5797 153.463 33.1754C153.463 31.7888 153.943 30.6334 154.885 29.7446C155.827 28.8557 157 28.3936 158.405 28.3936C159.809 28.3936 160.982 28.838 161.942 29.7268ZM155.72 33.1576C155.72 33.9398 155.969 34.5975 156.485 35.113C157 35.6285 157.623 35.8952 158.387 35.8952C159.169 35.8952 159.809 35.6285 160.325 35.0953C160.822 34.5797 161.071 33.9398 161.071 33.1576C161.071 32.3755 160.822 31.7177 160.307 31.2022C159.791 30.6867 159.151 30.4201 158.369 30.4201C157.605 30.4201 156.983 30.6867 156.485 31.2022C155.969 31.7177 155.72 32.3932 155.72 33.1576Z" fill="#231F20"/>
<path d="M173.228 29.7803L171.664 31.3446C171.078 30.7402 170.509 30.438 169.94 30.438C169.14 30.438 168.5 30.7047 168.002 31.238C167.504 31.7713 167.273 32.4112 167.273 33.1756C167.273 34.7399 168.411 35.8954 169.94 35.8954C170.686 35.8954 171.273 35.611 171.7 35.0421L173.211 36.6775C172.446 37.4064 171.095 37.9397 169.94 37.9397C168.518 37.9397 167.345 37.4775 166.42 36.5887C165.478 35.6998 164.998 34.5621 164.998 33.1578C164.998 31.8068 165.46 30.6869 166.385 29.7447C167.309 28.8382 168.482 28.376 169.94 28.376C171.309 28.3938 172.393 28.8559 173.228 29.7803Z" fill="#231F20"/>
<path d="M177.21 25.5314C177.21 26.3491 176.57 26.9002 175.735 26.9002C174.917 26.9002 174.295 26.2958 174.295 25.5314C174.295 24.767 174.917 24.1626 175.735 24.1626C176.553 24.1804 177.21 24.767 177.21 25.5314ZM176.89 37.7082H174.615V28.6245H176.89V37.7082Z" fill="#231F20"/>
<path d="M187.22 32.2688V37.7084H185.175V36.464H185.122C184.5 37.4417 183.54 37.9395 182.207 37.9395C180.305 37.9395 178.9 36.8551 178.9 35.2197C178.9 33.1043 180.625 32.0555 184.482 32.0555H185.175V31.7888C185.175 30.7223 184.358 30.1001 183.096 30.1001C182.171 30.1001 181.371 30.4201 180.678 31.0422L179.487 29.8512C180.429 28.8913 181.727 28.3936 183.344 28.3936C186.206 28.3936 187.22 29.869 187.22 32.2688ZM182.776 36.2329C184.269 36.2329 185.051 35.4152 185.051 34.2064V33.6376H184.393C182.26 33.6376 181.176 34.1176 181.176 35.0419C181.158 35.7708 181.869 36.2329 182.776 36.2329Z" fill="#231F20"/>
<path d="M192.747 25.9937V28.6246H195.254V30.5622H192.747V34.5974C192.747 35.5396 193.156 36.0195 194.009 36.0195C194.596 36.0195 194.987 35.9306 195.236 35.7351V37.6372C194.827 37.8505 194.205 37.9394 193.441 37.9394C191.307 37.9394 190.472 37.0861 190.472 34.8107V30.5444H188.605V28.6068H190.472V25.9937H192.747Z" fill="#231F20"/>
<path d="M199.644 25.5314C199.644 26.3491 199.004 26.9002 198.168 26.9002C197.351 26.9002 196.729 26.2958 196.729 25.5314C196.729 24.767 197.351 24.1626 198.168 24.1626C199.004 24.1804 199.644 24.767 199.644 25.5314ZM199.324 37.7082H197.048V28.6245H199.324V37.7082Z" fill="#231F20"/>
<path d="M209.973 29.7268C210.898 30.6156 211.378 31.7711 211.378 33.1754C211.378 34.5797 210.898 35.7174 209.973 36.6062C209.031 37.4951 207.858 37.9572 206.436 37.9572C205.014 37.9572 203.841 37.4951 202.916 36.6062C201.974 35.7174 201.494 34.5797 201.494 33.1754C201.494 31.7888 201.974 30.6334 202.916 29.7446C203.858 28.8557 205.032 28.3936 206.436 28.3936C207.84 28.3936 209.014 28.838 209.973 29.7268ZM203.752 33.1576C203.752 33.9398 204.001 34.5975 204.516 35.113C205.032 35.6285 205.654 35.8952 206.418 35.8952C207.2 35.8952 207.84 35.6285 208.356 35.0953C208.854 34.5797 209.102 33.9398 209.102 33.1576C209.102 32.3755 208.854 31.7177 208.338 31.2022C207.823 30.6867 207.183 30.4201 206.4 30.4201C205.636 30.4201 205.014 30.6867 204.516 31.2022C204.001 31.7177 203.752 32.3932 203.752 33.1576Z" fill="#231F20"/>
<path d="M221.776 31.8955V37.7084H219.501V32.9976C219.501 31.2911 218.95 30.4378 217.83 30.4378C216.443 30.4378 215.75 31.3978 215.75 32.7132V37.7084H213.475V28.6246H215.626V30.0823H215.661C216.177 28.9624 217.101 28.3936 218.434 28.3936C221.19 28.3936 221.776 30.4912 221.776 31.8955Z" fill="#231F20"/>
<path d="M26.6367 18.5356H32.5791V24.478L36.7822 28.6821L32.5791 32.8853V38.8335H26.6367L22.4326 43.0366L18.2295 38.8335H12.2812V32.8853L8.07812 28.6821L12.2812 24.478V18.5356H18.2295L22.4326 14.3325L26.6367 18.5356ZM18.7139 19.7114H13.4629V24.9683L9.74414 28.6812L13.4629 32.3989V37.6509H18.7139L22.4326 41.3687L26.1445 37.6509H31.4023V32.3989L35.1143 28.6812L31.4023 24.9683V19.7114H26.1445L22.4326 15.9985L18.7139 19.7114Z" fill="#08A46D"/>
<path d="M12.5215 28.9765C12.7277 28.3744 13.419 28.2908 13.9152 28.0789L14.0211 27.9953V27.5995C14.311 27.2873 14.796 26.9919 15.1081 26.8915C15.2921 26.9975 15.6099 26.9975 15.7938 26.9975L16.0057 27.187V27.3933L16.1896 27.6051C16.1896 27.6887 16.106 27.7891 16.106 27.895L16.2956 28.0845H16.4795C16.6858 28.0845 17.0872 27.6887 17.2934 27.6887C17.0816 27.2929 16.4795 27.003 16.2956 26.6072C16.4015 26.3954 16.5854 26.1055 16.6914 25.9996C16.9812 25.9996 17.3993 26.2114 17.6892 26.1055C17.6892 25.916 17.5889 25.3139 17.483 25.1076C17.3994 25.1076 17.299 25.2135 17.1931 25.2135C16.9868 25.0296 16.6914 24.9237 16.4851 24.7341C16.591 24.6282 16.7973 24.6282 16.9032 24.6282C17.0927 24.5223 17.4885 24.4219 17.6948 24.2324C17.5945 24.1321 17.299 23.9202 17.1931 23.9202C17.1931 23.7307 17.299 23.6303 17.4049 23.5244C17.4885 23.5244 17.5945 23.4408 17.6948 23.4408C17.8843 23.4408 18.0906 23.5244 18.2802 23.5244L18.4864 23.7307C18.5923 23.7307 18.6927 23.5244 18.6927 23.4408C18.9826 23.4408 19.3616 23.4408 19.5679 23.6303C19.5679 23.7363 19.462 23.8199 19.462 23.9202C19.7742 24.2324 20.0696 24.7341 20.4654 24.5223C20.4654 24.0206 20.0696 23.7307 20.5714 23.229V22.8331C21.1567 22.521 21.8647 22.2311 22.45 22.1475C22.556 22.1475 22.6619 22.2311 22.7399 22.2311L23.0521 22.521H23.6374C23.6374 22.7272 23.3476 23.123 23.158 23.3349C22.9518 23.3349 22.6619 23.5244 22.556 23.5244C22.8458 24.0261 23.6374 23.3349 23.9329 23.045C24.2451 23.045 24.8472 22.7328 25.0367 22.5265C25.1426 22.6325 25.3266 22.7328 25.4325 22.8387C25.4325 23.1286 25.2262 23.4464 25.2262 23.7363C25.3266 23.8199 25.5384 23.9258 25.622 24.0261C26.0401 24.0261 26.5196 23.7363 26.9154 23.7363C27.1216 23.9258 27.1216 24.238 27.1216 24.4219C26.9154 24.5279 26.6199 24.6282 26.5196 24.7341C26.5196 25.1076 27.0213 25.3195 27.2276 25.5034C27.3335 25.5034 27.5174 25.3195 27.5174 25.3195V24.9237L27.7237 24.7341L28.493 25.1076V25.5034C28.493 25.5034 28.309 25.7153 28.309 25.8156C28.415 25.9996 28.415 26.3954 28.309 26.6072C28.493 26.7076 28.5989 26.7076 28.8108 26.5013C28.8108 26.2114 29.017 25.9996 29.017 25.7097L29.4128 25.3139C29.6024 25.3139 29.7919 25.4142 29.9982 25.4979C29.9982 26.2058 30.1877 26.6072 31.0016 26.6072C31.0016 26.7912 30.8957 26.8971 30.7898 27.003C30.2881 27.003 29.7919 27.1926 29.2066 27.1926C29.2066 27.1926 29.017 27.3988 29.017 27.5048C28.8108 27.5048 28.7048 27.6107 28.5989 27.6943C28.5989 27.8002 28.8108 28.0065 28.8108 28.0065C29.4128 28.0065 30.1041 27.6943 30.6002 28.1904V28.5862C30.4943 28.6922 30.2881 28.7925 30.1821 28.8761H29.7863C29.7027 28.982 29.4965 29.0657 29.4128 29.166C29.2066 29.0601 28.9111 28.7869 28.8108 28.6866C28.4986 28.6866 28.0192 28.6866 27.7293 28.7925L28.0192 29.0657H28.415C28.7104 29.3556 29.2066 29.5674 29.502 29.8796C29.7083 29.8796 30.1041 29.7737 30.394 29.7737C30.4999 29.8796 30.6058 29.9632 30.6058 30.1695C30.394 30.1695 29.8978 30.4593 29.7919 30.5653V30.9611L29.6024 31.145C29.4128 31.145 29.0226 31.251 28.8108 31.3513C28.4986 31.145 28.309 30.7492 28.0192 30.4593C27.8129 30.5653 27.7293 30.8551 27.5174 31.0614H27.1216C27.0157 30.9555 26.8317 30.6433 26.7258 30.5597C26.4359 30.5597 26.2241 30.8496 26.1405 31.0614C26.0346 31.0614 25.9342 31.145 25.8283 31.145C25.8283 31.251 25.7224 31.4572 25.7224 31.5631C25.4325 31.5631 25.2207 31.0614 24.9308 31.0614H24.7412C24.535 31.0614 24.3454 31.4572 24.0332 31.4572L23.8437 31.2454V30.8496C24.0332 30.7437 24.3454 30.5597 24.4514 30.2698C24.3454 30.2698 24.1392 30.1639 23.9329 30.1639C23.4535 30.6433 23.5594 31.4572 23.158 31.853V33.2244C23.8437 33.9324 24.4514 33.9324 25.2207 34.3282C24.535 34.6181 23.5538 34.3282 22.7399 34.5177C22.7399 34.5177 22.5504 34.3282 22.45 34.3282H22.0542C21.6584 34.5177 19.8689 34.5177 19.4731 34.3282C19.4731 34.016 19.9749 33.7261 20.0808 33.5143C20.287 33.5143 20.6661 33.2244 20.8724 33.1408C20.8724 32.3269 20.9783 30.8496 20.3707 30.2698L20.1867 30.4538V31.0558C20.1867 31.0558 19.9804 31.2454 19.8745 31.2454C19.685 31.0558 19.4787 30.9555 19.3728 30.7437C19.2892 30.8496 18.9937 31.1395 18.9937 31.2454V31.4572C18.9937 31.5631 18.7038 31.6412 18.5979 31.6412C18.492 31.4572 18.3916 31.1395 18.3916 30.9555C18.2857 30.8496 18.0962 30.7437 17.9958 30.6433C17.706 30.7492 17.4941 30.9555 17.4161 31.145C16.9144 31.251 16.3123 31.3513 15.7269 31.3513L15.5207 31.145V30.9611C15.5207 30.6489 16.4182 30.5653 16.6022 30.5653C16.6022 30.4593 16.7081 30.3534 16.7081 30.2754C16.9199 30.2754 16.998 30.1695 17.2098 30.1695L17.4216 29.9576C17.6112 29.9576 17.7952 29.874 17.9011 29.7681C17.7952 29.5618 17.4216 29.35 17.1095 29.35C17.1095 29.166 17.0035 28.9765 16.9199 28.8706C16.7137 28.8706 16.6077 28.9765 16.4182 28.9765L16.2064 29.166C16.0224 29.166 15.7269 29.2664 15.5207 29.2664C15.4148 29.35 15.1249 29.5618 14.913 29.5618C14.8127 29.6677 14.6231 29.7681 14.5172 29.874C14.3277 29.6677 13.9319 29.2664 13.7256 29.166C13.3131 29.2664 12.6274 29.4559 12.5215 28.9765ZM17.3994 28.3688L17.1875 28.1793H16.3123C16.3123 28.5751 16.6022 28.681 16.8976 28.7646C17.0872 28.7702 17.483 28.5807 17.3994 28.3688ZM18.7707 26.0999C18.8711 26.0999 19.0829 25.9104 19.0829 25.9104C19.0829 25.8045 18.8711 25.5982 18.8711 25.5982C18.5812 25.5982 18.2913 25.81 17.9958 25.81C17.9958 26.0999 18.1018 26.9975 18.1854 27.2873C18.1854 27.2873 18.3916 27.0811 18.4753 27.0811C18.4808 26.6853 18.7707 26.3898 18.7707 26.0999ZM20.17 28.1793C20.17 28.1793 20.3762 27.9953 20.3762 27.8894C20.17 27.7835 19.8745 27.6999 19.7965 27.4936C19.5902 27.4936 19.3784 27.5995 19.2948 27.5995C19.2948 27.8894 19.4787 27.8894 19.3784 28.1793C19.1944 28.0957 18.9826 28.0957 18.793 28.0957C18.8766 28.2629 19.0829 28.5751 19.1888 28.681C19.3728 28.681 19.4787 28.5751 19.5846 28.4747C19.7909 28.4747 20.0864 28.2685 20.17 28.1793ZM19.3784 29.0768L19.1944 28.8706C18.9826 28.8706 18.7763 28.9765 18.6927 28.9765L19.0885 29.3723C19.1888 29.3723 19.3784 29.166 19.3784 29.0768ZM18.6871 28.7869C18.5812 28.7869 18.4753 28.681 18.3749 28.681L18.2913 28.7869C18.2913 28.8706 18.3749 28.9765 18.3749 29.0768L18.6871 28.7869ZM20.3762 28.8706C20.5658 29.1827 20.5658 28.9765 20.8557 28.9765C20.8557 28.6866 20.7497 28.3911 20.7497 28.2072C20.5658 28.2852 20.3762 28.5807 20.3762 28.8706ZM21.9595 29.952C21.9595 30.1639 22.0431 30.3479 22.149 30.5597C22.2549 30.5597 22.4389 30.6433 22.5448 30.6433L23.3364 29.7681C23.3364 29.5785 23.1469 29.2887 23.1469 29.1883C22.9406 29.2942 22.8347 29.3779 22.7343 29.5841C22.5448 29.4782 22.4445 29.3779 22.4445 29.0824C22.6563 28.9765 22.6563 28.8761 22.6563 28.5807L22.3441 28.2908C22.149 28.7869 21.9595 29.3723 21.9595 29.952ZM21.7532 28.681C21.7532 28.5751 21.5637 28.3688 21.5637 28.3688C21.3741 28.4748 21.2738 28.5751 21.2738 28.8706L21.4633 29.0601C21.664 28.8706 21.7532 28.8706 21.7532 28.681ZM22.7511 25.81C22.7511 25.81 22.5615 25.5982 22.5615 25.4979C22.4556 25.4979 22.2493 25.6038 22.1657 25.6038C22.1657 25.7097 22.2493 25.8156 22.2493 25.8937C22.1657 25.8937 21.9539 26.0999 21.9539 26.0999C22.1657 26.1835 22.3497 26.0999 22.6619 26.0999C22.6674 25.994 22.7511 25.8937 22.7511 25.81ZM21.6473 25.1021L21.4633 24.9181C21.2738 25.024 21.2738 25.3139 21.3574 25.4979C21.5637 25.3919 21.7532 25.3083 21.6473 25.1021ZM23.1469 25.1021L22.9406 25.3139L23.1469 25.4979C23.3364 25.3139 23.7322 25.0184 23.5259 24.6226C23.2305 24.723 23.1469 24.8066 23.1469 25.1021ZM22.2549 24.723C22.2549 24.8066 22.4389 24.9125 22.5448 24.9125C22.5448 24.8066 22.6507 24.4108 22.6507 24.2268L22.5448 24.1265C22.333 24.0429 21.9595 24.2268 21.7532 24.2268C21.8591 24.4164 21.9595 24.4164 22.2549 24.4164V24.723ZM21.3574 26.3898C21.3574 26.3062 21.4633 26.0999 21.3574 26.0999C21.3574 26.0999 21.1678 26.2058 21.0675 26.2058C21.0619 26.3118 21.2738 26.3898 21.3574 26.3898ZM19.6683 26.0999C19.7742 26.0999 19.8578 25.994 19.9581 25.994C19.9581 25.81 19.8522 25.7041 19.7686 25.5982C19.6627 25.5982 19.4787 25.81 19.4787 25.81C19.4787 25.9104 19.6683 26.0999 19.6683 26.0999ZM19.3784 26.6017C19.3784 26.6017 19.5679 26.4121 19.5679 26.3118C19.5679 26.3118 19.3784 26.0999 19.3784 25.9996C19.1944 26.1055 19.0885 26.4177 19.0885 26.6072L19.3784 26.6017ZM20.17 27.5995C20.3762 27.3877 20.17 27.2037 19.9804 26.9919C19.8745 27.2037 20.0864 27.4936 20.17 27.5995ZM25.2318 30.3701C25.3154 30.3701 25.4158 30.2642 25.5217 30.2642C25.5217 30.058 25.7112 29.8684 25.8116 29.7625C25.7057 29.573 25.1259 29.4726 24.9363 29.573L24.8304 29.6789V30.0524C25.0423 30.1639 25.1259 30.1639 25.2318 30.3701ZM24.0444 29.4726C24.128 29.4726 24.3343 29.2831 24.4402 29.2831C24.4402 28.9709 24.3343 28.9709 24.128 28.8706C24.05 28.8706 23.8604 29.0768 23.7545 29.0768C23.7545 29.389 23.8549 29.4726 24.0444 29.4726ZM25.3377 28.3688C25.3377 28.3688 25.5217 28.5751 25.5217 28.681C25.7112 28.681 25.8116 28.5751 25.9175 28.4747C25.9175 28.2852 25.9175 27.9953 25.8116 27.7891C25.7057 27.7891 25.622 28.0009 25.622 28.0789C25.4158 27.8894 25.4158 27.7054 25.3322 27.4936C25.1203 27.5995 24.9363 27.7054 24.9363 27.9953C25.0423 28.0789 25.2318 28.1793 25.3377 28.3688ZM23.8326 28.1793C23.8326 28.0957 23.9162 27.9953 23.9162 27.8894L23.8326 27.7835C23.7489 27.7835 23.6486 27.8894 23.5427 27.8894L23.8326 28.1793ZM23.1469 26.6017C23.3364 26.6017 23.6263 26.4121 23.8158 26.4121C23.6263 26.2058 23.4423 26.3062 23.1469 26.3062V26.6017ZM26.3133 26.3118C26.2297 26.3954 26.2297 26.4957 26.2297 26.6017C26.6255 26.6017 27.2108 26.6016 27.5007 26.4957C27.3948 26.3118 27.3112 26.3118 26.999 26.3118C27.1049 26.3118 27.2053 26.2058 27.3112 26.2058C27.1049 25.9104 26.6255 26.0999 26.3133 26.3118ZM24.3343 25.1021C24.1447 25.3139 23.9608 25.3139 24.0444 25.7097C24.1447 25.6038 24.3343 25.4979 24.4402 25.3975C24.4402 25.3083 24.3343 25.2024 24.3343 25.1021ZM25.1259 25.4979C25.3099 25.4979 25.4158 25.6038 25.6053 25.4979C25.6053 25.4142 25.4158 25.1244 25.3154 25.1244H25.1259C24.9419 25.0184 25.0423 24.9181 24.7301 25.0184C24.7301 25.1244 24.836 25.3083 24.836 25.4142C24.9419 25.4142 25.0423 25.4979 25.1259 25.4979ZM26.4192 27.6831C26.5028 27.6831 26.7091 27.7668 26.7983 27.7668C26.7983 27.7668 27.0046 27.5995 27.1105 27.5995C27.2164 27.6831 27.4004 27.7668 27.6122 27.7668C27.8017 27.5995 27.7181 27.5995 27.7181 27.3877C27.5119 27.4936 27.4059 27.2818 27.3223 27.0978C27.1161 27.0978 26.9042 27.1814 26.7203 27.1814C26.5028 27.3933 26.3133 27.3933 26.4192 27.6831Z" fill="#08A46D"/>
<path d="M22.4325 11.3111L17.956 15.8043H12.2754V10.1237L22.4102 0.0222985C22.4102 0.0222985 22.4214 0.0111494 22.4325 0L22.4548 0.0222985L22.8506 0.412528L32.5896 10.1237V15.8043H26.909C26.909 15.8043 22.4548 11.3334 22.4325 11.3111ZM27.3996 14.628H31.4133V10.6142L22.4325 1.66126L13.4517 10.6142V14.628H17.4654L22.4325 9.64424L27.3996 14.628Z" fill="#08A46D"/>
<path d="M44.849 23.898C44.849 22.8444 44.5535 22.0361 43.9514 21.4284C42.4518 19.9121 40.9355 18.4125 39.4192 16.9129L38.845 16.3443C38.4715 15.9764 38.0032 15.8426 37.4848 15.9596C36.8716 16.099 36.4981 16.5506 36.5427 17.108C36.5538 17.253 36.5761 17.3868 36.6096 17.515C36.8716 18.4794 37.2897 19.2822 37.8917 19.9734C38.4436 20.6089 38.99 21.2445 39.5419 21.88L40.0324 22.4486C40.2387 22.6883 40.4115 22.9113 40.3948 23.2068L40.3892 23.374C40.3836 23.4576 40.3836 23.5357 40.3781 23.6137C39.9209 23.1287 39.3802 22.7887 38.6778 22.5266C38.6165 22.5043 38.4436 22.4375 38.2931 22.5434C38.1482 22.6437 38.1482 22.8221 38.1482 22.9002C38.1482 24.1433 38.1482 25.392 38.1482 26.6352V29.1271C38.1482 30.2755 38.5663 31.2176 39.3858 31.92L39.4861 32.0036C39.8429 32.3047 40.0547 32.4998 39.9711 32.8231C39.8931 33.1297 39.8039 33.4586 39.6868 33.7931L38.8506 36.1958C38.7893 36.3686 38.7224 36.547 38.6833 36.7366C38.6387 36.954 38.6443 37.1602 38.6499 37.3609V37.4278C38.6666 38.1414 39.2854 38.7992 39.9544 38.8048C40.707 38.8104 41.4651 38.8159 42.2177 38.8159C42.6971 38.8159 43.1766 38.8159 43.656 38.8104C44.1075 38.8104 44.4699 38.5818 44.6762 38.1693C44.8378 37.8459 44.8378 37.5115 44.8378 37.1881L44.849 23.898ZM43.8622 37.6508C43.8288 37.779 43.7619 37.8459 43.6225 37.8459C42.4407 37.8459 41.2589 37.8459 40.077 37.8404C39.8262 37.8404 39.631 37.6452 39.6255 37.3888C39.6199 37.1825 39.6143 36.9763 39.6533 36.7756C39.6924 36.5693 39.7816 36.3686 39.8485 36.1735C39.9934 35.761 40.1383 35.354 40.2777 34.9415C40.4115 34.5569 40.5453 34.1778 40.6791 33.7931C40.7348 33.6315 40.8185 33.4586 40.8575 33.2858C40.8909 33.1353 40.9188 32.9904 40.9522 32.8398C41.0414 32.4496 40.8798 32.1263 40.6568 31.8308C40.484 31.5967 40.2721 31.4072 40.0547 31.2176C39.4025 30.6657 39.107 29.9633 39.107 29.1104C39.1126 27.4101 39.107 25.7098 39.107 24.0095V23.7865C39.7481 24.2214 40.1941 24.7398 40.2108 25.5147C40.2275 26.3397 40.2164 27.1648 40.2108 27.9843C40.2108 28.1404 40.2443 28.1905 40.4059 28.1905C40.9021 28.185 40.9077 28.1905 40.9077 27.6888C40.9077 26.7133 40.9244 25.7321 41.0191 24.7621C41.0303 24.645 41.0693 24.5447 41.1195 24.4388C41.3258 24.0374 41.3481 23.597 41.3481 23.151C41.3481 22.705 41.1808 22.326 40.9021 21.9803C40.1606 21.0549 39.3467 20.1853 38.583 19.2822C38.0646 18.669 37.7356 17.9665 37.5294 17.2028C37.4681 16.9798 37.5573 16.8739 37.7914 16.8627C37.9531 16.8572 38.0813 16.9296 38.1983 17.0411C39.0457 17.8829 39.8931 18.7247 40.7404 19.5609C41.571 20.386 42.4017 21.2054 43.2212 22.0361C43.7006 22.5211 43.8567 23.1399 43.8845 23.8033C43.8901 23.9426 43.8901 24.082 43.8901 24.2269C43.8901 28.5529 43.8901 32.8789 43.8901 37.2048C43.8957 37.3609 43.9013 37.5059 43.8622 37.6508Z" fill="#08A46D"/>
<path d="M0.0111493 37.183C0.0111493 37.5007 0.0111494 37.8408 0.172816 38.1641C0.37908 38.5766 0.741435 38.8052 1.19299 38.8052C1.67241 38.8052 2.15184 38.8108 2.63126 38.8108C3.38385 38.8108 4.142 38.8052 4.89459 38.7996C5.55798 38.794 6.18235 38.1362 6.19907 37.4227V37.3558C6.20464 37.1551 6.21022 36.9488 6.16562 36.7314C6.1266 36.5419 6.0597 36.3635 5.99838 36.1907L5.16218 33.788C5.04511 33.4535 4.95591 33.1246 4.87787 32.818C4.79424 32.4946 5.01166 32.2995 5.36286 31.9985L5.46321 31.9093C6.28269 31.2013 6.70079 30.2647 6.70079 29.1164V26.6245C6.70079 25.3757 6.70079 24.1326 6.70079 22.8894C6.70079 22.8114 6.70079 22.6385 6.55585 22.5326C6.40533 22.4267 6.23809 22.4936 6.1712 22.5159C5.46878 22.7779 4.92804 23.1235 4.47091 23.603C4.46534 23.5249 4.45976 23.4469 4.45976 23.3633L4.45419 23.196C4.43746 22.9061 4.61028 22.6831 4.81654 22.4379L5.30712 21.8692C5.85344 21.2337 6.40533 20.5982 6.95723 19.9627C7.5593 19.2714 7.9774 18.4687 8.23941 17.5042C8.27286 17.376 8.29516 17.2367 8.30631 17.0973C8.35091 16.5398 7.9774 16.0938 7.36418 15.9489C6.84574 15.8318 6.37746 15.9656 6.00396 16.3336L5.42976 16.9022C3.91344 18.4018 2.39712 19.9014 0.897527 21.4177C0.295459 22.0309 0 22.8392 0 23.8873L0.0111493 37.183ZM0.969998 37.2108C0.969998 32.8849 0.969998 28.5589 0.969998 24.2329C0.969998 24.0935 0.969998 23.9542 0.969998 23.8092C0.992297 23.1458 1.14839 22.5271 1.63339 22.0421C2.45287 21.2114 3.28908 20.3919 4.11413 19.5725C4.96149 18.7307 5.80884 17.8945 6.6562 17.0527C6.77326 16.9412 6.90148 16.8687 7.06315 16.8743C7.29729 16.8799 7.38648 16.9858 7.32516 17.2144C7.1189 17.9837 6.78999 18.6805 6.27154 19.2937C5.50223 20.1968 4.6939 21.0665 3.95246 21.9919C3.67373 22.3375 3.50649 22.7166 3.50649 23.1626C3.50649 23.6085 3.52879 24.0434 3.73505 24.4503C3.7908 24.5562 3.82425 24.6566 3.8354 24.7737C3.93017 25.7492 3.94689 26.7248 3.94689 27.7004C3.94689 28.2021 3.94689 28.191 4.44861 28.2021C4.61585 28.2021 4.6493 28.1519 4.64373 27.9958C4.63815 27.1708 4.627 26.3457 4.64373 25.5262C4.66045 24.7514 5.10643 24.2329 5.74752 23.7981V24.0211C5.74752 25.7214 5.74194 27.4216 5.74752 29.1219C5.75309 29.9693 5.45206 30.6773 4.79982 31.2292C4.58241 31.4131 4.36499 31.6082 4.19775 31.8424C3.97476 32.1434 3.81867 32.4612 3.90229 32.8514C3.93574 33.0019 3.96919 33.1469 3.99706 33.2974C4.03609 33.4646 4.11971 33.6374 4.17545 33.8047C4.30925 34.1893 4.44304 34.5684 4.57683 34.9531C4.72177 35.3656 4.86672 35.7726 5.00608 36.1851C5.07298 36.3858 5.16218 36.5809 5.2012 36.7871C5.24022 36.9878 5.23465 37.1941 5.22907 37.4004C5.2235 37.6568 5.02838 37.8519 4.77752 37.8519C3.59568 37.8575 2.41385 37.8519 1.23201 37.8575C1.09264 37.8575 1.02017 37.7906 0.992297 37.6624C0.964424 37.5063 0.969998 37.3613 0.969998 37.2108Z" fill="#08A46D"/>
</svg>
