<svg width="169" height="209" viewBox="0 0 169 209" fill="none" xmlns="http://www.w3.org/2000/svg">
<path d="M100.371 69.8457H122.765V92.2393L138.604 108.079L122.765 123.918V146.333H100.371L84.5322 162.172L68.6924 146.333H46.2783V123.918L30.4385 108.079L46.2783 92.2393V69.8457H68.6924L84.5322 54.0068L100.371 69.8457ZM70.5186 74.2793H50.7305V94.0889L36.7188 108.08L50.7305 122.092V141.88H70.5186L84.5303 155.892L98.5215 141.88H118.331V122.092L132.321 108.08L118.331 94.0889V74.2793H98.5215L84.5303 60.2891L70.5186 74.2793Z" fill="#08A46D"/>
<path d="M47.1826 109.191C47.9599 106.922 50.5648 106.607 52.4344 105.809L52.8335 105.493V104.002C53.9259 102.826 55.7535 101.712 56.9299 101.334C57.6231 101.733 58.8205 101.733 59.5138 101.733L60.312 102.447V103.225L61.0053 104.023C61.0053 104.338 60.6902 104.716 60.6902 105.115L61.4044 105.83H62.0976C62.8749 105.83 64.3874 104.338 65.1647 104.338C64.3664 102.847 62.0976 101.754 61.4044 100.263C61.8035 99.4644 62.4968 98.3721 62.8959 97.9729C63.9883 97.9729 65.5638 98.7712 66.6562 98.3721C66.6562 97.6578 66.2781 95.3891 65.8789 94.6118C65.5638 94.6118 65.1857 95.0109 64.7865 95.0109C64.0093 94.3177 62.8959 93.9186 62.1186 93.2043C62.5178 92.8052 63.295 92.8052 63.6942 92.8052C64.4084 92.406 65.8999 92.0279 66.6772 91.3137C66.2991 90.9356 65.1857 90.1373 64.7865 90.1373C64.7865 89.423 65.1857 89.0449 65.5848 88.6458C65.8999 88.6458 66.2991 88.3307 66.6772 88.3307C67.3914 88.3307 68.1687 88.6458 68.8829 88.6458L69.6602 89.423C70.0593 89.423 70.4374 88.6458 70.4374 88.3307C71.5298 88.3307 72.9583 88.3307 73.7356 89.0449C73.7356 89.4441 73.3364 89.7592 73.3364 90.1373C74.5128 91.3137 75.6262 93.2043 77.1177 92.4061C77.1177 90.5154 75.6262 89.423 77.5168 87.5324V86.0409C79.7226 84.8645 82.3905 83.7721 84.5962 83.457C84.9954 83.457 85.3945 83.7721 85.6886 83.7721L86.865 84.8645H89.0707C89.0707 85.6418 87.9784 87.1333 87.2641 87.9315C86.4869 87.9315 85.3945 88.6458 84.9954 88.6458C86.0877 90.5364 89.0707 87.9315 90.1841 86.8392C91.3605 86.8392 93.6293 85.6628 94.3435 84.8855C94.7426 85.2846 95.4359 85.6628 95.835 86.0619C95.835 87.1543 95.0577 88.3517 95.0577 89.444C95.4359 89.7592 96.2341 90.1583 96.5492 90.5364C98.1248 90.5364 99.9314 89.444 101.423 89.444C102.2 90.1583 102.2 91.3347 102.2 92.0279C101.423 92.4271 100.31 92.8052 99.9314 93.2043C99.9314 94.6118 101.822 95.4101 102.599 96.1033C102.998 96.1033 103.692 95.4101 103.692 95.4101V93.9186L104.469 93.2043L107.368 94.6118V96.1033C107.368 96.1033 106.675 96.9016 106.675 97.2797C107.074 97.9729 107.074 99.4644 106.675 100.263C107.368 100.641 107.767 100.641 108.565 99.8636C108.565 98.7712 109.343 97.9729 109.343 96.8806L110.834 95.389C111.548 95.389 112.263 95.7672 113.04 96.0823C113.04 98.7502 113.754 100.263 116.821 100.263C116.821 100.956 116.422 101.355 116.023 101.754C114.132 101.754 112.263 102.468 110.057 102.468C110.057 102.468 109.343 103.246 109.343 103.645C108.565 103.645 108.166 104.044 107.767 104.359C107.767 104.758 108.565 105.535 108.565 105.535C110.834 105.535 113.439 104.359 115.309 106.229V107.72C114.909 108.119 114.132 108.497 113.733 108.813H112.242C111.926 109.212 111.149 109.527 110.834 109.905C110.057 109.506 108.943 108.476 108.565 108.098C107.389 108.098 105.582 108.098 104.49 108.497L105.582 109.527H107.074C108.187 110.619 110.057 111.417 111.17 112.594C111.947 112.594 113.439 112.195 114.531 112.195C114.93 112.594 115.33 112.909 115.33 113.686C114.531 113.686 112.662 114.779 112.263 115.178V116.669L111.548 117.362C110.834 117.362 109.364 117.762 108.565 118.14C107.389 117.362 106.675 115.871 105.582 114.779C104.805 115.178 104.49 116.27 103.692 117.047H102.2C101.801 116.648 101.108 115.472 100.709 115.157C99.6163 115.157 98.818 116.249 98.5029 117.047C98.1038 117.047 97.7256 117.362 97.3265 117.362C97.3265 117.762 96.9274 118.539 96.9274 118.938C95.835 118.938 95.0367 117.047 93.9444 117.047H93.2301C92.4529 117.047 91.7386 118.539 90.5622 118.539L89.848 117.741V116.249C90.5622 115.85 91.7386 115.157 92.1378 114.064C91.7386 114.064 90.9614 113.665 90.1841 113.665C88.3775 115.472 88.7766 118.539 87.2641 120.03V125.198C89.848 127.866 92.1378 127.866 95.0367 129.357C92.4529 130.45 88.7556 129.357 85.6886 130.072C85.6886 130.072 84.9743 129.357 84.5962 129.357H83.1047C81.6132 130.072 74.8699 130.072 73.3784 129.357C73.3784 128.181 75.2691 127.089 75.6682 126.29C76.4455 126.29 77.874 125.198 78.6512 124.883C78.6512 121.816 79.0504 116.249 76.7606 114.064L76.0673 114.758V117.026C76.0673 117.026 75.2901 117.741 74.891 117.741C74.1767 117.026 73.3994 116.648 73.0003 115.85C72.6852 116.249 71.5718 117.341 71.5718 117.741V118.539C71.5718 118.938 70.4795 119.232 70.0803 119.232C69.6812 118.539 69.3031 117.341 69.3031 116.648C68.9039 116.249 68.1897 115.85 67.8116 115.472C66.7192 115.871 65.9209 116.648 65.6268 117.362C63.7362 117.762 61.4674 118.14 59.2617 118.14L58.4844 117.362V116.669C58.4844 115.493 61.8666 115.178 62.5598 115.178C62.5598 114.779 62.9589 114.379 62.9589 114.085C63.7572 114.085 64.0513 113.686 64.8496 113.686L65.6478 112.888C66.3621 112.888 67.0553 112.573 67.4544 112.174C67.0553 111.396 65.6478 110.598 64.4714 110.598C64.4714 109.905 64.0723 109.191 63.7572 108.792C62.9799 108.792 62.5808 109.191 61.8666 109.191L61.0683 109.905C60.3751 109.905 59.2617 110.283 58.4844 110.283C58.0853 110.598 56.9929 111.396 56.1947 111.396C55.8165 111.796 55.1023 112.174 54.7032 112.573C53.9889 111.796 52.4974 110.283 51.7201 109.905C50.1656 110.283 47.5818 110.997 47.1826 109.191ZM65.5638 106.901L64.7655 106.187H61.4674C61.4674 107.678 62.5598 108.077 63.6732 108.392C64.3874 108.413 65.8789 107.699 65.5638 106.901ZM70.7315 98.3511C71.1097 98.3511 71.9079 97.6368 71.9079 97.6368C71.9079 97.2377 71.1097 96.4604 71.1097 96.4604C70.0173 96.4604 68.9249 97.2587 67.8116 97.2587C67.8116 98.3511 68.2107 101.733 68.5258 102.826C68.5258 102.826 69.3031 102.048 69.6182 102.048C69.6392 100.557 70.7315 99.4434 70.7315 98.3511ZM76.0043 106.187C76.0043 106.187 76.7816 105.493 76.7816 105.094C76.0043 104.695 74.891 104.38 74.5969 103.603C73.8196 103.603 73.0213 104.002 72.7062 104.002C72.7062 105.094 73.3995 105.094 73.0213 106.187C72.3281 105.872 71.5298 105.872 70.8156 105.872C71.1307 106.502 71.9079 107.678 72.3071 108.077C73.0003 108.077 73.3994 107.678 73.7986 107.3C74.5758 107.3 75.6892 106.523 76.0043 106.187ZM73.0213 109.569L72.3281 108.792C71.5298 108.792 70.7526 109.191 70.4374 109.191L71.929 110.682C72.3071 110.682 73.0213 109.905 73.0213 109.569ZM70.4164 108.476C70.0173 108.476 69.6182 108.077 69.2401 108.077L68.9249 108.476C68.9249 108.792 69.2401 109.191 69.2401 109.569L70.4164 108.476ZM76.7816 108.792C77.4958 109.968 77.4958 109.191 78.5882 109.191C78.5882 108.098 78.1891 106.985 78.1891 106.292C77.4958 106.586 76.7816 107.699 76.7816 108.792ZM82.7476 112.867C82.7476 113.665 83.0627 114.358 83.4618 115.157C83.861 115.157 84.5542 115.472 84.9533 115.472L87.9363 112.174C87.9363 111.459 87.2221 110.367 87.2221 109.989C86.4448 110.388 86.0457 110.703 85.6676 111.48C84.9533 111.081 84.5752 110.703 84.5752 109.59C85.3735 109.191 85.3735 108.813 85.3735 107.699L84.1971 106.607C83.4618 108.476 82.7476 110.682 82.7476 112.867ZM81.9703 108.077C81.9703 107.678 81.2561 106.901 81.2561 106.901C80.5419 107.3 80.1637 107.678 80.1637 108.792L80.878 109.506C81.6342 108.792 81.9703 108.792 81.9703 108.077ZM85.7306 97.2587C85.7306 97.2587 85.0164 96.4604 85.0164 96.0823C84.6172 96.0823 83.84 96.4814 83.5249 96.4814C83.5249 96.8806 83.84 97.2797 83.84 97.5738C83.5249 97.5738 82.7266 98.3511 82.7266 98.3511C83.5249 98.6662 84.2181 98.3511 85.3945 98.3511C85.4155 97.9519 85.7306 97.5738 85.7306 97.2587ZM81.5712 94.5908L80.878 93.8976C80.1637 94.2967 80.1637 95.3891 80.4788 96.0823C81.2561 95.6832 81.9703 95.368 81.5712 94.5908ZM87.2221 94.5908L86.4448 95.389L87.2221 96.0823C87.9363 95.3891 89.4278 94.2757 88.6506 92.7842C87.5372 93.1623 87.2221 93.4774 87.2221 94.5908ZM83.861 93.1623C83.861 93.4774 84.5542 93.8765 84.9533 93.8765C84.9533 93.4774 85.3525 91.9859 85.3525 91.2927L84.9533 90.9145C84.1551 90.5994 82.7476 91.2927 81.9703 91.2927C82.3695 92.0069 82.7476 92.0069 83.861 92.0069V93.1623ZM80.4788 99.4434C80.4788 99.1283 80.878 98.3511 80.4788 98.3511C80.4788 98.3511 79.7646 98.7502 79.3865 98.7502C79.3655 99.1493 80.1637 99.4434 80.4788 99.4434ZM74.1137 98.3511C74.5128 98.3511 74.8279 97.9519 75.2061 97.9519C75.2061 97.2587 74.8069 96.8596 74.4918 96.4604C74.0927 96.4604 73.3994 97.2587 73.3994 97.2587C73.3994 97.6368 74.1137 98.3511 74.1137 98.3511ZM73.0213 100.242C73.0213 100.242 73.7356 99.5274 73.7356 99.1493C73.7356 99.1493 73.0213 98.3511 73.0213 97.9729C72.3281 98.3721 71.929 99.5485 71.929 100.263L73.0213 100.242ZM76.0043 104.002C76.7816 103.204 76.0043 102.51 75.2901 101.712C74.891 102.51 75.6892 103.603 76.0043 104.002ZM95.0788 114.442C95.3939 114.442 95.772 114.043 96.1711 114.043C96.1711 113.266 96.8854 112.552 97.2635 112.153C96.8644 111.438 94.6796 111.06 93.9654 111.438L93.5662 111.838V113.245C94.3645 113.665 94.6796 113.665 95.0788 114.442ZM90.6042 111.06C90.9193 111.06 91.6966 110.346 92.0957 110.346C92.0957 109.17 91.6966 109.17 90.9193 108.792C90.6252 108.792 89.911 109.569 89.5119 109.569C89.5119 110.745 89.89 111.06 90.6042 111.06ZM95.4779 106.901C95.4779 106.901 96.1711 107.678 96.1711 108.077C96.8854 108.077 97.2635 107.678 97.6626 107.3C97.6626 106.586 97.6626 105.493 97.2635 104.716C96.8644 104.716 96.5492 105.514 96.5492 105.809C95.772 105.094 95.772 104.401 95.4569 103.603C94.6586 104.002 93.9654 104.401 93.9654 105.493C94.3645 105.809 95.0788 106.187 95.4779 106.901ZM89.806 106.187C89.806 105.872 90.1211 105.493 90.1211 105.094L89.806 104.695C89.4909 104.695 89.1127 105.094 88.7136 105.094L89.806 106.187ZM87.2221 100.242C87.9363 100.242 89.0287 99.5274 89.743 99.5274C89.0287 98.7502 88.3355 99.1283 87.2221 99.1283V100.242ZM99.1541 99.1493C98.839 99.4644 98.839 99.8426 98.839 100.242C100.331 100.242 102.536 100.242 103.629 99.8426C103.229 99.1493 102.914 99.1493 101.738 99.1493C102.137 99.1493 102.515 98.7502 102.914 98.7502C102.137 97.6368 100.331 98.3511 99.1541 99.1493ZM91.6966 94.5908C90.9824 95.3891 90.2891 95.3891 90.6042 96.8806C90.9824 96.4814 91.6966 96.0823 92.0957 95.7042C92.0957 95.368 91.6966 94.9689 91.6966 94.5908ZM94.6796 96.0823C95.3728 96.0823 95.772 96.4814 96.4862 96.0823C96.4862 95.7672 95.772 94.6748 95.3939 94.6748H94.6796C93.9864 94.2757 94.3645 93.8975 93.1881 94.2757C93.1881 94.6748 93.5872 95.3681 93.5872 95.7672C93.9864 95.7672 94.3645 96.0823 94.6796 96.0823ZM99.5533 104.317C99.8684 104.317 100.646 104.632 100.982 104.632C100.982 104.632 101.759 104.002 102.158 104.002C102.557 104.317 103.251 104.632 104.049 104.632C104.763 104.002 104.448 104.002 104.448 103.204C103.671 103.603 103.272 102.805 102.956 102.111C102.179 102.111 101.381 102.426 100.688 102.426C99.8684 103.225 99.1541 103.225 99.5533 104.317Z" fill="#08A46D"/>
<path d="M84.5322 42.6234L67.6635 59.5551H46.2573V38.1489L84.4482 0.084027C84.4482 0.084027 84.4902 0.0420142 84.5322 0L84.6162 0.084027L86.1077 1.55452L122.807 38.1489V59.5551H101.401C101.401 59.5551 84.6162 42.7074 84.5322 42.6234ZM103.25 55.1226H118.375V39.9975L84.5322 6.26011L50.6898 39.9975V55.1226H65.8149L84.5322 36.3422L103.25 55.1226Z" fill="#08A46D"/>
<path d="M169 90.0566C169 86.0863 167.887 83.0402 165.618 80.7505C159.967 75.0365 154.253 69.3856 148.539 63.7347L146.376 61.592C144.968 60.2055 143.203 59.7014 141.25 60.1425C138.939 60.6677 137.532 62.3693 137.7 64.47C137.742 65.0162 137.826 65.5203 137.952 66.0035C138.939 69.6377 140.515 72.6627 142.783 75.2676C144.863 77.6624 146.922 80.0572 149.001 82.452L150.85 84.5948C151.627 85.4981 152.278 86.3383 152.215 87.4517L152.194 88.0819C152.173 88.397 152.173 88.6911 152.152 88.9852C150.43 87.1576 148.392 85.8762 145.745 84.8889C145.514 84.8048 144.863 84.5527 144.296 84.9519C143.75 85.33 143.75 86.0022 143.75 86.2963C143.75 90.9809 143.75 95.6865 143.75 100.371V109.761C143.75 114.089 145.325 117.639 148.413 120.286L148.791 120.601C150.136 121.735 150.934 122.471 150.619 123.689C150.325 124.844 149.989 126.084 149.548 127.344L146.397 136.398C146.165 137.049 145.913 137.722 145.766 138.436C145.598 139.255 145.619 140.032 145.64 140.789V141.041C145.703 143.73 148.035 146.209 150.556 146.23C153.392 146.251 156.249 146.272 159.085 146.272C160.891 146.272 162.698 146.272 164.505 146.251C166.206 146.251 167.572 145.389 168.349 143.835C168.958 142.616 168.958 141.356 168.958 140.137L169 90.0566ZM165.282 141.881C165.156 142.364 164.904 142.616 164.379 142.616C159.925 142.616 155.472 142.616 151.018 142.595C150.073 142.595 149.338 141.86 149.317 140.894C149.295 140.116 149.274 139.339 149.422 138.583C149.569 137.806 149.905 137.049 150.157 136.314C150.703 134.76 151.249 133.226 151.774 131.672C152.278 130.222 152.783 128.794 153.287 127.344C153.497 126.735 153.812 126.084 153.959 125.433C154.085 124.865 154.19 124.319 154.316 123.752C154.652 122.281 154.043 121.063 153.203 119.95C152.552 119.067 151.753 118.353 150.934 117.639C148.476 115.559 147.363 112.912 147.363 109.698C147.384 103.291 147.363 96.8839 147.363 90.4767V89.6365C149.779 91.275 151.459 93.2287 151.522 96.1487C151.585 99.2577 151.543 102.367 151.522 105.455C151.522 106.043 151.648 106.232 152.257 106.232C154.127 106.211 154.148 106.232 154.148 104.341C154.148 100.665 154.211 96.9679 154.568 93.3127C154.61 92.8715 154.757 92.4934 154.946 92.0943C155.724 90.5818 155.808 88.9222 155.808 87.2416C155.808 85.5611 155.177 84.1326 154.127 82.8302C151.333 79.343 148.266 76.0659 145.388 72.6627C143.435 70.352 142.195 67.7051 141.418 64.8271C141.187 63.9868 141.523 63.5877 142.405 63.5457C143.014 63.5247 143.498 63.7978 143.939 64.2179C147.132 67.39 150.325 70.562 153.518 73.7131C156.648 76.8221 159.778 79.9102 162.866 83.0402C164.673 84.8678 165.261 87.1996 165.366 89.6995C165.387 90.2247 165.387 90.7498 165.387 91.296C165.387 107.597 165.387 123.899 165.387 140.2C165.408 140.789 165.429 141.335 165.282 141.881Z" fill="#08A46D"/>
<path d="M0.0420139 140.118C0.0420139 141.316 0.0420142 142.597 0.651219 143.816C1.42848 145.37 2.79394 146.231 4.49551 146.231C6.30212 146.231 8.10873 146.253 9.91534 146.253C12.7513 146.253 15.6083 146.232 18.4442 146.21C20.9441 146.189 23.2968 143.711 23.3599 141.022V140.77C23.3809 140.013 23.4019 139.236 23.2338 138.417C23.0868 137.703 22.8347 137.03 22.6036 136.379L19.4525 127.325C19.0114 126.065 18.6753 124.825 18.3812 123.67C18.0661 122.451 18.8854 121.716 20.2088 120.582L20.5869 120.246C23.675 117.578 25.2505 114.049 25.2505 109.721V100.331C25.2505 95.6254 25.2505 90.9409 25.2505 86.2563C25.2505 85.9622 25.2505 85.311 24.7043 84.9118C24.1371 84.5127 23.5069 84.7648 23.2548 84.8488C20.6079 85.8362 18.5703 87.1386 16.8477 88.9452C16.8267 88.6511 16.8057 88.357 16.8057 88.0419L16.7847 87.4117C16.7216 86.3193 17.3728 85.479 18.1501 84.5547L19.9987 82.412C22.0574 80.0172 24.1371 77.6224 26.2168 75.2276C28.4856 72.6227 30.0611 69.5977 31.0485 65.9635C31.1745 65.4803 31.2585 64.9551 31.3005 64.4299C31.4686 62.3292 30.0611 60.6487 27.7503 60.1025C25.7967 59.6613 24.0321 60.1655 22.6246 61.552L20.4609 63.6947C14.747 69.3456 9.03304 74.9965 3.38214 80.7104C1.11337 83.0212 0 86.0672 0 90.0166L0.0420139 140.118ZM3.65523 140.223C3.65523 123.922 3.65523 107.62 3.65523 91.319C3.65523 90.7938 3.65523 90.2686 3.65523 89.7225C3.73926 87.2226 4.32746 84.8908 6.15507 83.0632C9.24311 79.9332 12.3942 76.8451 15.5032 73.7571C18.6963 70.585 21.8894 67.4339 25.0824 64.2619C25.5236 63.8417 26.0068 63.5686 26.616 63.5897C27.4983 63.6107 27.8344 64.0098 27.6033 64.8711C26.826 67.7701 25.5866 70.3959 23.633 72.7067C20.734 76.1099 17.688 79.387 14.894 82.8741C13.8437 84.1766 13.2134 85.6051 13.2134 87.2856C13.2134 88.9662 13.2975 90.6048 14.0747 92.1383C14.2848 92.5374 14.4109 92.9155 14.4529 93.3567C14.81 97.0329 14.873 100.709 14.873 104.385C14.873 106.276 14.873 106.234 16.7636 106.276C17.3939 106.276 17.5199 106.087 17.4989 105.499C17.4779 102.39 17.4359 99.2807 17.4989 96.1926C17.5619 93.2727 19.2425 91.319 21.6583 89.6804V90.5207C21.6583 96.9279 21.6373 103.335 21.6583 109.742C21.6793 112.935 20.5449 115.603 18.0871 117.683C17.2678 118.376 16.4485 119.111 15.8183 119.994C14.978 121.128 14.3898 122.325 14.705 123.796C14.831 124.363 14.957 124.909 15.0621 125.477C15.2091 126.107 15.5242 126.758 15.7343 127.388C16.2385 128.838 16.7426 130.266 17.2468 131.716C17.793 133.27 18.3392 134.804 18.8644 136.358C19.1164 137.114 19.4526 137.85 19.5996 138.627C19.7466 139.383 19.7256 140.16 19.7046 140.938C19.6836 141.904 18.9484 142.639 18.0031 142.639C13.5496 142.66 9.09606 142.639 4.64256 142.66C4.11739 142.66 3.84429 142.408 3.73926 141.925C3.63422 141.337 3.65523 140.791 3.65523 140.223Z" fill="#08A46D"/>
<path d="M6.91808 183.386H3.49452C3.10427 182.907 2.90915 182.375 2.90915 181.79C2.90915 180.761 3.63643 180.069 4.78944 180.069C5.091 180.069 5.55221 180.122 6.13759 180.264L6.54558 178.437C5.9602 178.242 5.30387 178.153 4.55884 178.153C3.44131 178.153 2.55438 178.473 1.88031 179.093C1.1885 179.714 0.851465 180.53 0.851465 181.524C0.851465 182.18 1.02885 182.801 1.38363 183.386H0V185.196H6.90035V183.386H6.91808Z" fill="white"/>
<path d="M13.2864 185.195H14.2621H15.2377H16.2133H17.1889H18.1646H19.1402H20.1158H21.0915H22.0671H23.0427H24.0183H24.994H25.9696H26.9452H29.8366H21.9429H22.9185H23.8942H24.8698H25.8454H26.8211H29.7124H30.6881H31.6637H32.6393H33.615H34.5906H35.5662H36.5418H37.5175H38.4931H39.4687H40.4443H41.42H42.3956H43.3712H44.3469H45.3225H46.2981H47.2737H48.2494H49.225H50.2006H51.1762H52.1519H53.1275H54.1031H55.0788H56.0544H57.03H58.0056H58.9813H59.9569H60.9325H61.9081H62.8838H63.8594H64.835H65.8107H66.7863H67.7619H68.7375H69.7132H70.6888H71.6644H72.64H81.7755C82.2899 183.847 82.5205 182.535 82.5205 181.293C82.5205 179.483 81.5449 177.106 78.4406 177.106C77.0925 177.106 76.0104 177.497 75.1944 178.295C74.3784 179.093 73.9882 180.087 73.9882 181.311C73.9882 182.02 74.1301 182.641 74.4316 183.191H72.8884H71.9128H70.9371H69.9615H68.9859H68.0103H67.0346H66.059H65.0834H64.1077H63.1321H62.1565H61.1809H60.2052H59.2296H58.254H57.2784H56.3027H55.3271H54.3515H53.3758H52.4002H51.4246H50.449H49.4733H48.4977H47.5221H46.5465H45.5708H44.5952H43.6196H42.6439H41.6683H40.6927H39.7171H38.7414H37.7658H36.7902H35.8146H34.8389H33.8633H32.8877H31.912H30.9364H29.9608H27.0694H26.0937H25.1181H24.1425H23.1669H22.1912H30.085H27.1936H26.2179H25.2423H24.2667H23.2911H22.3154H21.3398H20.3642H19.3885H18.4129H17.4373H16.4617H15.486H14.5104H13.5348C12.1512 183.191 11.5835 182.712 11.5835 181.612V170.951H9.36619V181.665C9.11785 184.096 10.2709 185.195 13.2864 185.195ZM78.6002 179.164C79.9306 179.164 80.5515 180.122 80.5515 181.506C80.5515 182.038 80.4805 182.605 80.3209 183.209H77.0215C76.6667 182.552 76.4716 181.931 76.4716 181.311C76.4893 180.033 77.2698 179.164 78.6002 179.164Z" fill="white"/>
<path d="M77.9791 174.57C78.2097 174.34 78.3162 174.056 78.3162 173.719C78.3162 173.027 77.8195 172.53 77.1277 172.53C76.4536 172.53 75.9215 173.045 75.9215 173.719C75.8505 174.783 77.3051 175.333 77.9791 174.57Z" fill="white"/>
<path d="M80.2322 174.925C80.8885 174.925 81.403 174.393 81.403 173.719C81.403 173.045 80.9063 172.53 80.2322 172.53C79.5049 172.53 79.0082 173.027 79.0082 173.719C78.9905 174.393 79.5227 174.925 80.2322 174.925Z" fill="white"/>
<path d="M93.678 185.195C95.0971 185.195 96.055 184.964 96.5872 184.503C97.1903 184.982 98.0418 185.195 99.1416 185.195H109.944C110.281 184.024 110.459 182.96 110.459 181.949C110.459 178.951 108.898 177.106 106.042 177.106C105.013 177.106 104.002 177.355 102.636 178.135C101.252 178.933 99.7269 180.672 98.4497 183.173C97.7934 183.084 97.4564 182.658 97.4564 181.931V178.685H95.2391V181.222C95.2391 182.8 94.9198 183.173 93.6958 183.173H92.2767C92.2057 181.913 91.8687 180.743 91.2478 179.714C90.627 178.685 89.5449 177.674 88.0194 176.698L86.689 178.49C87.576 179.04 88.3742 179.732 89.066 180.583C89.7401 181.434 90.0771 182.286 90.0771 183.137V183.173H84.3652V185.195H93.678ZM105.758 179.164C107.355 179.164 108.242 180.317 108.242 182.126C108.242 182.463 108.206 182.818 108.135 183.208H100.933C102.37 180.583 104.126 179.164 105.758 179.164Z" fill="white"/>
<path d="M115.532 169.035H113.989C113.865 168.805 113.794 168.61 113.794 168.415C113.794 167.989 114.06 167.776 114.574 167.776C114.787 167.776 114.965 167.794 115.178 167.847L115.373 166.854C115.018 166.783 114.699 166.747 114.415 166.747C113.421 166.747 112.73 167.315 112.73 168.202C112.73 168.503 112.801 168.787 112.96 169.053H112.339V170.082H115.55V169.035H115.532Z" fill="white"/>
<path d="M115.035 170.951H112.818V185.195H115.035V170.951Z" fill="white"/>
<path d="M126.211 174.783C126.441 174.553 126.548 174.269 126.548 173.932C126.548 173.24 126.051 172.743 125.359 172.743C124.685 172.743 124.153 173.258 124.153 173.932C124.082 174.978 125.519 175.546 126.211 174.783Z" fill="white"/>
<path d="M128.446 175.138C129.102 175.138 129.616 174.606 129.616 173.932C129.616 173.24 129.102 172.743 128.446 172.743C127.718 172.743 127.222 173.24 127.222 173.932C127.222 174.606 127.754 175.138 128.446 175.138Z" fill="white"/>
<path d="M137.954 187.945C137.954 187.253 137.439 186.721 136.783 186.721C136.091 186.721 135.559 187.253 135.559 187.945C135.559 188.619 136.091 189.133 136.783 189.133C137.457 189.133 137.954 188.619 137.954 187.945Z" fill="white"/>
<path d="M134.885 187.945C134.885 187.253 134.388 186.721 133.696 186.721C133.022 186.721 132.49 187.253 132.49 187.945C132.49 188.619 133.022 189.133 133.696 189.133C134.406 189.133 134.885 188.619 134.885 187.945Z" fill="white"/>
<path d="M160.588 185.195H168.376C168.695 183.599 168.784 182.197 168.66 181.009C168.358 178.614 166.637 177.106 163.64 177.106C162.717 177.106 161.848 177.248 161.05 177.532L161.546 179.412C162.238 179.235 162.877 179.146 163.444 179.146C166.389 179.146 166.708 181.523 166.425 183.173H160.588H159.294C159.347 182.836 159.382 182.517 159.382 182.215C159.382 180.991 159.027 179.98 158.336 179.182C157.644 178.384 156.633 177.993 155.356 177.993C154.061 177.993 152.979 178.384 152.145 179.182C151.311 179.998 150.903 181.009 150.903 182.268C150.903 182.499 150.921 182.801 150.974 183.173H149.715H148.047C147.87 183.173 147.462 183.155 146.788 183.138C147.817 182.109 148.349 181.027 148.349 179.909C148.349 178.153 146.894 177.106 144.57 177.106C143.116 177.106 141.679 177.479 140.26 178.224C140.065 178.685 139.923 179.377 139.816 180.335C140.739 181.222 141.555 182.162 142.229 183.12C141.75 183.155 141.147 183.173 140.384 183.173H138.699C137.369 183.173 136.677 182.534 136.677 181.275V177.302H134.459V180.973C134.459 182.659 134.034 183.173 132.526 183.173H132.153C130.894 183.173 130.521 182.801 130.521 181.541V177.302H126.938C125.395 177.302 124.206 177.674 123.373 178.455C122.521 179.235 122.113 180.193 122.113 181.346C122.113 182.499 122.504 183.386 123.32 184.007C124.118 184.628 125.111 184.947 126.335 184.947C127.258 184.947 128.109 184.752 128.889 184.379C129.404 184.929 130.468 185.195 132.153 185.195H132.544C134.176 185.195 135.311 184.823 135.932 184.06C136.446 184.805 137.369 185.195 138.699 185.195H139.373C141.307 185.195 142.903 185.018 144.127 184.699C145.333 185.018 146.717 185.195 148.26 185.195H149.732H151.897C152.216 185.621 152.624 186.047 153.138 186.402H154.717C156.243 186.402 157.413 186.011 158.247 185.195H160.588ZM128.162 182.57C127.79 182.783 127.275 182.872 126.619 182.872C125.093 182.872 124.331 182.304 124.331 181.151C124.331 179.962 125.218 179.306 126.566 179.306H128.144V182.57H128.162ZM144.375 182.588C143.701 181.488 142.868 180.53 141.892 179.696L141.91 179.608C142.637 179.324 143.364 179.182 144.092 179.182C145.44 179.182 146.131 179.714 146.131 180.441C146.114 181.151 145.422 182.073 144.375 182.588ZM154.859 184.397H153.83C153.351 183.776 153.138 183.102 153.138 182.339C153.138 180.92 153.954 180.051 155.231 180.051C156.455 180.051 157.165 180.92 157.165 182.126C157.165 183.439 156.42 184.397 154.859 184.397Z" fill="white"/>
<path d="M163.196 187.945C163.089 188.974 164.597 189.523 165.253 188.796C165.466 188.566 165.573 188.282 165.573 187.945C165.573 187.253 165.094 186.721 164.402 186.721C163.71 186.721 163.196 187.253 163.196 187.945Z" fill="white"/>
<path d="M9.91587 196.194C10.5722 196.194 11.0866 195.661 11.0866 194.987C11.0866 194.313 10.5899 193.799 9.91587 193.799C9.18858 193.799 8.69189 194.296 8.69189 194.987C8.69189 195.661 9.22406 196.194 9.91587 196.194Z" fill="#08A46D"/>
<path d="M5.62262 194.987C5.55167 196.034 7.00625 196.602 7.68032 195.839C7.91092 195.608 8.01734 195.324 8.01734 194.987C8.01734 194.296 7.52066 193.799 6.82885 193.799C6.13704 193.799 5.62262 194.296 5.62262 194.987Z" fill="#08A46D"/>
<path d="M86.1921 204.265C89.119 204.265 90.343 203.218 90.343 200.362V196.389H88.1256V200.061C88.1256 201.746 87.6999 202.26 86.1921 202.26H85.8196H84.844H83.8684H82.8927H81.9171H80.9415H79.9659H78.9902H78.0146H77.039H76.0633H75.0877H75.3183H74.3427H73.3671H72.3914H71.4158H70.4402H69.4645H68.4889H67.5133H66.5377H65.562H64.5864H63.6108H62.6352H61.6595H60.6839H59.7083H58.7326H57.757H56.7814H55.8058H54.8301H53.8545H52.8789H51.9033H50.9276H49.952H48.9764H48.0007H47.0251H46.0495H45.0739H44.0982H43.1226H42.147H41.1714H40.1957H39.2201H38.2445H37.2688H36.2932H35.3176H34.342H33.3663H32.3907H31.4151H30.4395H29.4638H28.4882H27.5126H26.5369H25.5613H24.5857H30.5814H29.6057H28.6301H27.6545H26.6789H25.7032H24.7276H23.752H22.7764H21.8007H20.8251H19.8495H18.8738C17.5434 202.26 16.8516 201.622 16.8516 200.362V196.389H14.6343V200.309C14.6343 201.746 14.1021 202.26 12.8072 202.26H5.35697C3.60084 202.26 2.58974 201.462 2.58974 200.025C2.58974 199.546 2.69617 198.872 2.94451 197.967L0.993256 197.453C0.603005 198.535 0.390137 199.528 0.390137 200.469C0.390137 202.721 2.16401 204.247 5.01994 204.247H13.4635C14.6875 204.247 15.5922 203.892 16.1776 203.2C16.692 203.892 17.5789 204.247 18.8738 204.247H19.8495H20.8251H21.8007H22.7764H23.752H24.7276H25.7032H26.6789H27.6545H28.6301H29.6057H30.5814H24.5857H25.5613H26.5369H27.5126H28.4882H29.4638H30.4395H31.4151H32.3907H33.3663H34.342H35.3176H36.2932H37.2688H38.2445H39.2201H40.1957H41.1714H42.147H43.1226H44.0982H45.0739H46.0495H47.0251H48.0007H48.9764H49.952H50.9276H51.9033H52.8789H53.8545H54.8301H55.8058H56.7814H57.757H58.7326H59.7083H60.6839H61.6595H62.6352H63.6108H64.5864H65.562H66.5377H67.5133H68.4889H69.4645H70.4402H71.4158H72.3914H73.3671H74.3427H75.3183H75.0877H76.0633H77.039H78.0146H78.9902H79.9659H80.9415H81.9171H82.8927H83.8684H84.844H85.8196H86.1921V204.265Z" fill="#08A46D"/>
<path d="M86.9728 205.79C86.2988 205.79 85.7666 206.322 85.7666 207.014C85.7666 207.688 86.2988 208.203 86.9728 208.203C87.6646 208.203 88.1613 207.688 88.1613 207.014C88.1613 206.322 87.6824 205.79 86.9728 205.79Z" fill="#08A46D"/>
<path d="M90.077 205.79C89.3852 205.79 88.853 206.322 88.853 207.014C88.853 207.688 89.3852 208.203 90.077 208.203C90.7333 208.203 91.2477 207.688 91.2477 207.014C91.23 206.322 90.7333 205.79 90.077 205.79Z" fill="#08A46D"/>
<path d="M94.4764 203.395C94.4764 204.956 93.8201 205.541 92.064 205.789L92.401 207.705C95.3634 207.492 96.6938 205.967 96.6938 202.933V196.37H94.4764V203.395Z" fill="#08A46D"/>
<path d="M94.3876 193C94.2812 194.047 95.789 194.597 96.4453 193.869C96.871 193.408 96.871 192.592 96.4453 192.131C95.7712 191.439 94.2634 191.936 94.3876 193Z" fill="#08A46D"/>
<path d="M109.057 205.79C108.366 205.79 107.833 206.322 107.833 207.014C107.833 207.688 108.366 208.203 109.057 208.203C109.714 208.203 110.228 207.688 110.228 207.014C110.228 206.322 109.732 205.79 109.057 205.79Z" fill="#08A46D"/>
<path d="M105.971 205.79C105.297 205.79 104.765 206.322 104.765 207.014C104.765 207.688 105.297 208.203 105.971 208.203C106.663 208.203 107.159 207.688 107.159 207.014C107.159 206.322 106.663 205.79 105.971 205.79Z" fill="#08A46D"/>
<path d="M112.871 200.061C112.871 201.781 112.41 202.26 110.973 202.26C109.643 202.26 108.951 201.622 108.951 200.362V196.389H106.733V200.061C106.733 201.746 106.308 202.26 104.8 202.26H104.427H102.512V196.389H100.294V203.395C100.294 204.956 99.638 205.542 97.8818 205.79L98.2189 207.706C100.667 207.529 102.068 206.393 102.423 204.265H104.445H104.835C106.467 204.265 107.603 203.892 108.223 203.129C108.738 203.892 109.66 204.265 110.991 204.265C113.847 204.265 115.124 203.236 115.124 200.362V196.389H112.906V200.061H112.871Z" fill="#08A46D"/>
<path d="M113.244 205.79C112.552 205.79 112.038 206.322 112.038 207.014C111.931 208.043 113.439 208.593 114.095 207.865C114.308 207.635 114.415 207.351 114.415 207.014C114.415 206.322 113.936 205.79 113.244 205.79Z" fill="#08A46D"/>
<path d="M126.211 193.851C126.441 193.621 126.548 193.337 126.548 193C126.548 192.308 126.051 191.812 125.359 191.812C124.685 191.812 124.153 192.326 124.153 193C124.082 194.064 125.537 194.632 126.211 193.851Z" fill="#08A46D"/>
<path d="M129.634 193C129.634 192.308 129.12 191.812 128.464 191.812C127.736 191.812 127.24 192.308 127.24 193C127.24 193.674 127.772 194.206 128.464 194.206C129.12 194.206 129.634 193.674 129.634 193Z" fill="#08A46D"/>
<path d="M150.016 196.193C148.739 196.193 147.675 196.566 146.859 197.311C146.025 198.038 145.617 199.014 145.617 200.167C145.617 200.983 145.812 201.692 146.185 202.278H143.187H141.519C141.342 202.278 140.934 202.26 140.26 202.242C141.289 201.213 141.821 200.131 141.821 199.014C141.821 197.258 140.366 196.211 138.025 196.211C136.57 196.211 135.151 196.584 133.714 197.329C133.519 197.772 133.377 198.482 133.271 199.44C134.193 200.326 135.009 201.267 135.683 202.225C135.204 202.26 134.601 202.278 133.839 202.278H132.153C130.894 202.278 130.521 201.905 130.521 200.646V196.406H126.938C125.395 196.406 124.206 196.779 123.373 197.559C122.521 198.34 122.113 199.298 122.113 200.451C122.113 201.604 122.504 202.491 123.32 203.111C124.118 203.732 125.111 204.052 126.335 204.052C127.258 204.052 128.109 203.856 128.889 203.484C129.404 204.034 130.468 204.3 132.153 204.3H132.827C134.761 204.3 136.357 204.123 137.581 203.803C138.788 204.123 140.154 204.3 141.715 204.3H143.187H149.413C153.138 204.3 154.078 202.118 154.078 200.185C154.078 199.067 153.724 198.127 153.032 197.364C152.305 196.566 151.293 196.193 150.016 196.193ZM128.18 201.657C127.807 201.87 127.293 201.958 126.637 201.958C125.111 201.958 124.348 201.391 124.348 200.238C124.348 199.049 125.235 198.393 126.583 198.393H128.162V201.657H128.18ZM137.83 201.675C137.156 200.575 136.322 199.617 135.346 198.783L135.364 198.695C136.091 198.411 136.819 198.269 137.546 198.269C138.894 198.269 139.586 198.801 139.586 199.528C139.586 200.22 138.876 201.142 137.83 201.675ZM149.644 202.278H148.491C148.065 201.675 147.852 201.036 147.852 200.38C147.852 199.032 148.686 198.251 149.892 198.251C151.081 198.251 151.826 199.049 151.826 200.256C151.826 201.604 151.098 202.278 149.644 202.278Z" fill="#08A46D"/>
<path d="M163.64 196.194C162.717 196.194 161.848 196.335 161.05 196.619L161.546 198.5C162.238 198.322 162.877 198.234 163.444 198.234C166.389 198.234 166.708 200.61 166.425 202.26H160.589C159.205 202.26 158.637 201.781 158.637 200.681V190.021H156.42V200.735C156.42 203.165 157.591 204.265 160.606 204.265H168.394C168.713 202.668 168.802 201.267 168.677 200.078C168.358 197.701 166.637 196.194 163.64 196.194Z" fill="#08A46D"/>
<path d="M164.402 205.79C163.71 205.79 163.196 206.322 163.196 207.014C163.089 208.043 164.597 208.593 165.253 207.865C165.466 207.635 165.573 207.351 165.573 207.014C165.573 206.322 165.094 205.79 164.402 205.79Z" fill="#08A46D"/>
</svg>
