<svg width="222" height="44" viewBox="0 0 222 44" fill="none" xmlns="http://www.w3.org/2000/svg">
<path d="M203.788 18.5352H209.73V24.4775L213.934 28.6816L209.73 32.8848V38.833H203.788L199.584 43.0361L195.381 38.833H189.433V32.8848L185.229 28.6816L189.433 24.4775V18.5352H195.381L199.584 14.332L203.788 18.5352ZM195.866 19.7119H190.615V24.9688L186.896 28.6816L190.615 32.3994V37.6514H195.866L199.584 41.3691L203.296 37.6514H208.554V32.3994L212.266 28.6816L208.554 24.9688V19.7119H203.296L199.584 15.999L195.866 19.7119Z" fill="#08A46D"/>
<path d="M189.673 28.9765C189.879 28.3744 190.57 28.2908 191.067 28.0789L191.172 27.9953V27.5995C191.462 27.2873 191.947 26.9919 192.26 26.8915C192.443 26.9975 192.761 26.9975 192.945 26.9975L193.157 27.187V27.3933L193.341 27.6051C193.341 27.6887 193.257 27.7891 193.257 27.895L193.447 28.0845H193.631C193.837 28.0845 194.239 27.6887 194.445 27.6887C194.233 27.2929 193.631 27.003 193.447 26.6072C193.553 26.3954 193.737 26.1055 193.843 25.9996C194.133 25.9996 194.551 26.2114 194.841 26.1055C194.841 25.916 194.74 25.3139 194.634 25.1076C194.551 25.1076 194.45 25.2135 194.344 25.2135C194.138 25.0296 193.843 24.9237 193.636 24.7341C193.742 24.6282 193.949 24.6282 194.055 24.6282C194.244 24.5223 194.64 24.4219 194.846 24.2324C194.746 24.1321 194.45 23.9202 194.344 23.9202C194.344 23.7307 194.45 23.6303 194.556 23.5244C194.64 23.5244 194.746 23.4408 194.846 23.4408C195.036 23.4408 195.242 23.5244 195.432 23.5244L195.638 23.7307C195.744 23.7307 195.844 23.5244 195.844 23.4408C196.134 23.4408 196.513 23.4408 196.719 23.6303C196.719 23.7363 196.613 23.8199 196.613 23.9202C196.926 24.2324 197.221 24.7341 197.617 24.5223C197.617 24.0206 197.221 23.7307 197.723 23.229V22.8331C198.308 22.521 199.016 22.2311 199.601 22.1475C199.707 22.1475 199.813 22.2311 199.891 22.2311L200.203 22.521H200.789C200.789 22.7272 200.499 23.123 200.309 23.3349C200.103 23.3349 199.813 23.5244 199.707 23.5244C199.997 24.0261 200.789 23.3349 201.084 23.045C201.396 23.045 201.999 22.7328 202.188 22.5265C202.294 22.6325 202.478 22.7328 202.584 22.8387C202.584 23.1286 202.378 23.4464 202.378 23.7363C202.478 23.8199 202.69 23.9258 202.773 24.0261C203.192 24.0261 203.671 23.7363 204.067 23.7363C204.273 23.9258 204.273 24.238 204.273 24.4219C204.067 24.5279 203.771 24.6282 203.671 24.7341C203.671 25.1076 204.173 25.3195 204.379 25.5034C204.485 25.5034 204.669 25.3195 204.669 25.3195V24.9237L204.875 24.7341L205.644 25.1076V25.5034C205.644 25.5034 205.46 25.7153 205.46 25.8156C205.566 25.9996 205.566 26.3954 205.46 26.6072C205.644 26.7076 205.75 26.7076 205.962 26.5013C205.962 26.2114 206.168 25.9996 206.168 25.7097L206.564 25.3139C206.754 25.3139 206.943 25.4142 207.15 25.4979C207.15 26.2058 207.339 26.6072 208.153 26.6072C208.153 26.7912 208.047 26.8971 207.941 27.003C207.439 27.003 206.943 27.1926 206.358 27.1926C206.358 27.1926 206.168 27.3988 206.168 27.5048C205.962 27.5048 205.856 27.6107 205.75 27.6943C205.75 27.8002 205.962 28.0065 205.962 28.0065C206.564 28.0065 207.255 27.6943 207.752 28.1904V28.5862C207.646 28.6922 207.439 28.7925 207.334 28.8761H206.938C206.854 28.982 206.648 29.0657 206.564 29.166C206.358 29.0601 206.062 28.7869 205.962 28.6866C205.65 28.6866 205.171 28.6866 204.881 28.7925L205.171 29.0657H205.566C205.862 29.3556 206.358 29.5674 206.653 29.8796C206.86 29.8796 207.255 29.7737 207.545 29.7737C207.651 29.8796 207.757 29.9632 207.757 30.1695C207.545 30.1695 207.049 30.4593 206.943 30.5653V30.9611L206.754 31.145C206.564 31.145 206.174 31.251 205.962 31.3513C205.65 31.145 205.46 30.7492 205.171 30.4593C204.964 30.5653 204.881 30.8551 204.669 31.0614H204.273C204.167 30.9555 203.983 30.6433 203.877 30.5597C203.587 30.5597 203.375 30.8496 203.292 31.0614C203.186 31.0614 203.086 31.145 202.98 31.145C202.98 31.251 202.874 31.4572 202.874 31.5631C202.584 31.5631 202.372 31.0614 202.082 31.0614H201.893C201.686 31.0614 201.497 31.4572 201.185 31.4572L200.995 31.2454V30.8496C201.185 30.7437 201.497 30.5597 201.603 30.2698C201.497 30.2698 201.291 30.1639 201.084 30.1639C200.605 30.6433 200.711 31.4572 200.309 31.853V33.2244C200.995 33.9324 201.603 33.9324 202.372 34.3282C201.686 34.6181 200.705 34.3282 199.891 34.5177C199.891 34.5177 199.702 34.3282 199.601 34.3282H199.206C198.81 34.5177 197.02 34.5177 196.625 34.3282C196.625 34.016 197.126 33.7261 197.232 33.5143C197.438 33.5143 197.817 33.2244 198.024 33.1408C198.024 32.3269 198.13 30.8496 197.522 30.2698L197.338 30.4538V31.0558C197.338 31.0558 197.132 31.2454 197.026 31.2454C196.836 31.0558 196.63 30.9555 196.524 30.7437C196.441 30.8496 196.145 31.1395 196.145 31.2454V31.4572C196.145 31.5631 195.855 31.6412 195.749 31.6412C195.643 31.4572 195.543 31.1395 195.543 30.9555C195.437 30.8496 195.248 30.7437 195.147 30.6433C194.857 30.7492 194.645 30.9555 194.567 31.145C194.066 31.251 193.464 31.3513 192.878 31.3513L192.672 31.145V30.9611C192.672 30.6489 193.57 30.5653 193.754 30.5653C193.754 30.4593 193.859 30.3534 193.859 30.2754C194.071 30.2754 194.149 30.1695 194.361 30.1695L194.573 29.9576C194.763 29.9576 194.947 29.874 195.052 29.7681C194.947 29.5618 194.573 29.35 194.261 29.35C194.261 29.166 194.155 28.9765 194.071 28.8706C193.865 28.8706 193.759 28.9765 193.57 28.9765L193.358 29.166C193.174 29.166 192.878 29.2664 192.672 29.2664C192.566 29.35 192.276 29.5618 192.064 29.5618C191.964 29.6677 191.775 29.7681 191.669 29.874C191.479 29.6677 191.083 29.2664 190.877 29.166C190.464 29.2664 189.779 29.4559 189.673 28.9765ZM194.551 28.3688L194.339 28.1793H193.464C193.464 28.5751 193.754 28.681 194.049 28.7646C194.239 28.7702 194.634 28.5807 194.551 28.3688ZM195.922 26.0999C196.022 26.0999 196.234 25.9104 196.234 25.9104C196.234 25.8045 196.022 25.5982 196.022 25.5982C195.733 25.5982 195.443 25.81 195.147 25.81C195.147 26.0999 195.253 26.9975 195.337 27.2873C195.337 27.2873 195.543 27.0811 195.627 27.0811C195.632 26.6853 195.922 26.3898 195.922 26.0999ZM197.321 28.1793C197.321 28.1793 197.528 27.9953 197.528 27.8894C197.321 27.7835 197.026 27.6999 196.948 27.4936C196.742 27.4936 196.53 27.5995 196.446 27.5995C196.446 27.8894 196.63 27.8894 196.53 28.1793C196.346 28.0957 196.134 28.0957 195.944 28.0957C196.028 28.2629 196.234 28.5751 196.34 28.681C196.524 28.681 196.63 28.5751 196.736 28.4747C196.942 28.4747 197.238 28.2685 197.321 28.1793ZM196.53 29.0768L196.346 28.8706C196.134 28.8706 195.928 28.9765 195.844 28.9765L196.24 29.3723C196.34 29.3723 196.53 29.166 196.53 29.0768ZM195.838 28.7869C195.733 28.7869 195.627 28.681 195.526 28.681L195.443 28.7869C195.443 28.8706 195.526 28.9765 195.526 29.0768L195.838 28.7869ZM197.528 28.8706C197.717 29.1827 197.717 28.9765 198.007 28.9765C198.007 28.6866 197.901 28.3911 197.901 28.2072C197.717 28.2852 197.528 28.5807 197.528 28.8706ZM199.111 29.952C199.111 30.1639 199.194 30.3479 199.3 30.5597C199.406 30.5597 199.59 30.6433 199.696 30.6433L200.488 29.7681C200.488 29.5785 200.298 29.2887 200.298 29.1883C200.092 29.2942 199.986 29.3779 199.886 29.5841C199.696 29.4782 199.596 29.3779 199.596 29.0824C199.808 28.9765 199.808 28.8761 199.808 28.5807L199.495 28.2908C199.3 28.7869 199.111 29.3723 199.111 29.952ZM198.905 28.681C198.905 28.5751 198.715 28.3688 198.715 28.3688C198.525 28.4748 198.425 28.5751 198.425 28.8706L198.615 29.0601C198.815 28.8706 198.905 28.8706 198.905 28.681ZM199.902 25.81C199.902 25.81 199.713 25.5982 199.713 25.4979C199.607 25.4979 199.401 25.6038 199.317 25.6038C199.317 25.7097 199.401 25.8156 199.401 25.8937C199.317 25.8937 199.105 26.0999 199.105 26.0999C199.317 26.1835 199.501 26.0999 199.813 26.0999C199.819 25.994 199.902 25.8937 199.902 25.81ZM198.799 25.1021L198.615 24.9181C198.425 25.024 198.425 25.3139 198.509 25.4979C198.715 25.3919 198.905 25.3083 198.799 25.1021ZM200.298 25.1021L200.092 25.3139L200.298 25.4979C200.488 25.3139 200.884 25.0184 200.677 24.6226C200.382 24.723 200.298 24.8066 200.298 25.1021ZM199.406 24.723C199.406 24.8066 199.59 24.9125 199.696 24.9125C199.696 24.8066 199.802 24.4108 199.802 24.2268L199.696 24.1265C199.484 24.0429 199.111 24.2268 198.905 24.2268C199.01 24.4164 199.111 24.4164 199.406 24.4164V24.723ZM198.509 26.3898C198.509 26.3062 198.615 26.0999 198.509 26.0999C198.509 26.0999 198.319 26.2058 198.219 26.2058C198.213 26.3118 198.425 26.3898 198.509 26.3898ZM196.82 26.0999C196.926 26.0999 197.009 25.994 197.11 25.994C197.11 25.81 197.004 25.7041 196.92 25.5982C196.814 25.5982 196.63 25.81 196.63 25.81C196.63 25.9104 196.82 26.0999 196.82 26.0999ZM196.53 26.6017C196.53 26.6017 196.719 26.4121 196.719 26.3118C196.719 26.3118 196.53 26.0999 196.53 25.9996C196.346 26.1055 196.24 26.4177 196.24 26.6072L196.53 26.6017ZM197.321 27.5995C197.528 27.3877 197.321 27.2037 197.132 26.9919C197.026 27.2037 197.238 27.4936 197.321 27.5995ZM202.383 30.3701C202.467 30.3701 202.567 30.2642 202.673 30.2642C202.673 30.058 202.863 29.8684 202.963 29.7625C202.857 29.573 202.277 29.4726 202.088 29.573L201.982 29.6789V30.0524C202.194 30.1639 202.277 30.1639 202.383 30.3701ZM201.196 29.4726C201.279 29.4726 201.486 29.2831 201.592 29.2831C201.592 28.9709 201.486 28.9709 201.279 28.8706C201.201 28.8706 201.012 29.0768 200.906 29.0768C200.906 29.389 201.006 29.4726 201.196 29.4726ZM202.489 28.3688C202.489 28.3688 202.673 28.5751 202.673 28.681C202.863 28.681 202.963 28.5751 203.069 28.4747C203.069 28.2852 203.069 27.9953 202.963 27.7891C202.857 27.7891 202.773 28.0009 202.773 28.0789C202.567 27.8894 202.567 27.7054 202.484 27.4936C202.272 27.5995 202.088 27.7054 202.088 27.9953C202.194 28.0789 202.383 28.1793 202.489 28.3688ZM200.984 28.1793C200.984 28.0957 201.068 27.9953 201.068 27.8894L200.984 27.7835C200.9 27.7835 200.8 27.8894 200.694 27.8894L200.984 28.1793ZM200.298 26.6017C200.488 26.6017 200.778 26.4121 200.967 26.4121C200.778 26.2058 200.594 26.3062 200.298 26.3062V26.6017ZM203.465 26.3118C203.381 26.3954 203.381 26.4957 203.381 26.6017C203.777 26.6017 204.362 26.6016 204.652 26.4957C204.546 26.3118 204.463 26.3118 204.15 26.3118C204.256 26.3118 204.357 26.2058 204.463 26.2058C204.256 25.9104 203.777 26.0999 203.465 26.3118ZM201.486 25.1021C201.296 25.3139 201.112 25.3139 201.196 25.7097C201.296 25.6038 201.486 25.4979 201.592 25.3975C201.592 25.3083 201.486 25.2024 201.486 25.1021ZM202.277 25.4979C202.461 25.4979 202.567 25.6038 202.757 25.4979C202.757 25.4142 202.567 25.1244 202.467 25.1244H202.277C202.093 25.0184 202.194 24.9181 201.881 25.0184C201.881 25.1244 201.987 25.3083 201.987 25.4142C202.093 25.4142 202.194 25.4979 202.277 25.4979ZM203.571 27.6831C203.654 27.6831 203.86 27.7668 203.95 27.7668C203.95 27.7668 204.156 27.5995 204.262 27.5995C204.368 27.6831 204.552 27.7668 204.764 27.7668C204.953 27.5995 204.869 27.5995 204.869 27.3877C204.663 27.4936 204.557 27.2818 204.474 27.0978C204.267 27.0978 204.056 27.1814 203.872 27.1814C203.654 27.3933 203.465 27.3933 203.571 27.6831Z" fill="#08A46D"/>
<path d="M199.584 11.3111L195.108 15.8043H189.427V10.1237L199.562 0.0222985C199.562 0.0222985 199.573 0.0111494 199.584 0L199.607 0.0222985L200.002 0.412528L209.741 10.1237V15.8043H204.061C204.061 15.8043 199.607 11.3334 199.584 11.3111ZM204.551 14.628H208.565V10.6142L199.584 1.66126L190.604 10.6142V14.628H194.617L199.584 9.64424L204.551 14.628Z" fill="#08A46D"/>
<path d="M222 23.8985C222 22.8449 221.704 22.0366 221.102 21.4289C219.603 19.9126 218.086 18.413 216.57 16.9134L215.996 16.3448C215.622 15.9769 215.154 15.8431 214.636 15.9601C214.022 16.0995 213.649 16.5511 213.694 17.1085C213.705 17.2535 213.727 17.3873 213.76 17.5155C214.022 18.4799 214.441 19.2827 215.043 19.9739C215.595 20.6094 216.141 21.245 216.693 21.8805L217.183 22.4491C217.39 22.6888 217.562 22.9118 217.546 23.2072L217.54 23.3745C217.535 23.4581 217.535 23.5362 217.529 23.6142C217.072 23.1292 216.531 22.7891 215.829 22.5271C215.767 22.5048 215.595 22.4379 215.444 22.5439C215.299 22.6442 215.299 22.8226 215.299 22.9006C215.299 24.1438 215.299 25.3925 215.299 26.6357V29.1276C215.299 30.276 215.717 31.2181 216.537 31.9205L216.637 32.0041C216.994 32.3052 217.206 32.5003 217.122 32.8236C217.044 33.1302 216.955 33.4591 216.838 33.7936L216.001 36.1963C215.94 36.3691 215.873 36.5475 215.834 36.7371C215.79 36.9545 215.795 37.1607 215.801 37.3614V37.4283C215.818 38.1419 216.436 38.7997 217.105 38.8053C217.858 38.8108 218.616 38.8164 219.369 38.8164C219.848 38.8164 220.327 38.8164 220.807 38.8108C221.258 38.8108 221.621 38.5823 221.827 38.1698C221.989 37.8464 221.989 37.5119 221.989 37.1886L222 23.8985ZM221.013 37.6513C220.98 37.7795 220.913 37.8464 220.773 37.8464C219.592 37.8464 218.41 37.8464 217.228 37.8408C216.977 37.8408 216.782 37.6457 216.776 37.3893C216.771 37.183 216.765 36.9768 216.804 36.7761C216.843 36.5698 216.932 36.3691 216.999 36.174C217.144 35.7615 217.289 35.3545 217.429 34.942C217.562 34.5573 217.696 34.1783 217.83 33.7936C217.886 33.6319 217.969 33.4591 218.008 33.2863C218.042 33.1358 218.07 32.9909 218.103 32.8403C218.192 32.4501 218.031 32.1268 217.808 31.8313C217.635 31.5972 217.423 31.4076 217.206 31.2181C216.553 30.6662 216.258 29.9638 216.258 29.1109C216.263 27.4106 216.258 25.7103 216.258 24.01V23.787C216.899 24.2218 217.345 24.7403 217.362 25.5152C217.378 26.3402 217.367 27.1653 217.362 27.9848C217.362 28.1409 217.395 28.191 217.557 28.191C218.053 28.1855 218.059 28.191 218.059 27.6893C218.059 26.7137 218.075 25.7326 218.17 24.7626C218.181 24.6455 218.22 24.5452 218.27 24.4393C218.477 24.0379 218.499 23.5975 218.499 23.1515C218.499 22.7055 218.332 22.3264 218.053 21.9808C217.312 21.0554 216.498 20.1858 215.734 19.2827C215.215 18.6694 214.887 17.967 214.68 17.2033C214.619 16.9803 214.708 16.8744 214.942 16.8632C215.104 16.8577 215.232 16.9301 215.349 17.0416C216.197 17.8834 217.044 18.7252 217.891 19.5614C218.722 20.3864 219.553 21.2059 220.372 22.0366C220.851 22.5216 221.008 23.1404 221.035 23.8037C221.041 23.9431 221.041 24.0825 221.041 24.2274C221.041 28.5534 221.041 32.8794 221.041 37.2053C221.047 37.3614 221.052 37.5064 221.013 37.6513Z" fill="#08A46D"/>
<path d="M177.163 37.1834C177.163 37.5012 177.163 37.8413 177.325 38.1646C177.531 38.5771 177.893 38.8057 178.345 38.8057C178.824 38.8057 179.304 38.8113 179.783 38.8113C180.536 38.8113 181.294 38.8057 182.046 38.8001C182.71 38.7945 183.334 38.1367 183.351 37.4232V37.3563C183.357 37.1556 183.362 36.9493 183.317 36.7319C183.278 36.5424 183.212 36.364 183.15 36.1911L182.314 33.7884C182.197 33.454 182.108 33.1251 182.03 32.8184C181.946 32.4951 182.164 32.3 182.515 31.999L182.615 31.9098C183.435 31.2018 183.853 30.2652 183.853 29.1168V26.6249C183.853 25.3762 183.853 24.1331 183.853 22.8899C183.853 22.8119 183.853 22.639 183.708 22.5331C183.557 22.4272 183.39 22.4941 183.323 22.5164C182.621 22.7784 182.08 23.124 181.623 23.6035C181.617 23.5254 181.612 23.4474 181.612 23.3637L181.606 23.1965C181.589 22.9066 181.762 22.6836 181.968 22.4383L182.459 21.8697C183.005 21.2342 183.557 20.5987 184.109 19.9632C184.711 19.2719 185.129 18.4692 185.391 17.5047C185.425 17.3765 185.447 17.2371 185.458 17.0978C185.503 16.5403 185.129 16.0943 184.516 15.9494C183.998 15.8323 183.529 15.9661 183.156 16.334L182.582 16.9027C181.065 18.4023 179.549 19.9019 178.049 21.4182C177.447 22.0314 177.152 22.8397 177.152 23.8878L177.163 37.1834ZM178.122 37.2113C178.122 32.8853 178.122 28.5594 178.122 24.2334C178.122 24.094 178.122 23.9547 178.122 23.8097C178.144 23.1463 178.3 22.5275 178.785 22.0425C179.605 21.2119 180.441 20.3924 181.266 19.5729C182.113 18.7312 182.961 17.895 183.808 17.0532C183.925 16.9417 184.053 16.8692 184.215 16.8748C184.449 16.8804 184.538 16.9863 184.477 17.2148C184.271 17.9842 183.942 18.681 183.423 19.2942C182.654 20.1973 181.846 21.067 181.104 21.9924C180.826 22.338 180.658 22.7171 180.658 23.1631C180.658 23.609 180.681 24.0439 180.887 24.4508C180.943 24.5567 180.976 24.6571 180.987 24.7742C181.082 25.7497 181.099 26.7253 181.099 27.7009C181.099 28.2026 181.099 28.1914 181.6 28.2026C181.768 28.2026 181.801 28.1524 181.796 27.9963C181.79 27.1713 181.779 26.3462 181.796 25.5267C181.812 24.7519 182.258 24.2334 182.899 23.7986V24.0216C182.899 25.7219 182.894 27.4221 182.899 29.1224C182.905 29.9698 182.604 30.6778 181.952 31.2297C181.734 31.4136 181.517 31.6087 181.35 31.8429C181.127 32.1439 180.971 32.4617 181.054 32.8519C181.088 33.0024 181.121 33.1474 181.149 33.2979C181.188 33.4651 181.272 33.6379 181.327 33.8052C181.461 34.1898 181.595 34.5689 181.729 34.9536C181.874 35.3661 182.019 35.773 182.158 36.1856C182.225 36.3863 182.314 36.5814 182.353 36.7876C182.392 36.9883 182.387 37.1946 182.381 37.4009C182.375 37.6573 182.18 37.8524 181.929 37.8524C180.748 37.858 179.566 37.8524 178.384 37.858C178.244 37.858 178.172 37.7911 178.144 37.6629C178.116 37.5068 178.122 37.3618 178.122 37.2113Z" fill="#08A46D"/>
<path d="M6.91808 17.3862H3.49452C3.10427 16.9073 2.90915 16.3751 2.90915 15.7897C2.90915 14.7609 3.63643 14.0691 4.78944 14.0691C5.091 14.0691 5.55221 14.1223 6.13759 14.2642L6.54558 12.4371C5.9602 12.242 5.30387 12.1533 4.55884 12.1533C3.44131 12.1533 2.55438 12.4726 1.88031 13.0935C1.1885 13.7143 0.851465 14.5303 0.851465 15.5237C0.851465 16.18 1.02885 16.8009 1.38363 17.3862H0V19.1956H6.90035V17.3862H6.91808Z" fill="white"/>
<path d="M13.2864 19.1953H14.2621H15.2377H16.2133H17.1889H18.1646H19.1402H20.1158H21.0915H22.0671H23.0427H24.0183H24.994H25.9696H26.9452H29.8366H21.9429H22.9185H23.8942H24.8698H25.8454H26.8211H29.7124H30.6881H31.6637H32.6393H33.615H34.5906H35.5662H36.5418H37.5175H38.4931H39.4687H40.4443H41.42H42.3956H43.3712H44.3469H45.3225H46.2981H47.2737H48.2494H49.225H50.2006H51.1762H52.1519H53.1275H54.1031H55.0788H56.0544H57.03H58.0056H58.9813H59.9569H60.9325H61.9081H62.8838H63.8594H64.835H65.8107H66.7863H67.7619H68.7375H69.7132H70.6888H71.6644H72.64H81.7755C82.2899 17.8472 82.5205 16.5345 82.5205 15.2928C82.5205 13.4835 81.5449 11.1065 78.4406 11.1065C77.0925 11.1065 76.0104 11.4967 75.1944 12.295C74.3784 13.0932 73.9882 14.0866 73.9882 15.3106C73.9882 16.0201 74.1301 16.641 74.4316 17.1909H72.8884H71.9128H70.9371H69.9615H68.9859H68.0103H67.0346H66.059H65.0834H64.1077H63.1321H62.1565H61.1809H60.2052H59.2296H58.254H57.2784H56.3027H55.3271H54.3515H53.3758H52.4002H51.4246H50.449H49.4733H48.4977H47.5221H46.5465H45.5708H44.5952H43.6196H42.6439H41.6683H40.6927H39.7171H38.7414H37.7658H36.7902H35.8146H34.8389H33.8633H32.8877H31.912H30.9364H29.9608H27.0694H26.0937H25.1181H24.1425H23.1669H22.1912H30.085H27.1936H26.2179H25.2423H24.2667H23.2911H22.3154H21.3398H20.3642H19.3885H18.4129H17.4373H16.4617H15.486H14.5104H13.5348C12.1512 17.1909 11.5835 16.7119 11.5835 15.6121V4.95117H9.36619V15.6653C9.11785 18.0955 10.2709 19.1953 13.2864 19.1953ZM78.6002 13.1642C79.9306 13.1642 80.5515 14.1221 80.5515 15.5057C80.5515 16.0378 80.4805 16.6055 80.3209 17.2086H77.0215C76.6667 16.5523 76.4716 15.9314 76.4716 15.3106C76.4893 14.0334 77.2698 13.1642 78.6002 13.1642Z" fill="white"/>
<path d="M77.9791 8.57022C78.2097 8.33962 78.3162 8.0558 78.3162 7.71876C78.3162 7.02695 77.8195 6.53027 77.1277 6.53027C76.4536 6.53027 75.9215 7.04469 75.9215 7.71876C75.8505 8.78308 77.3051 9.33298 77.9791 8.57022Z" fill="white"/>
<path d="M80.2322 8.92499C80.8885 8.92499 81.403 8.39283 81.403 7.71876C81.403 7.04469 80.9063 6.53027 80.2322 6.53027C79.5049 6.53027 79.0082 7.02695 79.0082 7.71876C78.9905 8.39283 79.5227 8.92499 80.2322 8.92499Z" fill="white"/>
<path d="M93.678 19.1951C95.0971 19.1951 96.055 18.9645 96.5872 18.5033C97.1903 18.9822 98.0418 19.1951 99.1416 19.1951H109.944C110.281 18.0243 110.459 16.96 110.459 15.9489C110.459 12.9511 108.898 11.1062 106.042 11.1062C105.013 11.1062 104.002 11.3546 102.636 12.1351C101.252 12.9333 99.7269 14.6717 98.4497 17.1729C97.7934 17.0842 97.4564 16.6584 97.4564 15.9312V12.685H95.2391V15.2216C95.2391 16.8003 94.9198 17.1729 93.6958 17.1729H92.2767C92.2057 15.9134 91.8687 14.7427 91.2478 13.7138C90.627 12.685 89.5449 11.6739 88.0194 10.6982L86.689 12.4898C87.576 13.0397 88.3742 13.7316 89.066 14.583C89.7401 15.4345 90.0771 16.2859 90.0771 17.1374V17.1729H84.3652V19.1951H93.678ZM105.758 13.1639C107.355 13.1639 108.242 14.3169 108.242 16.1263C108.242 16.4633 108.206 16.8181 108.135 17.2083H100.933C102.37 14.583 104.126 13.1639 105.758 13.1639Z" fill="white"/>
<path d="M115.532 3.03536H113.989C113.865 2.80476 113.794 2.60963 113.794 2.4145C113.794 1.98878 114.06 1.77591 114.574 1.77591C114.787 1.77591 114.965 1.79365 115.178 1.84687L115.373 0.853503C115.018 0.782549 114.699 0.74707 114.415 0.74707C113.421 0.74707 112.73 1.31471 112.73 2.20164C112.73 2.5032 112.801 2.78702 112.96 3.0531H112.339V4.08194H115.55V3.03536H115.532Z" fill="white"/>
<path d="M115.035 4.95117H112.818V19.1953H115.035V4.95117Z" fill="white"/>
<path d="M126.211 8.78311C126.441 8.55251 126.548 8.26869 126.548 7.93166C126.548 7.23985 126.051 6.74316 125.359 6.74316C124.685 6.74316 124.153 7.25759 124.153 7.93166C124.082 8.97824 125.519 9.54587 126.211 8.78311Z" fill="white"/>
<path d="M128.446 9.13789C129.102 9.13789 129.616 8.60573 129.616 7.93166C129.616 7.23985 129.102 6.74316 128.446 6.74316C127.718 6.74316 127.222 7.23985 127.222 7.93166C127.222 8.60573 127.754 9.13789 128.446 9.13789Z" fill="white"/>
<path d="M137.954 21.9447C137.954 21.2529 137.439 20.7207 136.783 20.7207C136.091 20.7207 135.559 21.2529 135.559 21.9447C135.559 22.6187 136.091 23.1332 136.783 23.1332C137.457 23.1332 137.954 22.6187 137.954 21.9447Z" fill="white"/>
<path d="M134.885 21.9447C134.885 21.2529 134.388 20.7207 133.696 20.7207C133.022 20.7207 132.49 21.2529 132.49 21.9447C132.49 22.6187 133.022 23.1332 133.696 23.1332C134.406 23.1332 134.885 22.6187 134.885 21.9447Z" fill="white"/>
<path d="M160.588 19.1953H168.376C168.695 17.5988 168.784 16.1974 168.66 15.009C168.358 12.6142 166.637 11.1064 163.64 11.1064C162.717 11.1064 161.848 11.2484 161.05 11.5322L161.546 13.4125C162.238 13.2351 162.877 13.1464 163.444 13.1464C166.389 13.1464 166.708 15.5234 166.425 17.1731H160.588H159.294C159.347 16.836 159.382 16.5167 159.382 16.2152C159.382 14.9912 159.027 13.9801 158.336 13.1819C157.644 12.3836 156.633 11.9934 155.356 11.9934C154.061 11.9934 152.979 12.3836 152.145 13.1819C151.311 13.9979 150.903 15.009 150.903 16.2684C150.903 16.499 150.921 16.8006 150.974 17.1731H149.715H148.047C147.87 17.1731 147.462 17.1553 146.788 17.1376C147.817 16.1088 148.349 15.0267 148.349 13.9092C148.349 12.153 146.894 11.1064 144.57 11.1064C143.116 11.1064 141.679 11.479 140.26 12.224C140.065 12.6852 139.923 13.377 139.816 14.3349C140.739 15.2218 141.555 16.162 142.229 17.1199C141.75 17.1553 141.147 17.1731 140.384 17.1731H138.699C137.369 17.1731 136.677 16.5345 136.677 15.275V11.3016H134.459V14.9735C134.459 16.6587 134.034 17.1731 132.526 17.1731H132.153C130.894 17.1731 130.521 16.8006 130.521 15.5411V11.3016H126.938C125.395 11.3016 124.206 11.6741 123.373 12.4546C122.521 13.2351 122.113 14.193 122.113 15.346C122.113 16.499 122.504 17.3859 123.32 18.0068C124.118 18.6276 125.111 18.9469 126.335 18.9469C127.258 18.9469 128.109 18.7518 128.889 18.3793C129.404 18.9292 130.468 19.1953 132.153 19.1953H132.544C134.176 19.1953 135.311 18.8228 135.932 18.06C136.446 18.805 137.369 19.1953 138.699 19.1953H139.373C141.307 19.1953 142.903 19.0179 144.127 18.6986C145.333 19.0179 146.717 19.1953 148.26 19.1953H149.732H151.897C152.216 19.621 152.624 20.0467 153.138 20.4015H154.717C156.243 20.4015 157.413 20.0113 158.247 19.1953H160.588ZM128.162 16.57C127.79 16.7828 127.275 16.8715 126.619 16.8715C125.093 16.8715 124.331 16.3039 124.331 15.1509C124.331 13.9624 125.218 13.306 126.566 13.306H128.144V16.57H128.162ZM144.375 16.5877C143.701 15.4879 142.868 14.53 141.892 13.6963L141.91 13.6076C142.637 13.3238 143.364 13.1819 144.092 13.1819C145.44 13.1819 146.131 13.714 146.131 14.4413C146.114 15.1509 145.422 16.0733 144.375 16.5877ZM154.859 18.397H153.83C153.351 17.7762 153.138 17.1021 153.138 16.3394C153.138 14.9203 153.954 14.0511 155.231 14.0511C156.455 14.0511 157.165 14.9203 157.165 16.1265C157.165 17.4392 156.42 18.397 154.859 18.397Z" fill="white"/>
<path d="M163.196 21.9447C163.089 22.9735 164.597 23.5234 165.253 22.7961C165.466 22.5655 165.573 22.2817 165.573 21.9447C165.573 21.2529 165.094 20.7207 164.402 20.7207C163.71 20.7207 163.196 21.2529 163.196 21.9447Z" fill="white"/>
<path d="M9.91587 30.1935C10.5722 30.1935 11.0866 29.6614 11.0866 28.9873C11.0866 28.3133 10.5899 27.7988 9.91587 27.7988C9.18858 27.7988 8.69189 28.2955 8.69189 28.9873C8.69189 29.6614 9.22406 30.1935 9.91587 30.1935Z" fill="#08A46D"/>
<path d="M5.62262 28.9873C5.55167 30.0339 7.00625 30.6015 7.68032 29.8388C7.91092 29.6082 8.01734 29.3244 8.01734 28.9873C8.01734 28.2955 7.52066 27.7988 6.82885 27.7988C6.13704 27.7988 5.62262 28.2955 5.62262 28.9873Z" fill="#08A46D"/>
<path d="M86.1921 38.2646C89.119 38.2646 90.343 37.2181 90.343 34.3621V30.3887H88.1256V34.0606C88.1256 35.7458 87.6999 36.2602 86.1921 36.2602H85.8196H84.844H83.8684H82.8927H81.9171H80.9415H79.9659H78.9902H78.0146H77.039H76.0633H75.0877H75.3183H74.3427H73.3671H72.3914H71.4158H70.4402H69.4645H68.4889H67.5133H66.5377H65.562H64.5864H63.6108H62.6352H61.6595H60.6839H59.7083H58.7326H57.757H56.7814H55.8058H54.8301H53.8545H52.8789H51.9033H50.9276H49.952H48.9764H48.0007H47.0251H46.0495H45.0739H44.0982H43.1226H42.147H41.1714H40.1957H39.2201H38.2445H37.2688H36.2932H35.3176H34.342H33.3663H32.3907H31.4151H30.4395H29.4638H28.4882H27.5126H26.5369H25.5613H24.5857H30.5814H29.6057H28.6301H27.6545H26.6789H25.7032H24.7276H23.752H22.7764H21.8007H20.8251H19.8495H18.8738C17.5434 36.2602 16.8516 35.6216 16.8516 34.3621V30.3887H14.6343V34.3089C14.6343 35.7458 14.1021 36.2602 12.8072 36.2602H5.35697C3.60084 36.2602 2.58974 35.4619 2.58974 34.0251C2.58974 33.5462 2.69617 32.8721 2.94451 31.9674L0.993256 31.453C0.603005 32.5351 0.390137 33.5284 0.390137 34.4686C0.390137 36.7214 2.16401 38.2469 5.01994 38.2469H13.4635C14.6875 38.2469 15.5922 37.8921 16.1776 37.2003C16.692 37.8921 17.5789 38.2469 18.8738 38.2469H19.8495H20.8251H21.8007H22.7764H23.752H24.7276H25.7032H26.6789H27.6545H28.6301H29.6057H30.5814H24.5857H25.5613H26.5369H27.5126H28.4882H29.4638H30.4395H31.4151H32.3907H33.3663H34.342H35.3176H36.2932H37.2688H38.2445H39.2201H40.1957H41.1714H42.147H43.1226H44.0982H45.0739H46.0495H47.0251H48.0007H48.9764H49.952H50.9276H51.9033H52.8789H53.8545H54.8301H55.8058H56.7814H57.757H58.7326H59.7083H60.6839H61.6595H62.6352H63.6108H64.5864H65.562H66.5377H67.5133H68.4889H69.4645H70.4402H71.4158H72.3914H73.3671H74.3427H75.3183H75.0877H76.0633H77.039H78.0146H78.9902H79.9659H80.9415H81.9171H82.8927H83.8684H84.844H85.8196H86.1921V38.2646Z" fill="#08A46D"/>
<path d="M86.9728 39.79C86.2988 39.79 85.7666 40.3222 85.7666 41.014C85.7666 41.6881 86.2988 42.2025 86.9728 42.2025C87.6646 42.2025 88.1613 41.6881 88.1613 41.014C88.1613 40.3222 87.6824 39.79 86.9728 39.79Z" fill="#08A46D"/>
<path d="M90.077 39.79C89.3852 39.79 88.853 40.3222 88.853 41.014C88.853 41.6881 89.3852 42.2025 90.077 42.2025C90.7333 42.2025 91.2477 41.6881 91.2477 41.014C91.23 40.3222 90.7333 39.79 90.077 39.79Z" fill="#08A46D"/>
<path d="M94.4764 37.3946C94.4764 38.9556 93.8201 39.541 92.064 39.7894L92.401 41.7051C95.3634 41.4923 96.6938 39.9667 96.6938 36.9334V30.3701H94.4764V37.3946Z" fill="#08A46D"/>
<path d="M94.3876 27.0001C94.2812 28.0467 95.789 28.5966 96.4453 27.8693C96.871 27.4081 96.871 26.5921 96.4453 26.1309C95.7712 25.4391 94.2634 25.9358 94.3876 27.0001Z" fill="#08A46D"/>
<path d="M109.057 39.79C108.366 39.79 107.833 40.3222 107.833 41.014C107.833 41.6881 108.366 42.2025 109.057 42.2025C109.714 42.2025 110.228 41.6881 110.228 41.014C110.228 40.3222 109.732 39.79 109.057 39.79Z" fill="#08A46D"/>
<path d="M105.971 39.79C105.297 39.79 104.765 40.3222 104.765 41.014C104.765 41.6881 105.297 42.2025 105.971 42.2025C106.663 42.2025 107.159 41.6881 107.159 41.014C107.159 40.3222 106.663 39.79 105.971 39.79Z" fill="#08A46D"/>
<path d="M112.871 34.0606C112.871 35.7812 112.41 36.2602 110.973 36.2602C109.643 36.2602 108.951 35.6216 108.951 34.3621V30.3887H106.733V34.0606C106.733 35.7458 106.308 36.2602 104.8 36.2602H104.427H102.512V30.3887H100.294V37.3954C100.294 38.9565 99.638 39.5418 97.8818 39.7902L98.2189 41.706C100.667 41.5286 102.068 40.3933 102.423 38.2646H104.445H104.835C106.467 38.2646 107.603 37.8921 108.223 37.1294C108.738 37.8921 109.66 38.2646 110.991 38.2646C113.847 38.2646 115.124 37.2358 115.124 34.3621V30.3887H112.906V34.0606H112.871Z" fill="#08A46D"/>
<path d="M113.244 39.79C112.552 39.79 112.038 40.3222 112.038 41.014C111.931 42.0429 113.439 42.5928 114.095 41.8655C114.308 41.6349 114.415 41.351 114.415 41.014C114.415 40.3222 113.936 39.79 113.244 39.79Z" fill="#08A46D"/>
<path d="M126.211 27.8515C126.441 27.6209 126.548 27.3371 126.548 27C126.548 26.3082 126.051 25.8115 125.359 25.8115C124.685 25.8115 124.153 26.3259 124.153 27C124.082 28.0643 125.537 28.632 126.211 27.8515Z" fill="#08A46D"/>
<path d="M129.634 27C129.634 26.3082 129.12 25.8115 128.464 25.8115C127.736 25.8115 127.24 26.3082 127.24 27C127.24 27.6741 127.772 28.2062 128.464 28.2062C129.12 28.2062 129.634 27.6741 129.634 27Z" fill="#08A46D"/>
<path d="M150.016 30.1934C148.739 30.1934 147.675 30.5659 146.859 31.3109C146.025 32.0382 145.617 33.0138 145.617 34.1668C145.617 34.9828 145.812 35.6923 146.185 36.2777H143.187H141.519C141.342 36.2777 140.934 36.26 140.26 36.2422C141.289 35.2134 141.821 34.1314 141.821 33.0138C141.821 31.2577 140.366 30.2111 138.025 30.2111C136.57 30.2111 135.151 30.5836 133.714 31.3286C133.519 31.7721 133.377 32.4816 133.271 33.4395C134.193 34.3265 135.009 35.2666 135.683 36.2245C135.204 36.26 134.601 36.2777 133.839 36.2777H132.153C130.894 36.2777 130.521 35.9052 130.521 34.6458V30.4062H126.938C125.395 30.4062 124.206 30.7787 123.373 31.5592C122.521 32.3397 122.113 33.2976 122.113 34.4506C122.113 35.6037 122.504 36.4906 123.32 37.1114C124.118 37.7323 125.111 38.0516 126.335 38.0516C127.258 38.0516 128.109 37.8565 128.889 37.484C129.404 38.0339 130.468 38.2999 132.153 38.2999H132.827C134.761 38.2999 136.357 38.1226 137.581 37.8033C138.788 38.1226 140.154 38.2999 141.715 38.2999H143.187H149.413C153.138 38.2999 154.078 36.1181 154.078 34.1846C154.078 33.067 153.724 32.1269 153.032 31.3641C152.305 30.5659 151.293 30.1934 150.016 30.1934ZM128.18 35.6569C127.807 35.8697 127.293 35.9584 126.637 35.9584C125.111 35.9584 124.348 35.3908 124.348 34.2378C124.348 33.0493 125.235 32.393 126.583 32.393H128.162V35.6569H128.18ZM137.83 35.6746C137.156 34.5748 136.322 33.6169 135.346 32.7832L135.364 32.6945C136.091 32.4107 136.819 32.2688 137.546 32.2688C138.894 32.2688 139.586 32.8009 139.586 33.5282C139.586 34.22 138.876 35.1425 137.83 35.6746ZM149.644 36.2777H148.491C148.065 35.6746 147.852 35.036 147.852 34.3797C147.852 33.0315 148.686 32.251 149.892 32.251C151.081 32.251 151.826 33.0493 151.826 34.2555C151.826 35.6037 151.098 36.2777 149.644 36.2777Z" fill="#08A46D"/>
<path d="M163.64 30.1936C162.717 30.1936 161.848 30.3355 161.05 30.6193L161.546 32.4996C162.238 32.3222 162.877 32.2335 163.444 32.2335C166.389 32.2335 166.708 34.6105 166.425 36.2602H160.589C159.205 36.2602 158.637 35.7812 158.637 34.6814V24.0205H156.42V34.7347C156.42 37.1649 157.591 38.2647 160.606 38.2647H168.394C168.713 36.6682 168.802 35.2668 168.677 34.0783C168.358 31.7014 166.637 30.1936 163.64 30.1936Z" fill="#08A46D"/>
<path d="M164.402 39.79C163.71 39.79 163.196 40.3222 163.196 41.014C163.089 42.0429 164.597 42.5928 165.253 41.8655C165.466 41.6349 165.573 41.351 165.573 41.014C165.573 40.3222 165.094 39.79 164.402 39.79Z" fill="#08A46D"/>
</svg>
